<?xml version="1.0" encoding="UTF-8" standalone="no"?>
<!DOCTYPE svg PUBLIC "-//W3C//DTD SVG 1.1//EN" "http://www.w3.org/Graphics/SVG/1.1/DTD/svg11.dtd">
<svg xmlns="http://www.w3.org/2000/svg" version="1.1" viewBox="0.00 0.00 1920.00 1080.00">
<g stroke-width="2.10" fill="none" stroke-linecap="butt">
<path stroke="#bbbab5" vector-effect="non-scaling-stroke" d="
  M 963.23 407.93
  L 964.35 409.99"
/>
<path stroke="#bbbab5" vector-effect="non-scaling-stroke" d="
  M 1007.98 419.22
  Q 1006.58 420.24 1006.29 421.75
  Q 1006.14 422.53 1005.63 421.94
  Q 1005.46 421.76 1005.33 422.02
  Q 1005.12 422.40 1004.69 422.34
  Q 1001.79 421.94 999.66 423.31
  Q 998.97 423.75 999.78 423.62
  Q 1000.94 423.42 1001.17 424.50
  Q 1001.20 424.62 1001.32 424.65
  Q 1002.39 424.89 1002.35 425.96
  Q 1002.32 426.48 1001.89 426.77
  L 999.93 428.02"
/>
<path stroke="#bbbab5" vector-effect="non-scaling-stroke" d="
  M 997.90 427.37
  Q 998.34 426.19 997.69 425.64
  Q 997.22 425.23 997.11 425.84
  Q 996.97 426.58 997.29 427.56"
/>
<path stroke="#bbbab5" vector-effect="non-scaling-stroke" d="
  M 994.90 428.67
  Q 994.69 429.17 993.72 429.34
  Q 993.18 429.43 992.81 429.04
  Q 992.35 428.56 991.71 428.78
  Q 991.25 428.95 990.79 428.76
  Q 988.77 427.95 987.92 425.98
  Q 987.73 425.53 987.27 425.36
  Q 986.97 425.24 986.92 425.57
  Q 986.75 426.68 985.24 426.54
  A 2.12 2.10 74.8 0 1 983.68 425.64
  Q 981.41 422.37 977.54 419.17
  Q 977.01 418.73 976.53 419.21
  Q 975.79 419.95 974.72 420.48
  Q 974.23 420.73 973.74 420.48
  L 972.33 419.79
  Q 971.56 419.41 972.42 419.45
  L 975.48 419.58
  Q 975.56 419.58 975.56 419.50
  L 975.59 419.23
  Q 975.60 419.13 975.50 419.13
  C 971.76 419.11 966.91 419.71 963.42 418.20
  Q 962.71 417.90 962.09 418.34
  C 961.01 419.09 960.14 418.84 959.20 420.03
  Q 958.14 421.39 956.97 422.56
  A 0.75 0.75 0.0 0 0 957.38 423.83
  Q 961.06 424.44 962.75 421.39
  Q 963.00 420.94 963.52 420.90
  Q 964.74 420.81 965.89 421.00
  Q 967.35 421.25 967.76 422.18
  Q 968.11 422.96 967.60 423.78
  Q 966.93 424.85 965.85 425.25
  Q 961.52 426.86 956.86 430.01
  Q 955.62 430.85 954.15 430.72
  Q 953.65 430.67 953.31 430.31
  Q 951.67 428.59 950.63 426.77
  Q 950.30 426.18 949.94 426.76
  Q 949.22 427.90 949.37 429.23
  Q 949.43 429.76 949.19 430.24
  Q 948.80 431.04 947.91 430.63
  A 1.53 1.53 0.0 0 0 946.58 430.65
  L 943.90 431.95
  Q 943.42 432.17 942.90 432.11
  L 940.78 431.83
  Q 940.16 431.75 940.12 432.38
  Q 940.09 433.00 939.68 433.54
  Q 939.39 433.95 938.90 434.07
  Q 936.45 434.68 934.24 435.74
  Q 932.19 436.73 930.22 437.84
  Q 926.96 439.67 926.97 443.56
  Q 926.97 444.05 926.57 444.33
  Q 924.70 445.62 922.80 445.70
  Q 922.28 445.73 921.87 446.05
  Q 920.15 447.40 918.43 448.71
  Q 916.59 450.12 914.64 450.15
  Q 910.16 450.22 905.74 449.08
  Q 903.46 448.50 901.11 448.64
  A 0.47 0.47 0.0 0 1 900.68 447.93
  Q 901.03 447.32 900.86 446.64
  Q 900.70 445.98 900.11 446.30
  Q 899.08 446.86 898.27 446.57"
/>
<path stroke="#bbbab5" vector-effect="non-scaling-stroke" d="
  M 899.88 425.15
  Q 898.95 423.94 899.20 423.23"
/>
<path stroke="#bbbab5" vector-effect="non-scaling-stroke" d="
  M 932.87 412.53
  Q 934.24 416.19 936.16 413.24"
/>
<path stroke="#bbbab5" vector-effect="non-scaling-stroke" d="
  M 1043.55 442.24
  C 1043.32 444.44 1041.62 445.08 1041.83 447.46"
/>
<path stroke="#bbbab5" vector-effect="non-scaling-stroke" d="
  M 1040.43 448.83
  Q 1040.15 448.74 1039.81 448.43
  Q 1039.10 447.77 1039.08 448.74
  Q 1039.08 449.10 1038.66 449.24
  A 0.63 0.63 0.0 0 0 1038.23 449.90
  Q 1038.38 451.42 1039.70 452.00
  A 1.95 1.94 -65.2 0 1 1040.67 454.65
  L 1038.86 458.29"
/>
<path stroke="#bbbab5" vector-effect="non-scaling-stroke" d="
  M 1037.76 459.27
  Q 1036.35 458.12 1034.83 457.34
  Q 1034.70 457.27 1033.57 456.43
  Q 1032.68 455.76 1031.54 456.48"
/>
<path stroke="#bbbab5" vector-effect="non-scaling-stroke" d="
  M 1022.81 456.22
  Q 1022.66 454.49 1019.10 455.25
  Q 1018.63 455.35 1018.43 455.79
  Q 1018.10 456.51 1017.43 456.78
  Q 1016.93 456.97 1016.45 456.74
  L 1013.51 455.32
  A 1.26 1.25 17.1 0 0 1011.72 456.26
  Q 1011.56 457.30 1011.62 458.32
  Q 1011.62 458.39 1011.69 458.41
  Q 1011.75 458.42 1011.78 458.38
  Q 1011.81 458.34 1011.80 458.29
  Q 1011.48 457.07 1011.98 455.72
  Q 1012.19 455.16 1012.32 455.75
  Q 1012.49 456.51 1012.41 457.29
  A 1.70 1.69 -75.0 0 0 1013.39 459.00
  Q 1016.52 460.43 1019.37 462.20
  Q 1019.84 462.49 1020.05 463.04
  Q 1020.38 463.91 1019.05 464.16
  A 1.36 1.34 -21.0 0 1 1017.67 463.56
  Q 1017.17 462.78 1016.34 462.87
  C 1014.80 463.02 1013.32 462.96 1011.85 463.50
  A 2.04 1.99 6.2 0 0 1010.83 464.30
  Q 1010.32 465.10 1009.44 465.43
  Q 1008.93 465.62 1008.94 466.17
  Q 1008.99 468.34 1009.76 470.22
  Q 1009.98 470.75 1009.91 471.31
  Q 1009.09 478.18 1015.06 482.30
  A 1.38 1.38 0.0 0 0 1017.22 481.23
  Q 1017.30 479.60 1018.42 480.39"
/>
<path stroke="#bbbab5" vector-effect="non-scaling-stroke" d="
  M 1020.20 481.27
  Q 1020.36 481.60 1020.32 482.29"
/>
<path stroke="#bbbab5" vector-effect="non-scaling-stroke" d="
  M 1019.73 499.07
  Q 1018.95 499.32 1019.52 500.66"
/>
<path stroke="#565451" vector-effect="non-scaling-stroke" d="
  M 974.29 504.90
  C 973.04 503.98 971.82 503.07 971.63 501.50
  Q 971.44 499.86 970.81 498.23
  Q 970.59 497.66 969.98 497.67
  Q 969.39 497.68 969.40 498.26
  L 969.41 499.25"
/>
<path stroke="#bbbab5" vector-effect="non-scaling-stroke" d="
  M 969.41 499.25
  Q 967.27 496.27 968.96 493.37
  A 1.44 1.43 36.5 0 1 971.18 493.04
  L 976.14 497.69"
/>
<path stroke="#565451" vector-effect="non-scaling-stroke" d="
  M 976.14 497.69
  Q 975.45 497.75 974.12 498.43
  Q 973.44 498.78 973.47 499.54
  Q 973.52 500.90 974.10 502.33
  Q 974.39 503.06 975.16 502.87
  Q 983.95 500.64 989.99 494.64
  A 1.59 1.55 -67.2 0 1 991.06 494.19
  C 995.95 494.08 1001.13 493.21 1005.60 491.50
  C 1007.34 490.83 1008.53 489.35 1010.19 488.49
  Q 1010.25 488.45 1010.21 488.39
  L 1010.08 488.17
  Q 1009.95 487.95 1009.74 488.09
  Q 1005.14 490.90 1000.80 491.16
  Q 996.78 491.40 992.45 491.66
  A 0.85 0.85 0.0 0 1 991.72 490.29
  Q 994.47 486.67 994.12 481.85
  Q 994.12 481.77 994.05 481.73
  Q 993.92 481.65 993.80 481.63
  Q 993.47 481.59 993.36 481.90
  Q 991.57 487.11 988.39 490.80
  A 0.85 0.85 0.0 0 1 987.00 490.63
  Q 984.71 486.23 980.82 482.85"
/>
<path stroke="#bbbab5" vector-effect="non-scaling-stroke" d="
  M 980.82 482.85
  Q 979.39 482.05 980.22 480.46
  C 980.71 479.51 981.51 479.51 982.23 478.96
  A 2.20 2.19 -58.8 0 0 981.27 475.05
  Q 979.42 474.73 977.43 476.46
  C 976.86 476.95 976.84 477.50 976.23 477.99
  Q 976.05 478.14 975.80 478.17
  Q 975.37 478.22 975.22 477.82
  Q 975.06 477.38 974.60 477.35
  Q 973.90 477.31 973.61 477.97
  A 1.40 1.38 86.7 0 1 973.04 478.62
  Q 971.88 479.29 971.03 478.35
  Q 970.72 478.01 970.31 477.82
  Q 969.57 477.47 969.08 476.73
  A 2.51 2.49 70.8 0 0 966.84 475.64
  Q 964.40 475.81 962.06 477.14
  Q 961.77 477.30 961.51 477.49
  Q 960.42 478.27 958.68 477.79
  A 0.79 0.78 2.1 0 0 957.70 478.70
  Q 957.99 480.24 957.91 481.83
  Q 957.80 483.73 958.66 485.96
  A 1.28 1.25 49.4 0 1 958.59 487.00
  Q 958.13 487.87 957.07 487.65
  Q 956.27 487.49 955.61 486.99
  C 954.40 486.06 952.46 487.19 951.22 487.61
  Q 950.76 487.77 950.68 487.29
  L 950.63 487.02
  Q 950.54 486.49 951.03 486.25
  L 953.73 484.96
  A 1.11 1.10 85.7 0 0 954.31 484.28
  Q 954.73 482.88 955.86 481.93
  A 1.43 1.42 42.6 0 0 955.76 479.67
  Q 954.51 478.79 953.20 478.42
  Q 952.72 478.28 952.40 477.91
  Q 950.59 475.87 948.15 477.00
  Q 947.27 477.41 946.31 477.50
  Q 945.21 477.59 944.07 478.03
  Q 943.88 478.11 943.75 478.26
  Q 943.65 478.38 943.62 478.53
  Q 943.53 479.00 943.14 479.28
  Q 941.49 480.46 941.22 482.44
  Q 940.48 487.94 942.74 491.95
  Q 942.85 492.15 943.08 492.14
  Q 943.22 492.13 943.36 492.15
  Q 944.09 492.23 943.89 491.52
  Q 943.63 490.58 944.50 490.07
  Q 945.59 489.43 946.23 490.35
  Q 946.47 490.70 946.37 491.11
  C 945.98 492.58 945.89 493.85 946.61 495.32
  Q 948.23 498.62 948.82 502.25"
/>
<path stroke="#565451" vector-effect="non-scaling-stroke" d="
  M 948.82 502.25
  L 947.59 501.68
  Q 947.12 501.46 947.12 501.98
  L 947.12 502.56
  Q 947.12 503.12 947.53 503.51
  L 952.43 508.28
  Q 952.66 508.50 952.41 508.69
  L 951.95 509.03
  A 0.32 0.32 0.0 0 1 951.50 508.98
  Q 949.52 506.58 947.41 504.65
  C 945.01 502.46 942.73 499.80 940.57 497.25
  Q 937.18 493.24 935.11 487.51
  Q 934.14 484.80 934.08 478.27
  Q 934.07 477.39 933.60 478.13
  Q 932.00 480.67 931.89 483.61
  A 0.85 0.85 0.0 0 1 930.76 484.38
  Q 927.37 483.17 925.04 481.06
  C 922.50 478.75 919.32 476.91 918.93 473.20
  Q 918.76 471.48 918.41 469.86
  A 0.61 0.61 0.0 0 0 917.70 469.39
  Q 917.20 469.50 917.17 470.03
  Q 917.11 471.46 917.04 472.87
  A 0.84 0.83 -78.4 0 1 915.91 473.62
  L 911.46 471.93
  Q 910.54 471.57 910.64 472.56
  L 910.68 472.95
  Q 910.78 473.90 911.72 474.06
  Q 915.52 474.70 918.14 477.24
  C 919.94 478.98 922.14 479.87 923.70 481.80
  C 926.72 485.54 930.59 488.00 933.48 492.08
  C 937.35 497.55 941.42 502.29 944.09 508.41
  A 0.87 0.86 63.8 0 1 943.72 509.51
  L 943.46 509.65
  A 0.55 0.55 0.0 0 1 942.73 509.45
  Q 940.94 506.43 940.04 505.59
  Q 929.45 495.78 915.04 495.27
  Q 912.10 495.17 911.02 494.80
  C 908.30 493.86 906.97 491.25 904.99 489.35
  Q 904.46 488.85 904.58 489.57
  Q 904.76 490.70 905.48 491.69
  Q 907.24 494.11 904.37 493.25
  C 901.13 492.28 897.76 490.03 894.73 488.38
  Q 894.33 488.15 894.39 488.61
  Q 894.43 488.87 894.63 489.04
  C 899.77 493.11 905.75 495.84 912.11 496.66
  Q 915.74 497.13 919.40 497.55
  C 926.21 498.34 932.06 501.75 937.49 505.62
  Q 939.70 507.20 941.00 509.86
  A 1.74 1.73 53.9 0 1 940.70 511.82
  Q 939.97 512.58 939.78 514.09"
/>
<path stroke="#bbbab5" vector-effect="non-scaling-stroke" d="
  M 886.31 519.31
  Q 886.56 516.82 885.44 514.38
  Q 885.21 513.88 884.66 513.90
  Q 883.96 513.93 883.28 514.30
  A 0.71 0.71 0.0 0 1 882.23 513.61
  L 882.54 510.74
  Q 882.58 510.28 882.37 509.87
  Q 881.75 508.62 883.03 507.77
  Q 883.57 507.41 883.00 507.11
  Q 882.38 506.79 881.71 506.67
  Q 881.47 506.63 881.28 506.50
  Q 881.14 506.41 881.05 506.27
  Q 880.68 505.76 881.28 505.57
  L 883.20 504.94
  Q 883.85 504.74 883.40 504.22
  Q 882.88 503.62 882.69 502.88
  A 0.70 0.70 0.0 0 0 881.88 502.36
  L 879.67 502.76"
/>
<path stroke="#bbbab5" vector-effect="non-scaling-stroke" d="
  M 877.75 502.65
  Q 872.27 503.21 869.64 500.62
  Q 866.48 497.51 863.36 494.32
  Q 862.96 493.91 862.85 493.35
  Q 862.48 491.32 860.75 491.41
  Q 860.28 491.44 859.86 491.66
  Q 859.06 492.08 859.02 491.48"
/>
<path stroke="#bbbab5" vector-effect="non-scaling-stroke" d="
  M 871.97 476.12
  L 875.22 477.90
  A 1.00 0.99 -67.8 0 0 876.66 477.29
  Q 876.91 476.38 876.03 476.10
  A 0.91 0.89 89.8 0 1 875.43 475.49
  Q 874.98 473.99 875.19 472.53
  Q 875.22 472.33 875.38 472.20
  Q 876.37 471.44 876.19 470.09
  Q 875.52 465.21 879.04 463.34
  Q 880.16 462.74 880.85 461.78
  Q 881.68 460.63 882.09 459.33
  Q 882.24 458.82 882.77 458.91
  Q 884.05 459.12 884.98 459.92
  Q 885.34 460.23 885.80 460.30
  Q 889.33 460.86 892.52 459.72
  Q 893.10 459.52 893.40 458.99
  L 894.84 456.42
  Q 895.16 455.86 895.15 455.20
  L 895.07 451.83
  Q 895.06 451.28 894.61 450.96
  L 893.98 450.52"
/>
<path stroke="#bbbab5" vector-effect="non-scaling-stroke" d="
  M 886.63 445.19
  Q 887.19 446.94 888.39 448.14
  Q 888.75 448.50 889.26 448.50
  L 892.53 448.54"
/>
<path stroke="#bbbab5" vector-effect="non-scaling-stroke" d="
  M 880.38 448.71
  Q 881.31 449.96 883.02 449.08
  A 1.26 1.26 0.0 0 0 883.02 446.85
  L 881.33 445.97"
/>
<path stroke="#74736f" vector-effect="non-scaling-stroke" d="
  M 948.82 502.25
  Q 951.41 506.95 957.47 508.11
  Q 958.39 508.28 957.72 507.63
  Q 957.27 507.18 956.62 507.08
  A 0.97 0.96 -61.4 0 1 956.13 505.40
  Q 959.67 502.23 964.11 500.84
  A 2.14 2.10 11.3 0 0 965.04 500.23
  Q 965.90 499.26 966.99 500.05
  Q 967.41 500.35 967.46 500.86
  Q 967.65 502.68 968.90 502.73"
/>
<path stroke="#74736f" vector-effect="non-scaling-stroke" d="
  M 968.90 502.73
  Q 970.21 502.18 969.41 499.25"
/>
<path stroke="#bbbab5" vector-effect="non-scaling-stroke" d="
  M 1019.75 497.24
  Q 1022.36 494.36 1018.71 490.27"
/>
<path stroke="#74736f" vector-effect="non-scaling-stroke" d="
  M 980.82 482.85
  Q 984.13 487.61 985.12 493.02
  Q 985.21 493.52 984.90 493.92
  C 983.26 495.96 978.93 497.04 976.14 497.69"
/>
<path stroke="#bbbab5" vector-effect="non-scaling-stroke" d="
  M 863.62 513.41
  Q 863.16 513.16 862.00 513.51"
/>
<path stroke="#bbbab5" vector-effect="non-scaling-stroke" d="
  M 929.98 407.19
  Q 929.97 407.15 929.95 407.11"
/>
<path stroke="#565451" vector-effect="non-scaling-stroke" d="
  M 918.5855 479.9155
  A 1.43 0.91 -28.6 0 0 916.8944 479.8010
  A 1.43 0.91 -28.6 0 0 916.0745 481.2845
  A 1.43 0.91 -28.6 0 0 917.7656 481.3990
  A 1.43 0.91 -28.6 0 0 918.5855 479.9155"
/>
<path stroke="#bbbab5" vector-effect="non-scaling-stroke" d="
  M 1018.02 457.47
  Q 1017.90 457.49 1017.76 457.49
  Q 1017.00 457.50 1017.68 457.85
  Q 1017.95 457.98 1018.27 457.95
  Q 1018.55 457.92 1018.64 457.65
  Q 1018.92 456.90 1018.87 456.23
  Q 1018.82 455.55 1018.62 456.21
  Q 1018.48 456.70 1018.37 457.15
  Q 1018.30 457.42 1018.02 457.47"
/>
<path stroke="#bbbab5" vector-effect="non-scaling-stroke" d="
  M 1023.10 470.94
  Q 1023.71 472.58 1019.13 472.75"
/>
<path stroke="#bbbab5" vector-effect="non-scaling-stroke" d="
  M 1023.59 475.17
  L 1026.16 472.06"
/>
<path stroke="#bbbab5" vector-effect="non-scaling-stroke" d="
  M 965.22 477.76
  A 0.75 0.75 0.0 0 0 964.98 478.98
  L 966.22 480.22
  Q 966.84 480.84 967.06 479.99
  Q 967.23 479.32 967.13 478.67
  Q 966.89 477.06 965.22 477.76"
/>
<path stroke="#bbbab5" vector-effect="non-scaling-stroke" d="
  M 977.9183 495.6187
  A 2.73 1.16 69.0 0 0 978.0230 492.6543
  A 2.73 1.16 69.0 0 0 975.9617 490.5213
  A 2.73 1.16 69.0 0 0 975.8570 493.4857
  A 2.73 1.16 69.0 0 0 977.9183 495.6187"
/>
<path stroke="#bbbab5" vector-effect="non-scaling-stroke" d="
  M 964.4302 496.3607
  A 1.88 1.28 73.3 0 0 965.1160 494.1922
  A 1.88 1.28 73.3 0 0 963.3498 492.7593
  A 1.88 1.28 73.3 0 0 962.6640 494.9278
  A 1.88 1.28 73.3 0 0 964.4302 496.3607"
/>
</g>
<path fill="#d9d8d3" d="
  M 963.23 407.93
  L 964.35 409.99
  L 965.87 413.79
  Q 966.05 414.23 966.48 414.44
  Q 969.26 415.77 970.64 412.84
  A 0.68 0.68 0.0 0 0 970.02 411.87
  L 966.53 411.88
  Q 965.91 411.89 966.16 411.32
  Q 966.76 409.96 968.01 409.37
  Q 970.02 408.43 971.50 406.90
  Q 971.84 406.54 972.25 406.81
  C 973.72 407.78 974.88 406.74 976.29 406.34
  Q 976.86 406.18 977.39 406.42
  L 980.89 408.01
  Q 981.39 408.24 981.90 408.07
  L 985.29 406.93
  A 1.46 1.45 7.1 0 1 986.98 409.09
  L 986.30 410.15
  Q 986.02 410.60 986.29 411.06
  Q 986.37 411.21 986.55 411.27
  Q 987.01 411.43 987.44 411.22
  Q 991.24 409.31 995.01 410.32
  Q 995.53 410.45 995.74 410.94
  Q 996.91 413.70 994.49 415.63
  Q 994.13 415.91 994.10 416.39
  Q 994.09 416.69 994.62 416.77
  A 0.52 0.48 -47.4 0 0 994.86 416.75
  Q 995.80 416.46 996.65 416.89
  C 997.87 417.52 998.09 419.09 999.79 418.76
  Q 1003.49 418.04 1006.76 416.76
  Q 1007.26 416.57 1007.63 416.96
  Q 1008.56 417.93 1007.98 419.22
  Q 1006.58 420.24 1006.29 421.75
  Q 1006.14 422.53 1005.63 421.94
  Q 1005.46 421.76 1005.33 422.02
  Q 1005.12 422.40 1004.69 422.34
  Q 1001.79 421.94 999.66 423.31
  Q 998.97 423.75 999.78 423.62
  Q 1000.94 423.42 1001.17 424.50
  Q 1001.20 424.62 1001.32 424.65
  Q 1002.39 424.89 1002.35 425.96
  Q 1002.32 426.48 1001.89 426.77
  L 999.93 428.02
  Q 998.60 428.82 997.90 427.37
  Q 998.34 426.19 997.69 425.64
  Q 997.22 425.23 997.11 425.84
  Q 996.97 426.58 997.29 427.56
  L 994.90 428.67
  Q 994.69 429.17 993.72 429.34
  Q 993.18 429.43 992.81 429.04
  Q 992.35 428.56 991.71 428.78
  Q 991.25 428.95 990.79 428.76
  Q 988.77 427.95 987.92 425.98
  Q 987.73 425.53 987.27 425.36
  Q 986.97 425.24 986.92 425.57
  Q 986.75 426.68 985.24 426.54
  A 2.12 2.10 74.8 0 1 983.68 425.64
  Q 981.41 422.37 977.54 419.17
  Q 977.01 418.73 976.53 419.21
  Q 975.79 419.95 974.72 420.48
  Q 974.23 420.73 973.74 420.48
  L 972.33 419.79
  Q 971.56 419.41 972.42 419.45
  L 975.48 419.58
  Q 975.56 419.58 975.56 419.50
  L 975.59 419.23
  Q 975.60 419.13 975.50 419.13
  C 971.76 419.11 966.91 419.71 963.42 418.20
  Q 962.71 417.90 962.09 418.34
  C 961.01 419.09 960.14 418.84 959.20 420.03
  Q 958.14 421.39 956.97 422.56
  A 0.75 0.75 0.0 0 0 957.38 423.83
  Q 961.06 424.44 962.75 421.39
  Q 963.00 420.94 963.52 420.90
  Q 964.74 420.81 965.89 421.00
  Q 967.35 421.25 967.76 422.18
  Q 968.11 422.96 967.60 423.78
  Q 966.93 424.85 965.85 425.25
  Q 961.52 426.86 956.86 430.01
  Q 955.62 430.85 954.15 430.72
  Q 953.65 430.67 953.31 430.31
  Q 951.67 428.59 950.63 426.77
  Q 950.30 426.18 949.94 426.76
  Q 949.22 427.90 949.37 429.23
  Q 949.43 429.76 949.19 430.24
  Q 948.80 431.04 947.91 430.63
  A 1.53 1.53 0.0 0 0 946.58 430.65
  L 943.90 431.95
  Q 943.42 432.17 942.90 432.11
  L 940.78 431.83
  Q 940.16 431.75 940.12 432.38
  Q 940.09 433.00 939.68 433.54
  Q 939.39 433.95 938.90 434.07
  Q 936.45 434.68 934.24 435.74
  Q 932.19 436.73 930.22 437.84
  Q 926.96 439.67 926.97 443.56
  Q 926.97 444.05 926.57 444.33
  Q 924.70 445.62 922.80 445.70
  Q 922.28 445.73 921.87 446.05
  Q 920.15 447.40 918.43 448.71
  Q 916.59 450.12 914.64 450.15
  Q 910.16 450.22 905.74 449.08
  Q 903.46 448.50 901.11 448.64
  A 0.47 0.47 0.0 0 1 900.68 447.93
  Q 901.03 447.32 900.86 446.64
  Q 900.70 445.98 900.11 446.30
  Q 899.08 446.86 898.27 446.57
  Q 896.52 445.56 896.39 444.82
  Q 896.05 442.93 897.68 443.95
  Q 899.34 444.98 901.22 445.50
  Q 901.80 445.66 902.28 445.30
  Q 904.05 443.97 904.62 441.90
  A 1.03 1.03 0.0 0 0 904.37 440.92
  L 902.44 438.86
  Q 902.03 438.42 902.20 437.83
  Q 902.83 435.70 905.25 435.70
  A 0.77 0.76 82.3 0 0 905.99 434.72
  Q 905.03 431.44 902.52 429.86
  A 0.53 0.52 43.7 0 0 901.95 429.87
  Q 901.70 430.04 901.55 429.84
  Q 901.20 429.36 901.74 429.13
  L 903.40 428.42
  A 0.73 0.72 47.8 0 0 903.46 427.12
  L 899.88 425.15
  Q 898.95 423.94 899.20 423.23
  Q 901.90 423.40 903.56 422.19
  Q 904.07 421.81 903.59 421.40
  Q 899.83 418.18 895.29 419.59
  Q 894.70 419.78 894.85 419.18
  Q 894.98 418.68 895.42 418.37
  Q 898.09 416.52 899.92 414.10
  Q 901.10 412.54 902.64 413.73
  Q 905.54 415.95 904.44 419.19
  Q 904.05 420.36 905.27 420.48
  Q 905.46 420.50 905.63 420.42
  Q 906.52 419.98 906.75 418.97
  Q 907.45 415.87 905.77 413.37
  Q 905.28 412.64 905.94 412.05
  Q 911.86 406.79 917.41 411.40
  Q 918.15 412.02 918.58 412.87
  Q 918.91 413.51 919.33 414.10
  Q 919.67 414.59 920.27 414.63
  Q 921.69 414.72 922.30 416.23
  A 0.53 0.52 -15.7 0 1 921.90 416.94
  L 918.92 417.41
  Q 918.32 417.51 918.75 417.94
  C 920.59 419.77 923.53 419.52 925.91 418.59
  A 0.80 0.79 -33.2 0 0 926.19 417.29
  Q 925.00 416.09 925.31 414.41
  A 1.17 1.16 7.9 0 0 924.27 413.04
  Q 922.58 412.88 921.48 411.45
  Q 921.19 411.07 920.72 411.18
  Q 920.47 411.24 920.47 411.53
  Q 920.45 412.51 919.60 412.03
  C 917.96 411.11 918.08 409.65 918.10 408.05
  Q 918.11 407.29 917.53 406.81
  Q 916.41 405.89 916.75 404.24
  A 0.62 0.61 30.8 0 1 917.82 403.97
  Q 919.57 405.99 922.38 404.74
  A 0.51 0.50 57.7 0 1 922.98 404.88
  L 923.23 405.17
  Q 923.42 405.40 923.17 405.56
  L 920.89 406.96
  Q 920.47 407.22 920.40 407.71
  Q 920.31 408.29 920.67 408.78
  A 1.21 1.21 0.0 0 0 921.89 409.27
  Q 924.11 408.86 925.55 410.38
  Q 927.14 412.06 929.48 412.22
  Q 931.46 412.36 932.87 412.53
  Q 934.24 416.19 936.16 413.24
  Q 936.87 412.59 936.41 412.40
  Q 933.76 411.35 933.64 408.15
  Q 933.62 407.60 934.14 407.41
  Q 937.14 406.33 938.41 409.29
  Q 938.80 410.20 939.36 409.39
  L 940.32 408.04
  A 1.58 1.57 49.0 0 0 940.43 406.41
  Q 939.71 405.01 939.54 403.41
  A 1.08 1.07 -0.4 0 1 940.71 402.23
  Q 942.31 402.37 941.77 400.73
  A 0.32 0.31 61.0 0 0 941.27 400.58
  Q 939.52 402.00 937.69 400.34
  A 1.85 1.85 0.0 0 1 937.66 397.61
  C 939.64 395.75 944.05 397.83 945.91 399.02
  Q 946.30 399.26 946.61 398.92
  C 947.74 397.69 949.32 397.71 950.63 396.75
  Q 952.87 395.10 955.19 393.91
  C 955.94 393.53 956.64 392.70 957.08 391.98
  Q 957.62 391.08 957.39 392.10
  C 956.97 393.93 957.81 395.59 958.13 397.31
  A 1.56 1.55 -36.1 0 1 957.96 398.37
  C 956.97 400.12 958.32 400.83 958.24 402.30
  A 0.68 0.61 -29.3 0 1 958.13 402.62
  L 955.86 405.89
  A 2.59 2.59 0.0 0 0 955.74 408.65
  L 956.13 409.34
  Q 956.83 410.58 957.66 409.42
  L 959.70 406.59
  Q 960.01 406.16 960.53 406.27
  Q 962.07 406.59 963.23 407.93
  Z
  M 976.6626 413.6439
  A 2.93 0.60 -29.8 0 0 973.8218 414.5793
  A 2.93 0.60 -29.8 0 0 971.5774 416.5561
  A 2.93 0.60 -29.8 0 0 974.4182 415.6207
  A 2.93 0.60 -29.8 0 0 976.6626 413.6439
  Z
  M 930.6665 416.7381
  A 2.06 0.87 29.3 0 0 929.2958 414.9713
  A 2.06 0.87 29.3 0 0 927.0735 414.7219
  A 2.06 0.87 29.3 0 0 928.4442 416.4887
  A 2.06 0.87 29.3 0 0 930.6665 416.7381
  Z
  M 910.37 420.22
  Q 910.42 420.33 910.43 420.46
  Q 910.44 420.54 910.52 420.55
  Q 913.20 420.70 915.48 421.32
  Q 916.23 421.52 916.89 421.07
  Q 917.42 420.70 916.89 420.31
  Q 913.89 418.12 910.41 419.23
  A 0.54 0.52 78.1 0 0 910.05 419.80
  Q 910.08 420.10 910.30 420.16
  Q 910.35 420.17 910.37 420.22
  Z"
/>
<ellipse fill="#9d9b97" cx="0.00" cy="0.00" transform="translate(977.51,395.48) rotate(4.8)" rx="1.08" ry="0.50"/>
<path fill="#9d9b97" d="
  M 964.35 409.99
  L 963.23 407.93
  Q 964.21 408.53 965.40 406.96
  Q 966.19 405.91 966.95 405.36
  Q 969.23 403.69 971.29 401.79
  Q 971.42 401.67 971.56 401.76
  Q 971.75 401.88 971.60 402.05
  L 964.35 409.99
  Z"
/>
<path fill="#d9d8d3" d="
  M 929.98 407.19
  Q 929.97 407.15 929.95 407.11
  Q 928.52 407.23 928.19 406.64
  Q 927.99 406.30 928.36 406.14
  Q 929.03 405.85 929.98 407.19
  Z"
/>
<path fill="#9d9b97" d="
  M 929.98 407.19
  Q 931.61 407.10 932.21 407.83
  Q 932.57 408.25 932.04 408.39
  Q 931.13 408.63 929.95 407.11
  Q 929.97 407.15 929.98 407.19
  Z"
/>
<path fill="#9d9b97" d="
  M 884.80 415.07
  Q 883.51 413.05 884.22 410.81
  Q 884.56 409.72 884.54 410.86
  Q 884.53 411.72 884.45 412.52
  A 1.90 1.87 37.7 0 0 884.58 413.47
  Q 884.89 414.22 884.96 415.02
  Q 884.98 415.36 884.80 415.07
  Z"
/>
<path fill="#d9d8d3" d="
  M 1006.56 413.76
  Q 1006.43 414.23 1005.94 414.21
  Q 1005.18 414.18 1004.76 413.60
  Q 1004.53 413.28 1004.69 412.92
  Q 1004.98 412.23 1005.64 411.93
  Q 1006.26 411.65 1006.50 412.29
  Q 1006.77 412.99 1006.56 413.76
  Z"
/>
<path fill="#9d9b97" d="
  M 932.87 412.53
  Q 934.61 414.29 936.16 413.24
  Q 934.24 416.19 932.87 412.53
  Z"
/>
<rect fill="#9d9b97" x="-1.25" y="-2.02" transform="translate(876.15,416.19) rotate(-15.4)" width="2.50" height="4.04" rx="1.06"/>
<path fill="#d9d8d3" d="
  M 862.90 419.68
  L 863.33 417.41
  A 0.52 0.52 0.0 0 1 864.05 417.03
  Q 864.83 417.35 864.89 418.22
  Q 864.92 418.84 864.37 419.12
  L 863.05 419.79
  Q 862.86 419.89 862.90 419.68
  Z"
/>
<path fill="#9d9b97" d="
  M 994.90 428.67
  Q 998.11 432.87 1003.61 431.73
  Q 1004.25 431.60 1003.85 431.08
  Q 1003.28 430.35 1002.42 430.11
  Q 1001.31 429.80 1002.36 429.32
  Q 1002.75 429.15 1003.16 429.25
  Q 1005.98 430.01 1007.13 427.86
  Q 1007.37 427.42 1006.93 427.17
  Q 1005.53 426.41 1004.25 426.20
  Q 1003.76 426.12 1003.53 426.55
  Q 1002.60 428.32 999.93 428.02
  L 1001.89 426.77
  Q 1002.32 426.48 1002.35 425.96
  Q 1002.39 424.89 1001.32 424.65
  Q 1001.20 424.62 1001.17 424.50
  Q 1000.94 423.42 999.78 423.62
  Q 998.97 423.75 999.66 423.31
  Q 1001.79 421.94 1004.69 422.34
  Q 1005.12 422.40 1005.33 422.02
  Q 1005.46 421.76 1005.63 421.94
  Q 1006.14 422.53 1006.29 421.75
  Q 1006.58 420.24 1007.98 419.22
  L 1008.28 420.98
  Q 1008.35 421.42 1008.78 421.57
  Q 1013.29 423.12 1016.71 421.94
  C 1019.89 420.85 1024.79 425.57 1027.62 426.91
  Q 1029.29 427.70 1029.90 429.47
  Q 1030.45 431.07 1029.35 429.79
  Q 1029.16 429.56 1029.08 429.28
  Q 1028.88 428.57 1028.36 429.09
  Q 1028.31 429.13 1028.25 429.14
  Q 1027.99 429.19 1027.81 428.97
  Q 1027.22 428.25 1026.78 427.66
  Q 1026.49 427.27 1026.03 427.16
  Q 1025.04 426.94 1024.25 427.44
  Q 1023.67 427.80 1024.32 428.00
  Q 1025.12 428.24 1025.99 428.09
  Q 1026.74 427.96 1026.07 428.32
  Q 1025.10 428.83 1024.00 428.95
  Q 1023.76 428.98 1023.71 428.74
  Q 1023.52 427.89 1022.55 427.99
  Q 1021.22 428.13 1020.56 429.21
  Q 1020.26 429.71 1019.78 429.37
  Q 1019.45 429.13 1019.30 428.77
  Q 1019.12 428.37 1018.74 428.19
  Q 1017.91 427.80 1017.47 428.55
  Q 1017.37 428.71 1017.24 428.85
  Q 1015.84 430.22 1017.45 431.33
  Q 1019.29 432.59 1021.31 432.89
  C 1023.78 433.26 1025.59 434.46 1027.73 435.52
  C 1030.21 436.74 1032.74 437.10 1034.88 439.02
  C 1036.09 440.10 1037.78 440.12 1039.20 439.49
  Q 1040.18 439.05 1039.51 438.20
  Q 1039.25 437.87 1038.99 437.53
  Q 1038.51 436.91 1037.97 437.48
  Q 1037.05 438.45 1036.17 437.45
  Q 1035.79 437.03 1035.93 436.43
  Q 1036.04 435.97 1036.29 435.58
  Q 1036.52 435.21 1036.08 435.21
  Q 1034.42 435.20 1033.20 434.47
  Q 1032.77 434.21 1032.56 433.77
  Q 1032.21 433.03 1031.63 432.48
  Q 1031.10 431.99 1030.59 432.14
  Q 1029.93 432.34 1030.06 433.13
  A 0.67 0.67 0.0 0 1 1029.33 433.90
  Q 1029.18 433.88 1029.03 433.92
  Q 1028.62 434.03 1028.51 433.62
  Q 1028.31 432.84 1027.63 432.91
  Q 1027.39 432.94 1027.39 432.69
  Q 1027.39 432.50 1027.28 432.35
  Q 1026.96 431.88 1027.36 432.17
  Q 1027.42 432.21 1027.43 432.29
  Q 1027.46 432.62 1027.74 432.43
  Q 1028.44 431.95 1028.94 431.50
  C 1030.26 430.31 1031.84 430.34 1033.05 431.74
  C 1035.15 434.16 1038.61 429.95 1039.35 428.32
  A 0.59 0.58 -62.8 0 1 1040.17 428.05
  Q 1041.93 429.02 1043.27 430.73
  A 1.23 1.22 30.2 0 1 1043.52 431.65
  Q 1043.28 433.64 1042.36 435.23
  C 1041.08 437.46 1041.89 440.54 1042.46 442.89
  Q 1042.62 443.54 1043.01 442.99
  L 1043.55 442.24
  C 1043.32 444.44 1041.62 445.08 1041.83 447.46
  Q 1040.36 447.18 1040.43 448.83
  Q 1040.15 448.74 1039.81 448.43
  Q 1039.10 447.77 1039.08 448.74
  Q 1039.08 449.10 1038.66 449.24
  A 0.63 0.63 0.0 0 0 1038.23 449.90
  Q 1038.38 451.42 1039.70 452.00
  A 1.95 1.94 -65.2 0 1 1040.67 454.65
  L 1038.86 458.29
  Q 1038.90 458.16 1038.88 458.04
  Q 1038.83 457.74 1038.54 457.80
  Q 1037.82 457.93 1037.76 459.27
  Q 1036.35 458.12 1034.83 457.34
  Q 1034.70 457.27 1033.57 456.43
  Q 1032.68 455.76 1031.54 456.48
  Q 1026.51 454.63 1022.81 456.22
  Q 1022.66 454.49 1019.10 455.25
  Q 1018.63 455.35 1018.43 455.79
  Q 1018.10 456.51 1017.43 456.78
  Q 1016.93 456.97 1016.45 456.74
  L 1013.51 455.32
  A 1.26 1.25 17.1 0 0 1011.72 456.26
  Q 1011.56 457.30 1011.62 458.32
  Q 1011.62 458.39 1011.69 458.41
  Q 1011.75 458.42 1011.78 458.38
  Q 1011.81 458.34 1011.80 458.29
  Q 1011.48 457.07 1011.98 455.72
  Q 1012.19 455.16 1012.32 455.75
  Q 1012.49 456.51 1012.41 457.29
  A 1.70 1.69 -75.0 0 0 1013.39 459.00
  Q 1016.52 460.43 1019.37 462.20
  Q 1019.84 462.49 1020.05 463.04
  Q 1020.38 463.91 1019.05 464.16
  A 1.36 1.34 -21.0 0 1 1017.67 463.56
  Q 1017.17 462.78 1016.34 462.87
  C 1014.80 463.02 1013.32 462.96 1011.85 463.50
  A 2.04 1.99 6.2 0 0 1010.83 464.30
  Q 1010.32 465.10 1009.44 465.43
  Q 1008.93 465.62 1008.94 466.17
  Q 1008.99 468.34 1009.76 470.22
  Q 1009.98 470.75 1009.91 471.31
  Q 1009.09 478.18 1015.06 482.30
  A 1.38 1.38 0.0 0 0 1017.22 481.23
  Q 1017.30 479.60 1018.42 480.39
  L 1019.28 481.47
  Q 1019.57 481.83 1019.95 481.55
  Q 1020.09 481.45 1020.20 481.27
  Q 1020.36 481.60 1020.32 482.29
  L 1020.06 482.07
  Q 1019.76 481.82 1019.57 482.15
  Q 1019.00 483.08 1018.67 484.23
  Q 1017.20 489.47 1017.35 493.49
  Q 1017.37 493.96 1017.84 493.96
  Q 1018.52 493.96 1018.58 494.72
  Q 1018.60 494.94 1018.41 495.05
  Q 1018.24 495.14 1018.05 495.17
  Q 1017.49 495.25 1017.72 495.77
  L 1019.06 498.74
  Q 1019.18 499.01 1019.47 499.06
  Q 1019.61 499.08 1019.73 499.07
  Q 1018.95 499.32 1019.52 500.66
  Q 1014.44 500.65 1012.29 505.38
  Q 1012.03 505.94 1011.49 506.21
  L 1007.64 508.12
  Q 1007.09 508.39 1006.70 507.93
  Q 1004.94 505.85 1002.78 504.92
  Q 1002.40 504.76 1002.47 504.35
  Q 1002.81 502.17 1004.03 500.63
  Q 1004.87 499.59 1003.59 499.97
  C 1001.33 500.65 998.86 501.86 998.66 504.58
  Q 998.63 505.05 998.35 505.43
  Q 996.13 508.51 997.91 511.43
  Q 998.37 512.18 997.52 511.95
  L 995.54 511.42
  Q 995.05 511.29 994.60 511.50
  Q 991.13 513.10 987.36 513.52
  Q 986.80 513.59 986.46 514.04
  Q 985.84 514.87 984.89 515.00
  Q 984.27 515.08 983.92 514.57
  L 981.48 511.03
  Q 981.13 510.53 980.57 510.75
  Q 978.16 511.70 978.03 514.49
  C 977.97 515.68 978.89 516.66 979.20 517.81
  Q 979.23 517.93 979.10 517.96
  L 978.78 518.02
  Q 978.60 518.06 978.53 517.88
  C 978.16 516.89 977.91 515.25 977.18 514.55
  Q 976.99 514.37 976.72 514.37
  Q 975.85 514.38 976.40 513.71
  Q 976.99 513.00 977.53 512.20
  Q 977.83 511.76 977.76 511.24
  Q 977.06 505.57 974.29 504.90
  C 973.04 503.98 971.82 503.07 971.63 501.50
  Q 971.44 499.86 970.81 498.23
  Q 970.59 497.66 969.98 497.67
  Q 969.39 497.68 969.40 498.26
  L 969.41 499.25
  Q 967.27 496.27 968.96 493.37
  A 1.44 1.43 36.5 0 1 971.18 493.04
  L 976.14 497.69
  Q 975.45 497.75 974.12 498.43
  Q 973.44 498.78 973.47 499.54
  Q 973.52 500.90 974.10 502.33
  Q 974.39 503.06 975.16 502.87
  Q 983.95 500.64 989.99 494.64
  A 1.59 1.55 -67.2 0 1 991.06 494.19
  C 995.95 494.08 1001.13 493.21 1005.60 491.50
  C 1007.34 490.83 1008.53 489.35 1010.19 488.49
  Q 1010.25 488.45 1010.21 488.39
  L 1010.08 488.17
  Q 1009.95 487.95 1009.74 488.09
  Q 1005.14 490.90 1000.80 491.16
  Q 996.78 491.40 992.45 491.66
  A 0.85 0.85 0.0 0 1 991.72 490.29
  Q 994.47 486.67 994.12 481.85
  Q 994.12 481.77 994.05 481.73
  Q 993.92 481.65 993.80 481.63
  Q 993.47 481.59 993.36 481.90
  Q 991.57 487.11 988.39 490.80
  A 0.85 0.85 0.0 0 1 987.00 490.63
  Q 984.71 486.23 980.82 482.85
  Q 979.39 482.05 980.22 480.46
  C 980.71 479.51 981.51 479.51 982.23 478.96
  A 2.20 2.19 -58.8 0 0 981.27 475.05
  Q 979.42 474.73 977.43 476.46
  C 976.86 476.95 976.84 477.50 976.23 477.99
  Q 976.05 478.14 975.80 478.17
  Q 975.37 478.22 975.22 477.82
  Q 975.06 477.38 974.60 477.35
  Q 973.90 477.31 973.61 477.97
  A 1.40 1.38 86.7 0 1 973.04 478.62
  Q 971.88 479.29 971.03 478.35
  Q 970.72 478.01 970.31 477.82
  Q 969.57 477.47 969.08 476.73
  A 2.51 2.49 70.8 0 0 966.84 475.64
  Q 964.40 475.81 962.06 477.14
  Q 961.77 477.30 961.51 477.49
  Q 960.42 478.27 958.68 477.79
  A 0.79 0.78 2.1 0 0 957.70 478.70
  Q 957.99 480.24 957.91 481.83
  Q 957.80 483.73 958.66 485.96
  A 1.28 1.25 49.4 0 1 958.59 487.00
  Q 958.13 487.87 957.07 487.65
  Q 956.27 487.49 955.61 486.99
  C 954.40 486.06 952.46 487.19 951.22 487.61
  Q 950.76 487.77 950.68 487.29
  L 950.63 487.02
  Q 950.54 486.49 951.03 486.25
  L 953.73 484.96
  A 1.11 1.10 85.7 0 0 954.31 484.28
  Q 954.73 482.88 955.86 481.93
  A 1.43 1.42 42.6 0 0 955.76 479.67
  Q 954.51 478.79 953.20 478.42
  Q 952.72 478.28 952.40 477.91
  Q 950.59 475.87 948.15 477.00
  Q 947.27 477.41 946.31 477.50
  Q 945.21 477.59 944.07 478.03
  Q 943.88 478.11 943.75 478.26
  Q 943.65 478.38 943.62 478.53
  Q 943.53 479.00 943.14 479.28
  Q 941.49 480.46 941.22 482.44
  Q 940.48 487.94 942.74 491.95
  Q 942.85 492.15 943.08 492.14
  Q 943.22 492.13 943.36 492.15
  Q 944.09 492.23 943.89 491.52
  Q 943.63 490.58 944.50 490.07
  Q 945.59 489.43 946.23 490.35
  Q 946.47 490.70 946.37 491.11
  C 945.98 492.58 945.89 493.85 946.61 495.32
  Q 948.23 498.62 948.82 502.25
  L 947.59 501.68
  Q 947.12 501.46 947.12 501.98
  L 947.12 502.56
  Q 947.12 503.12 947.53 503.51
  L 952.43 508.28
  Q 952.66 508.50 952.41 508.69
  L 951.95 509.03
  A 0.32 0.32 0.0 0 1 951.50 508.98
  Q 949.52 506.58 947.41 504.65
  C 945.01 502.46 942.73 499.80 940.57 497.25
  Q 937.18 493.24 935.11 487.51
  Q 934.14 484.80 934.08 478.27
  Q 934.07 477.39 933.60 478.13
  Q 932.00 480.67 931.89 483.61
  A 0.85 0.85 0.0 0 1 930.76 484.38
  Q 927.37 483.17 925.04 481.06
  C 922.50 478.75 919.32 476.91 918.93 473.20
  Q 918.76 471.48 918.41 469.86
  A 0.61 0.61 0.0 0 0 917.70 469.39
  Q 917.20 469.50 917.17 470.03
  Q 917.11 471.46 917.04 472.87
  A 0.84 0.83 -78.4 0 1 915.91 473.62
  L 911.46 471.93
  Q 910.54 471.57 910.64 472.56
  L 910.68 472.95
  Q 910.78 473.90 911.72 474.06
  Q 915.52 474.70 918.14 477.24
  C 919.94 478.98 922.14 479.87 923.70 481.80
  C 926.72 485.54 930.59 488.00 933.48 492.08
  C 937.35 497.55 941.42 502.29 944.09 508.41
  A 0.87 0.86 63.8 0 1 943.72 509.51
  L 943.46 509.65
  A 0.55 0.55 0.0 0 1 942.73 509.45
  Q 940.94 506.43 940.04 505.59
  Q 929.45 495.78 915.04 495.27
  Q 912.10 495.17 911.02 494.80
  C 908.30 493.86 906.97 491.25 904.99 489.35
  Q 904.46 488.85 904.58 489.57
  Q 904.76 490.70 905.48 491.69
  Q 907.24 494.11 904.37 493.25
  C 901.13 492.28 897.76 490.03 894.73 488.38
  Q 894.33 488.15 894.39 488.61
  Q 894.43 488.87 894.63 489.04
  C 899.77 493.11 905.75 495.84 912.11 496.66
  Q 915.74 497.13 919.40 497.55
  C 926.21 498.34 932.06 501.75 937.49 505.62
  Q 939.70 507.20 941.00 509.86
  A 1.74 1.73 53.9 0 1 940.70 511.82
  Q 939.97 512.58 939.78 514.09
  Q 936.04 516.91 933.15 513.39
  A 1.09 1.09 0.0 0 0 931.28 513.72
  L 930.47 516.08
  Q 930.12 517.06 929.73 516.10
  L 928.99 514.33
  A 1.19 1.18 -36.3 0 0 926.99 514.03
  Q 925.88 515.35 926.36 517.04
  Q 926.52 517.58 926.06 517.26
  Q 925.27 516.71 924.41 517.13
  Q 921.05 518.79 917.59 518.69
  A 0.94 0.93 -65.5 0 0 916.93 518.94
  Q 916.39 519.42 915.70 519.66
  Q 915.13 519.85 914.87 519.31
  L 913.61 516.69
  A 1.44 1.43 -7.1 0 0 912.59 515.90
  Q 909.88 515.38 909.54 520.43
  Q 909.40 522.52 909.02 520.46
  Q 908.60 518.12 909.53 515.91
  C 910.92 512.60 908.02 510.73 905.69 509.29
  Q 905.29 509.04 904.95 509.35
  L 903.25 510.90
  Q 902.76 511.34 902.42 510.78
  Q 902.07 510.18 902.54 509.50
  Q 903.74 507.81 903.02 506.06
  Q 902.55 504.90 902.04 506.05
  C 901.70 506.83 901.86 507.94 901.25 508.55
  Q 899.14 510.65 897.22 509.70
  Q 895.21 508.72 896.32 510.67
  Q 897.48 512.72 898.49 514.71
  A 0.96 0.95 -17.7 0 1 897.78 516.08
  L 896.51 516.27
  Q 895.93 516.35 895.65 516.87
  Q 895.39 517.33 895.01 517.00
  Q 894.76 516.79 894.47 516.92
  Q 893.90 517.20 894.27 517.80
  A 0.54 0.54 0.0 0 0 894.54 518.01
  Q 894.97 518.17 895.12 517.89
  Q 895.38 517.37 895.58 517.92
  Q 896.08 519.31 895.71 520.50
  Q 895.49 521.23 894.87 520.79
  L 893.44 519.80
  Q 892.98 519.48 892.58 519.88
  C 890.74 521.78 891.16 523.01 887.88 523.27
  A 0.69 0.68 4.2 0 1 887.15 522.43
  Q 888.01 518.90 886.31 519.31
  Q 886.56 516.82 885.44 514.38
  Q 885.21 513.88 884.66 513.90
  Q 883.96 513.93 883.28 514.30
  A 0.71 0.71 0.0 0 1 882.23 513.61
  L 882.54 510.74
  Q 882.58 510.28 882.37 509.87
  Q 881.75 508.62 883.03 507.77
  Q 883.57 507.41 883.00 507.11
  Q 882.38 506.79 881.71 506.67
  Q 881.47 506.63 881.28 506.50
  Q 881.14 506.41 881.05 506.27
  Q 880.68 505.76 881.28 505.57
  L 883.20 504.94
  Q 883.85 504.74 883.40 504.22
  Q 882.88 503.62 882.69 502.88
  A 0.70 0.70 0.0 0 0 881.88 502.36
  L 879.67 502.76
  Q 883.42 500.86 876.42 502.11
  Q 875.80 502.22 876.37 502.48
  Q 876.90 502.73 877.75 502.65
  Q 872.27 503.21 869.64 500.62
  Q 866.48 497.51 863.36 494.32
  Q 862.96 493.91 862.85 493.35
  Q 862.48 491.32 860.75 491.41
  Q 860.28 491.44 859.86 491.66
  Q 859.06 492.08 859.02 491.48
  Q 859.70 491.53 860.14 491.12
  Q 860.45 490.83 860.40 490.41
  Q 860.16 488.19 862.61 487.36
  A 0.55 0.55 0.0 0 0 862.83 486.46
  Q 861.93 485.52 861.68 484.26
  A 0.72 0.72 0.0 0 1 862.56 483.41
  Q 865.22 484.06 868.29 483.46
  A 1.58 1.57 84.3 0 0 869.56 481.90
  C 869.54 478.27 870.00 476.40 866.63 474.02
  Q 866.28 473.77 866.30 473.34
  Q 866.35 472.46 866.86 473.18
  Q 868.84 475.95 871.97 476.12
  L 875.22 477.90
  A 1.00 0.99 -67.8 0 0 876.66 477.29
  Q 876.91 476.38 876.03 476.10
  A 0.91 0.89 89.8 0 1 875.43 475.49
  Q 874.98 473.99 875.19 472.53
  Q 875.22 472.33 875.38 472.20
  Q 876.37 471.44 876.19 470.09
  Q 875.52 465.21 879.04 463.34
  Q 880.16 462.74 880.85 461.78
  Q 881.68 460.63 882.09 459.33
  Q 882.24 458.82 882.77 458.91
  Q 884.05 459.12 884.98 459.92
  Q 885.34 460.23 885.80 460.30
  Q 889.33 460.86 892.52 459.72
  Q 893.10 459.52 893.40 458.99
  L 894.84 456.42
  Q 895.16 455.86 895.15 455.20
  L 895.07 451.83
  Q 895.06 451.28 894.61 450.96
  L 893.98 450.52
  Q 894.56 450.70 895.05 450.31
  Q 897.15 448.67 898.27 446.57
  Q 899.08 446.86 900.11 446.30
  Q 900.70 445.98 900.86 446.64
  Q 901.03 447.32 900.68 447.93
  A 0.47 0.47 0.0 0 0 901.11 448.64
  Q 903.46 448.50 905.74 449.08
  Q 910.16 450.22 914.64 450.15
  Q 916.59 450.12 918.43 448.71
  Q 920.15 447.40 921.87 446.05
  Q 922.28 445.73 922.80 445.70
  Q 924.70 445.62 926.57 444.33
  Q 926.97 444.05 926.97 443.56
  Q 926.96 439.67 930.22 437.84
  Q 932.19 436.73 934.24 435.74
  Q 936.45 434.68 938.90 434.07
  Q 939.39 433.95 939.68 433.54
  Q 940.09 433.00 940.12 432.38
  Q 940.16 431.75 940.78 431.83
  L 942.90 432.11
  Q 943.42 432.17 943.90 431.95
  L 946.58 430.65
  A 1.53 1.53 0.0 0 1 947.91 430.63
  Q 948.80 431.04 949.19 430.24
  Q 949.43 429.76 949.37 429.23
  Q 949.22 427.90 949.94 426.76
  Q 950.30 426.18 950.63 426.77
  Q 951.67 428.59 953.31 430.31
  Q 953.65 430.67 954.15 430.72
  Q 955.62 430.85 956.86 430.01
  Q 961.52 426.86 965.85 425.25
  Q 966.93 424.85 967.60 423.78
  Q 968.11 422.96 967.76 422.18
  Q 967.35 421.25 965.89 421.00
  Q 964.74 420.81 963.52 420.90
  Q 963.00 420.94 962.75 421.39
  Q 961.06 424.44 957.38 423.83
  A 0.75 0.75 0.0 0 1 956.97 422.56
  Q 958.14 421.39 959.20 420.03
  C 960.14 418.84 961.01 419.09 962.09 418.34
  Q 962.71 417.90 963.42 418.20
  C 966.91 419.71 971.76 419.11 975.50 419.13
  Q 975.60 419.13 975.59 419.23
  L 975.56 419.50
  Q 975.56 419.58 975.48 419.58
  L 972.42 419.45
  Q 971.56 419.41 972.33 419.79
  L 973.74 420.48
  Q 974.23 420.73 974.72 420.48
  Q 975.79 419.95 976.53 419.21
  Q 977.01 418.73 977.54 419.17
  Q 981.41 422.37 983.68 425.64
  A 2.12 2.10 74.8 0 0 985.24 426.54
  Q 986.75 426.68 986.92 425.57
  Q 986.97 425.24 987.27 425.36
  Q 987.73 425.53 987.92 425.98
  Q 988.77 427.95 990.79 428.76
  Q 991.25 428.95 991.71 428.78
  Q 992.35 428.56 992.81 429.04
  Q 993.18 429.43 993.72 429.34
  Q 994.69 429.17 994.90 428.67
  Z
  M 1014.40 427.71
  Q 1015.12 427.22 1014.25 427.21
  L 1009.25 427.18
  Q 1008.44 427.17 1009.01 427.87
  Q 1009.11 427.99 1009.13 428.15
  Q 1009.18 428.56 1009.57 428.71
  L 1012.49 429.81
  A 0.57 0.57 0.0 0 0 1013.24 429.43
  Q 1013.55 428.28 1014.40 427.71
  Z
  M 918.5855 479.9155
  A 1.43 0.91 -28.6 0 0 916.8944 479.8010
  A 1.43 0.91 -28.6 0 0 916.0745 481.2845
  A 1.43 0.91 -28.6 0 0 917.7656 481.3990
  A 1.43 0.91 -28.6 0 0 918.5855 479.9155
  Z
  M 986.4601 513.1779
  A 1.71 0.89 44.0 0 0 985.8482 511.3498
  A 1.71 0.89 44.0 0 0 983.9999 510.8021
  A 1.71 0.89 44.0 0 0 984.6118 512.6302
  A 1.71 0.89 44.0 0 0 986.4601 513.1779
  Z
  M 916.6952 517.8683
  A 1.07 0.64 68.9 0 0 916.9071 516.6396
  A 1.07 0.64 68.9 0 0 915.9248 515.8717
  A 1.07 0.64 68.9 0 0 915.7129 517.1004
  A 1.07 0.64 68.9 0 0 916.6952 517.8683
  Z"
/>
<path fill="#9d9b97" d="
  M 875.80 422.97
  Q 876.07 420.93 878.63 420.87
  Q 879.21 420.85 878.71 421.16
  L 875.80 422.97
  Z"
/>
<path fill="#9d9b97" d="
  M 875.80 422.97
  Q 875.23 425.18 873.47 426.87
  Q 873.13 427.19 873.25 427.65
  Q 873.29 427.79 873.27 427.95
  Q 873.19 428.51 873.07 427.86
  Q 872.50 424.91 875.80 422.97
  Z"
/>
<path fill="#9d9b97" d="
  M 899.20 423.23
  Q 898.95 423.94 899.88 425.15
  Q 897.23 424.95 895.81 423.94
  Q 894.40 422.93 896.13 423.04
  L 899.20 423.23
  Z"
/>
<path fill="#9d9b97" d="
  M 869.29 424.68
  C 868.05 425.43 867.84 426.57 867.30 427.81
  A 0.55 0.55 0.0 0 1 866.62 428.11
  Q 866.46 428.06 866.35 427.92
  Q 866.14 427.67 866.34 427.41
  L 868.94 423.93
  A 0.16 0.15 39.2 0 1 869.17 423.91
  L 869.35 424.09
  Q 869.71 424.43 869.29 424.68
  Z"
/>
<path fill="#9d9b97" d="
  M 997.90 427.37
  Q 997.34 427.29 997.29 427.56
  Q 996.97 426.58 997.11 425.84
  Q 997.22 425.23 997.69 425.64
  Q 998.34 426.19 997.90 427.37
  Z"
/>
<ellipse fill="#9d9b97" cx="0.00" cy="0.00" transform="translate(898.00,429.93) rotate(0.1)" rx="1.38" ry="0.98"/>
<path fill="#d9d8d3" d="
  M 890.82 438.49
  L 889.50 435.07
  A 0.88 0.88 0.0 0 1 889.45 434.64
  L 889.83 431.89
  A 0.88 0.88 0.0 0 1 891.55 431.77
  L 893.39 438.50
  A 0.88 0.88 0.0 0 1 892.08 439.48
  L 891.18 438.93
  A 0.88 0.88 0.0 0 1 890.82 438.49
  Z"
/>
<path fill="#9d9b97" d="
  M 860.62 435.89
  A 0.17 0.17 0.0 0 1 860.49 435.68
  L 860.51 435.63
  A 1.91 1.20 14.6 0 1 862.66 434.95
  L 863.14 435.08
  A 1.91 1.20 14.6 0 1 864.69 436.72
  L 864.67 436.77
  A 0.17 0.17 0.0 0 1 864.47 436.89
  L 860.62 435.89
  Z"
/>
<ellipse fill="#9d9b97" cx="0.00" cy="0.00" transform="translate(1048.54,442.00) rotate(57.2)" rx="2.72" ry="1.43"/>
<path fill="#9d9b97" d="
  M 1054.15 442.82
  L 1055.71 440.23
  Q 1056.21 439.39 1056.95 440.04
  Q 1058.68 441.55 1060.36 443.27
  C 1063.92 446.91 1057.13 451.49 1055.29 446.28
  Q 1054.93 445.28 1054.26 444.45
  Q 1053.64 443.68 1054.15 442.82
  Z"
/>
<path fill="#9d9b97" d="
  M 892.05 444.78
  Q 892.10 444.92 892.24 444.97
  Q 892.43 445.04 892.33 445.22
  Q 892.13 445.59 891.83 445.77
  Q 891.28 446.12 891.13 445.48
  L 890.60 443.21
  Q 890.50 442.77 890.06 442.67
  L 889.48 442.55
  A 0.16 0.15 13.1 0 1 889.37 442.38
  Q 889.44 441.99 889.32 441.67
  Q 889.05 440.95 889.72 441.32
  Q 890.72 441.88 891.99 441.97
  Q 892.71 442.02 892.36 442.66
  Q 892.02 443.29 891.97 444.13
  Q 891.95 444.48 892.05 444.78
  Z"
/>
<path fill="#d9d8d3" d="
  M 1019.52 500.66
  Q 1018.95 499.32 1019.73 499.07
  Q 1020.21 497.97 1019.75 497.24
  Q 1022.36 494.36 1018.71 490.27
  L 1020.32 482.29
  Q 1020.36 481.60 1020.20 481.27
  Q 1020.99 479.92 1020.85 478.67
  Q 1020.79 478.15 1020.49 478.59
  Q 1019.63 479.85 1018.42 480.39
  Q 1017.30 479.60 1017.22 481.23
  A 1.38 1.38 0.0 0 1 1015.06 482.30
  Q 1009.09 478.18 1009.91 471.31
  Q 1009.98 470.75 1009.76 470.22
  Q 1008.99 468.34 1008.94 466.17
  Q 1008.93 465.62 1009.44 465.43
  Q 1010.32 465.10 1010.83 464.30
  A 2.04 1.99 6.2 0 1 1011.85 463.50
  C 1013.32 462.96 1014.80 463.02 1016.34 462.87
  Q 1017.17 462.78 1017.67 463.56
  A 1.36 1.34 -21.0 0 0 1019.05 464.16
  Q 1020.38 463.91 1020.05 463.04
  Q 1019.84 462.49 1019.37 462.20
  Q 1016.52 460.43 1013.39 459.00
  A 1.70 1.69 -75.0 0 1 1012.41 457.29
  Q 1012.49 456.51 1012.32 455.75
  Q 1012.19 455.16 1011.98 455.72
  Q 1011.48 457.07 1011.80 458.29
  Q 1011.81 458.34 1011.78 458.38
  Q 1011.75 458.42 1011.69 458.41
  Q 1011.62 458.39 1011.62 458.32
  Q 1011.56 457.30 1011.72 456.26
  A 1.26 1.25 17.1 0 1 1013.51 455.32
  L 1016.45 456.74
  Q 1016.93 456.97 1017.43 456.78
  Q 1018.10 456.51 1018.43 455.79
  Q 1018.63 455.35 1019.10 455.25
  Q 1022.66 454.49 1022.81 456.22
  Q 1023.34 458.57 1023.83 459.98
  Q 1024.01 460.48 1024.49 460.50
  Q 1025.15 460.52 1024.86 459.93
  Q 1024.26 458.73 1024.56 457.78
  A 0.98 0.97 -0.7 0 1 1025.17 457.16
  Q 1028.62 455.95 1030.68 457.75
  Q 1031.15 458.16 1031.39 457.58
  Q 1031.62 457.04 1031.54 456.48
  Q 1032.68 455.76 1033.57 456.43
  Q 1034.70 457.27 1034.83 457.34
  Q 1036.35 458.12 1037.76 459.27
  Q 1037.96 459.58 1038.44 459.20
  Q 1038.88 458.84 1038.86 458.29
  L 1040.67 454.65
  A 1.95 1.94 -65.2 0 0 1039.70 452.00
  Q 1038.38 451.42 1038.23 449.90
  A 0.63 0.63 0.0 0 1 1038.66 449.24
  Q 1039.08 449.10 1039.08 448.74
  Q 1039.10 447.77 1039.81 448.43
  Q 1040.15 448.74 1040.43 448.83
  Q 1040.64 450.37 1041.83 451.19
  Q 1042.25 451.48 1042.74 451.32
  Q 1044.21 450.85 1044.44 449.36
  Q 1044.53 448.80 1044.12 448.41
  Q 1043.21 447.53 1041.83 447.46
  C 1041.62 445.08 1043.32 444.44 1043.55 442.24
  Q 1044.11 440.89 1045.38 441.01
  Q 1045.85 441.05 1045.88 441.52
  Q 1046.18 446.64 1051.39 448.57
  Q 1051.51 448.61 1051.46 448.73
  L 1051.46 448.74
  Q 1051.41 448.85 1051.29 448.81
  Q 1046.49 446.94 1044.87 451.28
  Q 1044.68 451.78 1044.22 452.05
  Q 1043.81 452.30 1043.33 452.31
  Q 1040.77 452.41 1042.81 453.97
  Q 1043.67 454.62 1044.40 455.32
  A 1.63 1.63 0.0 0 1 1044.87 456.84
  L 1044.02 460.95
  Q 1043.88 461.61 1043.22 461.48
  Q 1036.12 460.13 1033.51 459.48
  Q 1031.76 459.05 1031.27 460.25
  Q 1031.10 460.68 1030.70 460.91
  Q 1028.29 462.29 1025.64 462.49
  A 0.69 0.67 6.4 0 0 1025.05 462.95
  Q 1024.62 464.24 1025.21 465.51
  Q 1025.57 466.29 1024.84 466.74
  Q 1024.47 466.97 1024.20 467.33
  Q 1023.85 467.78 1024.41 467.89
  Q 1027.35 468.49 1029.85 470.63
  A 2.02 2.01 -41.6 0 0 1032.28 470.77
  C 1033.89 469.68 1035.98 468.11 1038.00 468.00
  A 0.68 0.68 0.0 0 1 1038.62 469.04
  Q 1037.45 470.94 1036.66 473.01
  C 1036.03 474.67 1036.77 476.09 1036.77 477.73
  Q 1036.77 479.71 1038.54 478.82
  L 1041.36 477.41
  Q 1043.83 476.17 1042.41 478.54
  Q 1041.39 480.24 1039.39 481.74
  Q 1033.93 485.84 1028.88 489.53
  Q 1027.88 490.26 1027.95 491.48
  Q 1027.98 491.98 1028.49 492.00
  Q 1030.38 492.06 1032.00 490.95
  Q 1035.67 488.43 1039.74 487.26
  A 0.40 0.39 -84.6 0 1 1040.20 487.82
  Q 1039.39 489.41 1037.75 490.53
  Q 1028.17 497.04 1019.52 500.66
  Z
  M 1018.02 457.47
  Q 1017.90 457.49 1017.76 457.49
  Q 1017.00 457.50 1017.68 457.85
  Q 1017.95 457.98 1018.27 457.95
  Q 1018.55 457.92 1018.64 457.65
  Q 1018.92 456.90 1018.87 456.23
  Q 1018.82 455.55 1018.62 456.21
  Q 1018.48 456.70 1018.37 457.15
  Q 1018.30 457.42 1018.02 457.47
  Z
  M 1017.8330 469.1792
  A 2.87 0.69 37.3 0 0 1015.9681 466.8911
  A 2.87 0.69 37.3 0 0 1013.2670 465.7008
  A 2.87 0.69 37.3 0 0 1015.1319 467.9889
  A 2.87 0.69 37.3 0 0 1017.8330 469.1792
  Z
  M 1023.10 470.94
  Q 1023.71 472.58 1019.13 472.75
  Q 1017.82 471.40 1018.35 475.06
  A 1.10 1.09 -77.3 0 0 1018.82 475.81
  Q 1019.84 476.51 1020.38 477.57
  Q 1020.68 478.16 1021.01 477.58
  Q 1021.94 475.97 1023.59 475.17
  L 1026.16 472.06
  Q 1022.90 469.27 1023.10 470.94
  Z"
/>
<path fill="#d9d8d3" d="
  M 886.63 445.19
  Q 887.19 446.94 888.39 448.14
  Q 888.75 448.50 889.26 448.50
  L 892.53 448.54
  L 893.98 450.52
  L 894.61 450.96
  Q 895.06 451.28 895.07 451.83
  L 895.15 455.20
  Q 895.16 455.86 894.84 456.42
  L 893.40 458.99
  Q 893.10 459.52 892.52 459.72
  Q 889.33 460.86 885.80 460.30
  Q 885.34 460.23 884.98 459.92
  Q 884.05 459.12 882.77 458.91
  Q 882.24 458.82 882.09 459.33
  Q 881.68 460.63 880.85 461.78
  Q 880.16 462.74 879.04 463.34
  Q 875.52 465.21 876.19 470.09
  Q 876.37 471.44 875.38 472.20
  Q 875.22 472.33 875.19 472.53
  Q 874.98 473.99 875.43 475.49
  A 0.91 0.89 89.8 0 0 876.03 476.10
  Q 876.91 476.38 876.66 477.29
  A 1.00 0.99 -67.8 0 1 875.22 477.90
  L 871.97 476.12
  Q 872.68 474.61 871.28 473.63
  A 2.20 2.19 -85.2 0 1 870.60 472.82
  Q 869.63 470.84 867.66 469.96
  A 0.92 0.92 0.0 0 1 867.58 468.31
  Q 868.09 468.03 868.43 467.56
  Q 868.89 466.93 868.36 466.36
  Q 867.63 465.57 866.52 465.46
  Q 865.95 465.40 865.58 464.96
  Q 865.21 464.52 865.27 463.93
  Q 865.32 463.31 865.91 463.10
  L 867.02 462.70
  A 2.71 2.70 74.4 0 0 868.75 459.62
  Q 868.43 458.07 869.42 456.92
  Q 869.79 456.48 869.45 456.02
  Q 868.49 454.71 866.91 454.17
  A 1.30 1.29 -69.0 0 1 866.14 452.43
  Q 866.69 451.14 868.12 450.61
  Q 868.72 450.39 869.24 450.78
  L 870.33 451.59
  Q 870.89 452.01 871.45 451.59
  L 874.27 449.47
  Q 874.85 449.03 874.21 448.69
  Q 873.86 448.51 873.60 448.19
  Q 873.09 447.57 873.78 447.16
  L 874.01 447.03
  Q 874.37 446.81 874.75 447.00
  Q 877.46 448.35 880.38 448.71
  Q 881.31 449.96 883.02 449.08
  A 1.26 1.26 0.0 0 0 883.02 446.85
  L 881.33 445.97
  Q 880.92 443.80 881.95 442.48
  Q 882.27 442.07 882.54 442.52
  C 883.62 444.32 885.22 444.24 886.63 445.19
  Z
  M 872.12 453.66
  Q 871.28 453.28 871.55 454.17
  Q 871.84 455.12 872.67 455.58
  Q 873.25 455.91 873.84 455.46
  Q 874.69 454.82 873.73 454.39
  L 872.12 453.66
  Z
  M 870.42 457.16
  Q 869.95 457.12 869.93 457.63
  A 0.75 0.75 0.0 0 0 870.75 458.42
  Q 871.33 458.36 871.89 457.63
  Q 872.33 457.07 871.63 456.90
  Q 871.21 456.81 870.82 457.06
  Q 870.64 457.18 870.42 457.16
  Z"
/>
<path fill="#9d9b97" d="
  M 886.63 445.19
  C 887.77 446.19 889.38 448.51 891.10 447.84
  Q 891.54 447.67 891.94 447.93
  Q 892.28 448.16 892.53 448.54
  L 889.26 448.50
  Q 888.75 448.50 888.39 448.14
  Q 887.19 446.94 886.63 445.19
  Z"
/>
<path fill="#9d9b97" d="
  M 881.33 445.97
  L 883.02 446.85
  A 1.26 1.26 0.0 0 1 883.02 449.08
  Q 881.31 449.96 880.38 448.71
  Q 881.76 449.01 882.36 448.66
  Q 882.84 448.37 882.43 447.99
  Q 881.33 446.96 881.33 445.97
  Z"
/>
<path fill="#d9d8d3" d="
  M 1047.91 454.33
  A 0.76 0.74 60.2 0 1 1047.18 454.12
  Q 1046.73 453.67 1046.96 453.10
  Q 1047.23 452.40 1047.93 452.70
  L 1048.73 453.04
  Q 1049.49 453.36 1048.84 453.87
  Q 1048.43 454.19 1047.91 454.33
  Z"
/>
<path fill="#d9d8d3" d="
  M 1071.94 465.43
  Q 1072.02 465.77 1071.67 465.68
  L 1068.35 464.82
  Q 1068.13 464.76 1068.23 464.56
  Q 1069.86 461.39 1068.87 458.71
  Q 1068.69 458.23 1069.14 457.98
  Q 1071.16 456.82 1072.56 455.16
  Q 1072.91 454.73 1072.96 455.28
  L 1073.37 460.69
  A 1.58 1.57 -26.2 0 1 1072.97 461.86
  Q 1071.53 463.45 1071.94 465.43
  Z"
/>
<path fill="#9d9b97" d="
  M 1018.37 457.15
  Q 1018.48 456.70 1018.62 456.21
  Q 1018.82 455.55 1018.87 456.23
  Q 1018.92 456.90 1018.64 457.65
  Q 1018.55 457.92 1018.27 457.95
  Q 1017.95 457.98 1017.68 457.85
  Q 1017.00 457.50 1017.76 457.49
  Q 1017.90 457.49 1018.02 457.47
  Q 1018.30 457.42 1018.37 457.15
  Z"
/>
<path fill="#d9d8d3" d="
  M 862.60 461.12
  A 0.23 0.23 0.0 0 1 862.88 461.28
  L 862.97 461.60
  A 3.44 1.23 74.4 0 1 862.71 465.24
  L 862.46 465.31
  A 3.44 1.23 74.4 0 1 860.35 462.33
  L 860.26 462.01
  A 0.23 0.23 0.0 0 1 860.42 461.73
  L 862.60 461.12
  Z"
/>
<path fill="#9d9b97" d="
  M 855.46 461.22
  C 856.49 461.64 857.46 462.20 858.58 462.34
  Q 858.64 462.35 858.67 462.39
  Q 858.71 462.44 858.68 462.48
  Q 858.59 462.67 858.40 462.59
  Q 857.00 462.07 855.32 462.07
  Q 854.96 462.07 855.02 461.72
  L 855.07 461.44
  Q 855.13 461.08 855.46 461.22
  Z"
/>
<path fill="#9d9b97" d="
  M 852.04 465.85
  Q 851.26 465.67 850.60 465.37
  Q 849.62 464.92 850.57 464.41
  L 851.00 464.18
  Q 851.90 463.70 852.06 464.71
  Q 852.11 465.05 852.35 465.31
  Q 853.08 466.10 852.04 465.85
  Z"
/>
<path fill="#9d9b97" d="
  M 862.70 467.06
  A 0.51 0.51 0.0 0 1 863.30 466.80
  L 864.01 467.03
  Q 864.52 467.19 864.08 467.50
  Q 861.10 469.60 859.50 472.99
  Q 859.22 473.60 859.21 472.92
  Q 859.19 472.25 859.30 471.63
  Q 859.41 470.97 859.94 470.54
  Q 861.69 469.10 862.70 467.06
  Z"
/>
<path fill="#0e0d0b" d="
  M 948.82 502.25
  Q 951.41 506.95 957.47 508.11
  Q 958.39 508.28 957.72 507.63
  Q 957.27 507.18 956.62 507.08
  A 0.97 0.96 -61.4 0 1 956.13 505.40
  Q 959.67 502.23 964.11 500.84
  A 2.14 2.10 11.3 0 0 965.04 500.23
  Q 965.90 499.26 966.99 500.05
  Q 967.41 500.35 967.46 500.86
  Q 967.65 502.68 968.90 502.73
  Q 965.41 507.50 959.49 508.68
  Q 959.07 508.77 959.12 509.20
  Q 959.15 509.49 959.45 509.52
  Q 966.56 510.28 969.60 504.05
  Q 969.79 503.66 969.66 503.26
  Q 969.49 502.77 968.90 502.73
  Q 970.21 502.18 969.41 499.25
  L 969.40 498.26
  Q 969.39 497.68 969.98 497.67
  Q 970.59 497.66 970.81 498.23
  Q 971.44 499.86 971.63 501.50
  C 971.82 503.07 973.04 503.98 974.29 504.90
  L 973.03 504.54
  Q 972.51 504.39 972.33 504.90
  Q 970.20 510.89 964.19 511.91
  C 961.64 512.34 959.56 511.15 957.10 510.90
  Q 956.50 510.83 956.03 510.45
  Q 954.67 509.37 953.13 509.40
  A 0.46 0.46 0.0 0 0 952.80 510.17
  Q 955.01 512.61 958.09 513.51
  A 0.89 0.88 14.0 0 1 958.71 514.53
  L 955.54 529.97
  Q 955.34 530.92 954.84 530.09
  Q 954.38 529.33 954.34 528.38
  Q 954.10 522.74 952.71 518.13
  Q 952.13 516.22 952.07 518.22
  C 951.94 522.86 951.94 527.62 952.68 532.29
  Q 955.67 551.20 961.84 569.39
  Q 962.79 572.19 960.42 570.42
  Q 959.68 569.87 959.13 569.08
  Q 952.53 559.54 950.40 548.46
  Q 947.94 535.64 947.45 522.71
  Q 947.35 520.23 947.44 518.90
  Q 947.68 515.24 945.35 510.44
  A 0.84 0.84 0.0 0 0 943.92 510.30
  L 943.26 511.18
  Q 942.96 511.58 942.50 511.78
  Q 940.89 512.49 939.78 514.09
  Q 939.97 512.58 940.70 511.82
  A 1.74 1.73 53.9 0 0 941.00 509.86
  Q 939.70 507.20 937.49 505.62
  C 932.06 501.75 926.21 498.34 919.40 497.55
  Q 915.74 497.13 912.11 496.66
  C 905.75 495.84 899.77 493.11 894.63 489.04
  Q 894.43 488.87 894.39 488.61
  Q 894.33 488.15 894.73 488.38
  C 897.76 490.03 901.13 492.28 904.37 493.25
  Q 907.24 494.11 905.48 491.69
  Q 904.76 490.70 904.58 489.57
  Q 904.46 488.85 904.99 489.35
  C 906.97 491.25 908.30 493.86 911.02 494.80
  Q 912.10 495.17 915.04 495.27
  Q 929.45 495.78 940.04 505.59
  Q 940.94 506.43 942.73 509.45
  A 0.55 0.55 0.0 0 0 943.46 509.65
  L 943.72 509.51
  A 0.87 0.86 63.8 0 0 944.09 508.41
  C 941.42 502.29 937.35 497.55 933.48 492.08
  C 930.59 488.00 926.72 485.54 923.70 481.80
  C 922.14 479.87 919.94 478.98 918.14 477.24
  Q 915.52 474.70 911.72 474.06
  Q 910.78 473.90 910.68 472.95
  L 910.64 472.56
  Q 910.54 471.57 911.46 471.93
  L 915.91 473.62
  A 0.84 0.83 -78.4 0 0 917.04 472.87
  Q 917.11 471.46 917.17 470.03
  Q 917.20 469.50 917.70 469.39
  A 0.61 0.61 0.0 0 1 918.41 469.86
  Q 918.76 471.48 918.93 473.20
  C 919.32 476.91 922.50 478.75 925.04 481.06
  Q 927.37 483.17 930.76 484.38
  A 0.85 0.85 0.0 0 0 931.89 483.61
  Q 932.00 480.67 933.60 478.13
  Q 934.07 477.39 934.08 478.27
  Q 934.14 484.80 935.11 487.51
  Q 937.18 493.24 940.57 497.25
  C 942.73 499.80 945.01 502.46 947.41 504.65
  Q 949.52 506.58 951.50 508.98
  A 0.32 0.32 0.0 0 0 951.95 509.03
  L 952.41 508.69
  Q 952.66 508.50 952.43 508.28
  L 947.53 503.51
  Q 947.12 503.12 947.12 502.56
  L 947.12 501.98
  Q 947.12 501.46 947.59 501.68
  L 948.82 502.25
  Z"
/>
<path fill="#9d9b97" d="
  M 855.57 470.00
  Q 855.76 469.45 855.81 470.03
  Q 856.01 472.00 854.15 473.16
  Q 854.00 473.25 853.88 473.13
  L 853.69 472.94
  Q 853.58 472.84 853.70 472.75
  Q 854.97 471.81 855.57 470.00
  Z"
/>
<path fill="#9d9b97" d="
  M 1023.10 470.94
  Q 1023.80 471.41 1024.03 471.82
  Q 1024.32 472.33 1023.76 472.50
  Q 1021.57 473.18 1019.13 472.75
  Q 1023.71 472.58 1023.10 470.94
  Z"
/>
<path fill="#9d9b97" d="
  M 1026.16 472.06
  L 1023.59 475.17
  Q 1023.65 472.62 1026.16 472.06
  Z"
/>
<path fill="#d9d8d3" d="
  M 980.82 482.85
  Q 984.13 487.61 985.12 493.02
  Q 985.21 493.52 984.90 493.92
  C 983.26 495.96 978.93 497.04 976.14 497.69
  L 971.18 493.04
  A 1.44 1.43 36.5 0 0 968.96 493.37
  Q 967.27 496.27 969.41 499.25
  Q 970.21 502.18 968.90 502.73
  Q 967.65 502.68 967.46 500.86
  Q 967.41 500.35 966.99 500.05
  Q 965.90 499.26 965.04 500.23
  A 2.14 2.10 11.3 0 1 964.11 500.84
  Q 959.67 502.23 956.13 505.40
  A 0.97 0.96 -61.4 0 0 956.62 507.08
  Q 957.27 507.18 957.72 507.63
  Q 958.39 508.28 957.47 508.11
  Q 951.41 506.95 948.82 502.25
  Q 948.23 498.62 946.61 495.32
  C 945.89 493.85 945.98 492.58 946.37 491.11
  Q 946.47 490.70 946.23 490.35
  Q 945.59 489.43 944.50 490.07
  Q 943.63 490.58 943.89 491.52
  Q 944.09 492.23 943.36 492.15
  Q 943.22 492.13 943.08 492.14
  Q 942.85 492.15 942.74 491.95
  Q 940.48 487.94 941.22 482.44
  Q 941.49 480.46 943.14 479.28
  Q 943.53 479.00 943.62 478.53
  Q 943.65 478.38 943.75 478.26
  Q 943.88 478.11 944.07 478.03
  Q 945.21 477.59 946.31 477.50
  Q 947.27 477.41 948.15 477.00
  Q 950.59 475.87 952.40 477.91
  Q 952.72 478.28 953.20 478.42
  Q 954.51 478.79 955.76 479.67
  A 1.43 1.42 42.6 0 1 955.86 481.93
  Q 954.73 482.88 954.31 484.28
  A 1.11 1.10 85.7 0 1 953.73 484.96
  L 951.03 486.25
  Q 950.54 486.49 950.63 487.02
  L 950.68 487.29
  Q 950.76 487.77 951.22 487.61
  C 952.46 487.19 954.40 486.06 955.61 486.99
  Q 956.27 487.49 957.07 487.65
  Q 958.13 487.87 958.59 487.00
  A 1.28 1.25 49.4 0 0 958.66 485.96
  Q 957.80 483.73 957.91 481.83
  Q 957.99 480.24 957.70 478.70
  A 0.79 0.78 2.1 0 1 958.68 477.79
  Q 960.42 478.27 961.51 477.49
  Q 961.77 477.30 962.06 477.14
  Q 964.40 475.81 966.84 475.64
  A 2.51 2.49 70.8 0 1 969.08 476.73
  Q 969.57 477.47 970.31 477.82
  Q 970.72 478.01 971.03 478.35
  Q 971.88 479.29 973.04 478.62
  A 1.40 1.38 86.7 0 0 973.61 477.97
  Q 973.90 477.31 974.60 477.35
  Q 975.06 477.38 975.22 477.82
  Q 975.37 478.22 975.80 478.17
  Q 976.05 478.14 976.23 477.99
  C 976.84 477.50 976.86 476.95 977.43 476.46
  Q 979.42 474.73 981.27 475.05
  A 2.20 2.19 -58.8 0 1 982.23 478.96
  C 981.51 479.51 980.71 479.51 980.22 480.46
  Q 979.39 482.05 980.82 482.85
  Z
  M 965.22 477.76
  A 0.75 0.75 0.0 0 0 964.98 478.98
  L 966.22 480.22
  Q 966.84 480.84 967.06 479.99
  Q 967.23 479.32 967.13 478.67
  Q 966.89 477.06 965.22 477.76
  Z
  M 977.9183 495.6187
  A 2.73 1.16 69.0 0 0 978.0230 492.6543
  A 2.73 1.16 69.0 0 0 975.9617 490.5213
  A 2.73 1.16 69.0 0 0 975.8570 493.4857
  A 2.73 1.16 69.0 0 0 977.9183 495.6187
  Z
  M 964.4302 496.3607
  A 1.88 1.28 73.3 0 0 965.1160 494.1922
  A 1.88 1.28 73.3 0 0 963.3498 492.7593
  A 1.88 1.28 73.3 0 0 962.6640 494.9278
  A 1.88 1.28 73.3 0 0 964.4302 496.3607
  Z"
/>
<path fill="#9d9b97" d="
  M 965.22 477.76
  Q 966.89 477.06 967.13 478.67
  Q 967.23 479.32 967.06 479.99
  Q 966.84 480.84 966.22 480.22
  L 964.98 478.98
  A 0.75 0.75 0.0 0 1 965.22 477.76
  Z"
/>
<path fill="#9d9b97" d="
  M 851.38 481.27
  C 850.57 480.91 849.39 480.35 848.72 479.80
  Q 848.23 479.40 848.85 479.30
  Q 850.35 479.08 851.55 479.71
  Q 852.20 480.05 852.13 480.82
  Q 852.07 481.57 851.38 481.27
  Z"
/>
<ellipse fill="#0e0d0b" cx="0.00" cy="0.00" transform="translate(917.33,480.60) rotate(-28.6)" rx="1.43" ry="0.91"/>
<path fill="#0e0d0b" d="
  M 976.14 497.69
  C 978.93 497.04 983.26 495.96 984.90 493.92
  Q 985.21 493.52 985.12 493.02
  Q 984.13 487.61 980.82 482.85
  Q 984.71 486.23 987.00 490.63
  A 0.85 0.85 0.0 0 0 988.39 490.80
  Q 991.57 487.11 993.36 481.90
  Q 993.47 481.59 993.80 481.63
  Q 993.92 481.65 994.05 481.73
  Q 994.12 481.77 994.12 481.85
  Q 994.47 486.67 991.72 490.29
  A 0.85 0.85 0.0 0 0 992.45 491.66
  Q 996.78 491.40 1000.80 491.16
  Q 1005.14 490.90 1009.74 488.09
  Q 1009.95 487.95 1010.08 488.17
  L 1010.21 488.39
  Q 1010.25 488.45 1010.19 488.49
  C 1008.53 489.35 1007.34 490.83 1005.60 491.50
  C 1001.13 493.21 995.95 494.08 991.06 494.19
  A 1.59 1.55 -67.2 0 0 989.99 494.64
  Q 983.95 500.64 975.16 502.87
  Q 974.39 503.06 974.10 502.33
  Q 973.52 500.90 973.47 499.54
  Q 973.44 498.78 974.12 498.43
  Q 975.45 497.75 976.14 497.69
  Z"
/>
<path fill="#d9d8d3" d="
  M 859.02 491.48
  Q 859.06 492.08 859.86 491.66
  Q 860.28 491.44 860.75 491.41
  Q 862.48 491.32 862.85 493.35
  Q 862.96 493.91 863.36 494.32
  Q 866.48 497.51 869.64 500.62
  Q 872.27 503.21 877.75 502.65
  L 879.67 502.76
  L 881.88 502.36
  A 0.70 0.70 0.0 0 1 882.69 502.88
  Q 882.88 503.62 883.40 504.22
  Q 883.85 504.74 883.20 504.94
  L 881.28 505.57
  Q 880.68 505.76 881.05 506.27
  Q 881.14 506.41 881.28 506.50
  Q 881.47 506.63 881.71 506.67
  Q 882.38 506.79 883.00 507.11
  Q 883.57 507.41 883.03 507.77
  Q 881.75 508.62 882.37 509.87
  Q 882.58 510.28 882.54 510.74
  L 882.23 513.61
  A 0.71 0.71 0.0 0 0 883.28 514.30
  Q 883.96 513.93 884.66 513.90
  Q 885.21 513.88 885.44 514.38
  Q 886.56 516.82 886.31 519.31
  C 884.34 521.11 883.41 519.72 881.55 519.33
  Q 881.04 519.23 880.57 519.44
  L 878.43 520.40
  Q 877.84 520.67 877.60 520.07
  Q 876.76 518.00 874.40 517.78
  Q 873.65 517.71 873.09 517.19
  C 871.08 515.28 869.20 513.26 866.51 512.34
  Q 864.35 511.60 863.62 513.41
  Q 863.16 513.16 862.00 513.51
  C 860.15 513.17 860.18 510.89 860.58 509.49
  A 0.82 0.81 27.4 0 0 860.30 508.63
  Q 858.07 506.86 855.52 507.66
  Q 854.76 507.89 854.33 507.23
  C 852.95 505.14 851.19 503.49 848.58 503.17
  A 0.82 0.81 17.9 0 1 847.96 501.97
  Q 849.17 499.74 848.58 497.42
  Q 848.42 496.80 848.74 496.24
  Q 850.40 493.36 851.21 489.90
  Q 851.34 489.37 851.84 489.16
  Q 853.76 488.37 855.65 488.65
  A 0.69 0.68 -68.2 0 0 856.29 488.37
  Q 857.31 486.96 859.00 487.55
  A 0.83 0.83 0.0 0 1 859.24 488.98
  Q 857.99 489.97 859.02 491.48
  Z
  M 856.8865 494.3200
  A 1.17 0.36 122.2 0 0 857.8146 493.5218
  A 1.17 0.36 122.2 0 0 858.1335 492.3400
  A 1.17 0.36 122.2 0 0 857.2054 493.1382
  A 1.17 0.36 122.2 0 0 856.8865 494.3200
  Z"
/>
<path fill="#9d9b97" d="
  M 843.68 488.85
  Q 843.51 488.47 843.91 488.35
  L 844.22 488.26
  Q 844.43 488.19 844.49 488.41
  Q 844.79 489.48 844.99 490.48
  C 845.09 491.02 845.46 491.51 845.43 492.07
  Q 845.39 492.71 845.14 492.12
  L 843.68 488.85
  Z"
/>
<ellipse fill="#9d9b97" cx="0.00" cy="0.00" transform="translate(976.94,493.07) rotate(69.0)" rx="2.73" ry="1.16"/>
<path fill="#9d9b97" d="
  M 1018.71 490.27
  Q 1022.36 494.36 1019.75 497.24
  L 1018.71 490.27
  Z"
/>
<ellipse fill="#9d9b97" cx="0.00" cy="0.00" transform="translate(963.89,494.56) rotate(73.3)" rx="1.88" ry="1.28"/>
<path fill="#9d9b97" d="
  M 1001.95 505.04
  A 0.27 0.27 0.0 0 1 1002.22 505.31
  L 1002.22 506.93
  A 2.33 1.44 -89.9 0 1 1000.78 509.26
  L 1000.50 509.26
  A 2.33 1.44 -89.9 0 1 999.06 506.93
  L 999.06 505.31
  A 0.27 0.27 0.0 0 1 999.33 505.04
  L 1001.95 505.04
  Z"
/>
<path fill="#9d9b97" d="
  M 863.62 513.41
  Q 866.22 514.71 866.26 516.17
  Q 866.33 519.50 864.09 517.04
  Q 863.15 516.01 863.25 514.59
  Q 863.28 514.00 862.73 513.79
  L 862.00 513.51
  Q 863.16 513.16 863.62 513.41
  Z"
/>
<path fill="#d9d8d3" d="
  M 1008.35 524.81
  A 1.15 1.15 0.0 0 1 1006.76 524.45
  L 1005.56 522.57
  A 4.83 2.73 57.5 0 1 1005.27 517.03
  L 1005.34 516.98
  A 4.83 2.73 57.5 0 1 1010.23 519.59
  L 1011.44 521.48
  A 1.15 1.15 0.0 0 1 1011.08 523.07
  L 1008.35 524.81
  Z"
/>
<path fill="#d9d8d3" d="
  M 999.14 516.77
  A 0.45 0.45 0.0 0 1 999.70 517.07
  L 999.88 517.68
  A 2.88 1.11 73.7 0 1 999.62 520.76
  L 999.45 520.81
  A 2.88 1.11 73.7 0 1 997.58 518.35
  L 997.40 517.75
  A 0.45 0.45 0.0 0 1 997.70 517.19
  L 999.14 516.77
  Z"
/>
<path fill="#9d9b97" d="
  M 1003.28 519.70
  Q 1003.36 519.88 1003.16 519.91
  Q 1002.29 520.02 1001.90 519.25
  Q 1001.64 518.74 1002.21 518.82
  Q 1002.95 518.91 1003.28 519.70
  Z"
/>
<path fill="#9d9b97" d="
  M 987.32 521.91
  Q 986.74 521.93 986.21 522.13
  Q 985.57 522.38 985.81 521.74
  L 986.32 520.40
  Q 986.52 519.87 986.96 520.23
  Q 987.71 520.87 987.88 521.93
  Q 987.93 522.27 987.68 522.04
  Q 987.52 521.90 987.32 521.91
  Z"
/>
<path fill="#0e0d0b" d="
  M 963.36 582.72
  L 964.17 585.07
  Q 964.53 586.09 963.64 585.47
  C 956.53 580.53 950.27 574.21 947.39 566.25
  C 942.59 552.99 940.68 536.70 944.93 523.13
  Q 945.84 520.21 946.10 523.26
  C 946.16 523.93 946.32 524.68 946.30 525.35
  Q 945.95 539.50 949.14 551.54
  Q 951.72 561.32 958.29 569.56
  Q 959.26 570.77 960.46 571.62
  C 961.73 572.51 962.15 573.70 963.72 574.31
  Q 972.99 577.88 982.00 578.75
  Q 988.70 579.40 995.39 580.12
  A 0.08 0.08 0.0 0 1 995.38 580.28
  L 964.19 581.49
  Q 962.95 581.54 963.36 582.72
  Z"
/>
<path fill="#9d9b97" d="
  M 980.21 523.30
  C 980.16 525.27 981.29 526.59 982.11 528.25
  Q 982.61 529.24 981.85 529.96
  A 0.59 0.58 49.4 0 1 980.98 529.89
  C 979.72 528.24 978.18 525.16 979.19 523.05
  Q 980.28 520.79 980.21 523.30
  Z"
/>
<ellipse fill="#9d9b97" cx="0.00" cy="0.00" transform="translate(993.74,522.74) rotate(21.9)" rx="0.98" ry="0.51"/>
<path fill="#9d9b97" d="
  M 971.42 530.35
  L 973.00 531.97
  Q 973.33 532.30 972.93 532.53
  L 972.52 532.76
  Q 972.24 532.92 972.10 532.64
  L 970.11 528.66
  Q 969.80 528.06 970.30 528.52
  Q 970.84 529.03 971.07 529.77
  A 1.43 1.35 15.4 0 0 971.42 530.35
  Z"
/>
<ellipse fill="#9d9b97" cx="0.00" cy="0.00" transform="translate(976.20,534.84) rotate(59.8)" rx="0.89" ry="0.45"/>
<path fill="#0e0d0b" d="
  M 931.46 580.69
  Q 929.82 580.22 928.12 580.26
  Q 912.34 580.65 895.80 581.64
  C 892.00 581.87 888.45 582.53 884.65 582.54
  A 0.06 0.06 0.0 0 1 884.64 582.42
  Q 893.44 580.69 902.41 579.31
  C 912.91 577.70 924.30 575.94 933.59 572.77
  C 939.44 570.77 940.82 566.24 943.00 561.24
  Q 943.27 560.60 944.03 560.15
  Q 944.68 559.76 944.55 560.51
  C 943.85 564.58 948.11 571.92 950.38 575.54
  C 952.99 579.70 957.14 583.20 960.47 586.93
  Q 961.02 587.56 960.32 587.11
  Q 945.71 577.69 929.21 584.91
  Q 928.98 585.01 928.86 584.79
  L 928.73 584.57
  Q 928.70 584.51 928.75 584.48
  Q 930.46 583.46 931.82 581.97
  A 0.78 0.78 0.0 0 0 931.46 580.69
  Z"
/>
<path fill="#0e0d0b" d="
  M 869.16 652.41
  A 1.10 1.09 37.6 0 0 868.10 652.54
  L 866.23 653.94
  Q 865.38 654.57 865.39 653.52
  L 865.56 638.58
  A 0.54 0.53 88.3 0 1 866.05 638.05
  L 866.39 638.02
  Q 866.55 638.01 866.58 638.17
  C 867.54 644.20 871.85 653.09 878.72 654.09
  Q 887.94 655.44 890.67 647.40
  Q 892.23 642.80 889.97 637.94
  C 888.33 634.43 883.66 631.57 880.23 630.05
  C 874.43 627.49 867.76 623.62 867.26 616.48
  Q 866.72 608.75 871.62 604.09
  C 878.30 597.74 885.24 599.09 892.71 602.94
  Q 893.37 603.29 893.89 602.74
  L 895.41 601.15
  Q 896.19 600.32 896.24 601.46
  Q 896.48 607.81 896.51 615.07
  Q 896.51 615.56 896.31 615.99
  A 0.51 0.51 0.0 0 1 895.35 615.92
  Q 894.19 611.91 892.67 608.29
  C 889.97 601.90 882.44 598.75 876.58 602.99
  C 874.01 604.85 872.95 609.28 873.79 612.35
  Q 875.13 617.25 879.81 619.58
  C 889.59 624.44 901.82 628.51 899.36 642.61
  C 898.47 647.70 894.45 652.78 889.32 654.45
  C 882.06 656.80 875.92 655.17 869.16 652.41
  Z"
/>
<path fill="#0e0d0b" d="
  M 817.98 603.52
  Q 817.91 623.92 818.01 645.35
  Q 818.04 649.71 821.52 652.29
  C 822.79 653.23 824.38 653.37 825.80 653.93
  Q 826.00 654.01 826.09 654.20
  Q 826.15 654.32 826.01 654.46
  Q 825.94 654.53 825.84 654.53
  Q 813.44 654.01 801.39 654.64
  Q 801.31 654.64 801.30 654.56
  L 801.28 654.30
  Q 801.25 653.97 801.58 653.92
  Q 809.41 652.79 809.43 644.97
  Q 809.49 623.75 809.48 603.43
  A 1.07 1.07 0.0 0 0 808.41 602.36
  Q 801.84 602.38 795.90 603.81
  C 791.15 604.95 788.78 610.86 787.84 615.19
  Q 787.76 615.59 787.26 615.61
  A 0.44 0.43 -90.0 0 1 786.81 615.15
  L 787.50 601.71
  Q 787.54 600.96 788.29 600.96
  L 840.01 600.96
  Q 840.57 600.96 840.59 601.51
  L 841.17 614.53
  Q 841.19 615.14 840.60 614.98
  Q 840.24 614.88 840.14 614.51
  C 838.65 609.42 836.60 605.01 831.00 603.62
  Q 825.78 602.33 819.17 602.33
  A 1.20 1.19 -89.8 0 0 817.98 603.52
  Z"
/>
<path fill="#0e0d0b" d="
  M 988.32 626.97
  Q 988.68 626.76 988.90 626.41
  Q 993.37 618.93 998.14 611.84
  C 999.80 609.38 1000.87 604.52 997.34 602.93
  Q 995.56 602.13 993.67 601.93
  Q 993.49 601.92 993.49 601.73
  L 993.50 601.45
  Q 993.51 600.96 994.01 600.96
  L 1037.01 600.98
  A 0.34 0.34 0.0 0 1 1037.34 601.25
  L 1037.41 601.60
  Q 1037.49 601.99 1037.09 602.01
  Q 1029.16 602.39 1029.08 609.97
  Q 1028.93 623.48 1028.98 638.91
  C 1029.00 645.37 1030.25 651.84 1037.69 652.97
  C 1045.10 654.10 1052.53 652.45 1056.19 645.35
  C 1057.15 643.50 1057.37 641.42 1058.07 639.58
  Q 1059.21 636.60 1059.12 639.78
  L 1058.73 653.49
  A 0.92 0.92 0.0 0 1 1057.81 654.38
  Q 1036.66 654.39 1018.00 654.32
  Q 1015.17 654.30 1012.44 654.90
  A 0.24 0.23 -11.3 0 1 1012.15 654.71
  L 1012.11 654.45
  A 0.49 0.49 0.0 0 1 1012.51 653.89
  Q 1020.13 652.68 1020.21 644.88
  Q 1020.39 627.41 1020.21 610.32
  C 1020.18 607.75 1019.58 604.76 1017.09 603.42
  C 1010.57 599.90 1005.59 603.58 1002.13 608.90
  Q 996.63 617.35 991.94 624.30
  C 990.48 626.47 989.25 629.32 989.26 631.98
  Q 989.28 638.01 989.25 643.96
  Q 989.24 646.59 990.03 648.98
  Q 991.46 653.38 997.16 653.78
  Q 997.25 653.79 997.24 653.88
  L 997.22 654.17
  Q 997.20 654.58 996.78 654.56
  Q 984.67 653.98 973.46 654.60
  Q 971.44 654.71 973.29 653.88
  Q 974.19 653.48 975.14 653.18
  Q 980.07 651.65 980.39 646.15
  Q 980.76 639.73 980.46 633.36
  C 980.38 631.77 979.75 629.99 978.92 628.60
  Q 973.75 620.06 967.99 611.95
  C 964.93 607.65 964.15 603.73 958.27 602.21
  A 0.99 0.99 0.0 0 0 957.03 603.22
  Q 957.33 608.87 957.39 614.75
  Q 957.39 615.19 957.16 615.53
  A 0.39 0.39 0.0 0 1 956.45 615.39
  C 955.18 609.45 952.75 604.58 946.21 603.36
  Q 940.96 602.37 935.45 602.38
  A 1.24 1.24 0.0 0 0 934.21 603.63
  Q 934.35 620.69 934.17 639.10
  Q 934.12 644.20 934.78 647.71
  Q 935.75 652.87 942.34 653.89
  Q 942.41 653.91 942.40 653.98
  L 942.37 654.24
  Q 942.33 654.55 942.01 654.54
  Q 929.62 653.98 917.93 654.64
  Q 917.73 654.65 917.59 654.50
  Q 917.44 654.33 917.53 654.21
  Q 917.62 654.08 917.77 654.04
  C 920.97 653.10 924.23 652.40 925.09 648.65
  Q 925.81 645.53 925.76 640.20
  Q 925.58 621.80 925.78 603.38
  A 0.97 0.96 -89.7 0 0 924.82 602.40
  C 920.49 602.40 912.42 602.68 909.13 605.29
  C 906.55 607.33 904.83 612.26 904.05 615.34
  Q 903.95 615.71 903.58 615.67
  Q 903.29 615.64 903.30 615.35
  Q 903.54 608.47 903.79 601.67
  Q 903.82 600.95 904.53 600.95
  L 981.54 600.97
  Q 983.11 600.97 981.76 601.77
  Q 980.66 602.43 978.98 602.35
  A 2.40 2.35 -58.6 0 0 977.67 602.68
  Q 973.82 604.92 976.62 609.24
  Q 982.47 618.23 987.82 626.84
  A 0.37 0.37 0.0 0 0 988.32 626.97
  Z"
/>
<path fill="#0e0d0b" d="
  M 1078.11 627.30
  A 0.55 0.54 87.6 0 0 1077.63 627.83
  Q 1077.41 635.75 1077.78 642.21
  Q 1078.36 652.36 1088.08 653.17
  Q 1104.37 654.52 1107.27 638.71
  Q 1107.30 638.58 1107.43 638.60
  L 1107.73 638.63
  Q 1108.07 638.68 1108.06 639.02
  L 1107.49 653.68
  A 0.67 0.67 0.0 0 1 1106.82 654.33
  L 1061.50 654.41
  Q 1060.53 654.41 1061.35 653.90
  Q 1062.01 653.49 1062.80 653.47
  Q 1063.30 653.46 1063.77 653.30
  C 1067.87 651.87 1069.05 647.76 1069.05 643.68
  Q 1069.05 626.06 1068.96 610.39
  Q 1068.92 602.64 1061.19 602.00
  Q 1060.76 601.97 1060.76 601.53
  L 1060.77 601.21
  Q 1060.78 600.95 1061.04 600.95
  L 1102.14 600.92
  A 0.76 0.75 88.4 0 1 1102.89 601.64
  L 1103.50 612.52
  Q 1103.66 615.51 1102.53 612.74
  Q 1101.87 611.11 1101.26 609.56
  C 1099.28 604.51 1095.16 602.84 1089.74 602.52
  Q 1084.27 602.19 1078.96 602.30
  Q 1077.58 602.33 1077.58 603.70
  L 1077.55 624.73
  A 1.03 1.02 -89.7 0 0 1078.56 625.76
  Q 1081.99 625.82 1085.68 625.03
  C 1089.40 624.22 1090.46 619.84 1090.57 616.55
  Q 1090.58 616.44 1090.69 616.43
  L 1090.98 616.42
  Q 1091.24 616.42 1091.25 616.67
  Q 1091.73 626.79 1091.19 636.76
  A 0.41 0.41 0.0 0 1 1090.77 637.15
  L 1090.50 637.15
  Q 1090.44 637.15 1090.44 637.09
  C 1090.35 633.75 1089.25 629.20 1085.56 628.05
  Q 1081.75 626.86 1078.11 627.30
  Z"
/>
<rect fill="#0e0d0b" x="-8.72" y="-2.90" transform="translate(851.41,637.42) rotate(0.1)" width="17.44" height="5.80" rx="0.55"/>
</svg>
