<?xml version="1.0" encoding="UTF-8" standalone="no"?>
<!DOCTYPE svg PUBLIC "-//W3C//DTD SVG 1.1//EN" "http://www.w3.org/Graphics/SVG/1.1/DTD/svg11.dtd">
<svg xmlns="http://www.w3.org/2000/svg" version="1.1" viewBox="0.00 0.00 1920.00 1080.00">
<path fill="#969490" d="
  M 845.82 420.16
  C 850.32 418.56 854.72 416.44 859.43 415.11
  Q 862.20 414.32 864.99 413.17
  Q 872.10 410.23 879.38 407.55
  Q 899.04 400.32 917.56 393.06
  C 920.30 391.98 923.08 391.32 925.76 390.26
  Q 939.87 384.71 953.68 379.74
  A 0.58 0.58 0.0 0 1 954.46 380.28
  Q 954.48 401.30 954.75 426.27
  C 954.78 429.00 952.80 429.34 950.85 430.45
  Q 915.15 450.59 883.77 469.06
  Q 880.13 471.20 877.00 472.86
  Q 873.11 474.94 869.97 476.76
  Q 851.93 487.19 836.56 496.02
  Q 833.50 497.77 830.30 499.35
  C 828.74 500.12 827.47 501.43 825.86 502.11
  Q 825.25 502.37 825.17 501.72
  C 824.41 495.86 823.49 490.06 823.13 484.25
  Q 822.40 472.50 822.03 461.74
  Q 821.56 448.05 822.67 431.24
  Q 822.85 428.37 825.23 427.62
  C 830.23 426.04 835.24 424.74 839.98 422.54
  Q 842.75 421.26 845.82 420.16
  Z"
/>
<path fill="#767471" d="
  M 1068.52 588.53
  Q 1050.42 628.86 1020.40 660.19
  C 1005.34 675.92 987.52 690.22 968.27 701.59
  Q 966.35 702.72 964.52 702.49
  A 0.79 0.77 -86.3 0 1 963.85 701.71
  Q 963.92 655.96 963.81 610.50
  Q 963.53 494.60 963.88 380.23
  A 0.57 0.57 0.0 0 1 964.65 379.70
  Q 973.70 383.05 983.19 386.57
  C 988.28 388.46 993.09 390.71 998.38 392.11
  Q 999.97 392.54 1001.55 393.19
  Q 1003.06 393.82 1004.66 394.45
  Q 1027.73 403.62 1045.52 409.93
  Q 1048.74 411.07 1051.84 412.46
  Q 1054.96 413.85 1058.20 414.90
  Q 1068.79 418.35 1079.10 422.85
  C 1083.73 424.86 1088.74 426.15 1093.51 427.77
  A 3.22 3.22 0.0 0 1 1095.67 430.49
  C 1096.04 434.09 1096.53 437.74 1096.52 441.27
  C 1096.50 451.85 1096.73 462.28 1096.04 473.04
  Q 1095.56 480.38 1094.86 488.64
  Q 1093.56 503.86 1088.88 526.45
  Q 1082.45 557.50 1068.52 588.53
  Z
  M 1029.54 430.24
  C 1024.71 428.40 1020.00 426.17 1015.05 424.83
  C 1011.49 423.86 1008.42 421.92 1004.94 420.75
  C 999.93 419.06 995.29 416.76 990.12 415.15
  Q 986.54 414.04 982.99 412.49
  Q 978.36 410.46 973.24 408.79
  A 0.50 0.50 0.0 0 0 972.58 409.27
  L 972.61 427.45
  A 1.37 1.36 10.7 0 0 973.47 428.70
  L 1063.88 464.25
  A 2.11 2.11 0.0 0 1 1065.05 465.38
  L 1080.21 499.85
  Q 1080.79 501.15 1081.25 499.81
  Q 1082.55 496.03 1083.18 491.39
  Q 1085.94 471.16 1084.28 451.33
  Q 1084.23 450.83 1083.75 450.71
  Q 1080.77 450.02 1076.26 448.25
  Q 1052.69 439.01 1029.54 430.24
  Z
  M 1049.01 556.45
  Q 1048.77 557.46 1048.83 558.35
  Q 1049.77 573.88 1051.04 591.78
  Q 1051.08 592.44 1050.93 593.04
  Q 1050.68 594.00 1050.98 594.61
  Q 1051.47 595.61 1052.04 594.65
  Q 1066.16 570.84 1070.90 545.57
  A 1.63 1.63 0.0 0 0 1070.03 543.81
  L 973.54 495.17
  A 0.68 0.68 0.0 0 0 972.56 495.77
  L 972.35 514.09
  A 1.90 1.88 -76.9 0 0 973.41 515.81
  C 975.91 517.04 978.44 518.08 980.74 519.65
  C 982.70 520.99 985.04 521.59 987.10 522.69
  Q 994.52 526.63 1002.27 530.63
  Q 1005.75 532.42 1008.75 534.00
  Q 1027.86 544.05 1046.04 553.41
  Q 1047.63 554.23 1048.79 555.57
  Q 1049.13 555.95 1049.01 556.45
  Z
  M 1003.99 633.06
  A 1.78 1.75 -57.8 0 1 1004.31 634.52
  Q 1001.27 648.39 997.98 661.17
  Q 997.81 661.81 998.09 662.40
  A 0.55 0.55 0.0 0 0 998.92 662.60
  Q 1002.37 659.87 1005.47 657.32
  Q 1021.32 644.29 1030.71 627.38
  Q 1031.17 626.54 1030.34 626.06
  L 973.79 593.66
  Q 972.29 592.80 972.25 594.52
  L 971.92 611.98
  A 2.73 2.72 -80.3 0 0 973.78 614.62
  C 976.88 615.66 978.93 617.44 981.60 619.08
  Q 992.09 625.54 1003.08 632.24
  Q 1003.61 632.57 1003.99 633.06
  Z"
/>
<path fill="#969490" d="
  M 954.68 522.07
  A 0.87 0.85 74.3 0 1 954.28 522.80
  Q 947.25 527.18 937.96 532.47
  Q 912.95 546.71 886.74 561.72
  Q 872.86 569.68 860.09 577.13
  Q 857.07 578.90 854.22 580.39
  Q 851.20 581.97 848.45 583.83
  A 0.54 0.53 61.0 0 1 847.66 583.60
  C 839.35 564.45 833.37 544.38 828.92 524.16
  A 1.10 1.10 0.0 0 1 829.56 522.91
  Q 832.12 521.77 834.29 520.51
  Q 851.26 510.60 864.10 503.38
  Q 866.57 501.98 869.02 500.36
  C 871.16 498.94 873.43 498.04 875.64 496.76
  Q 894.00 486.13 912.18 475.70
  Q 915.09 474.03 917.67 472.54
  Q 932.91 463.73 951.77 453.02
  Q 952.96 452.35 954.05 451.31
  A 0.40 0.40 0.0 0 1 954.73 451.60
  L 954.68 522.07
  Z"
/>
<path fill="#969490" d="
  M 857.25 601.90
  L 953.94 546.33
  A 0.55 0.55 0.0 0 1 954.76 546.81
  L 954.48 615.89
  A 2.09 2.07 -15.0 0 1 953.43 617.69
  L 892.08 652.87
  A 0.85 0.85 0.0 0 1 891.01 652.69
  Q 871.05 630.00 856.94 602.97
  Q 856.58 602.28 857.25 601.90
  Z"
/>
<path fill="#969490" d="
  M 950.21 642.68
  Q 952.00 641.66 953.77 640.51
  A 0.53 0.53 0.0 0 1 954.58 640.96
  L 954.41 702.10
  A 0.36 0.35 -4.8 0 1 954.11 702.45
  Q 952.16 702.79 950.47 701.69
  Q 947.12 699.51 943.87 697.69
  C 938.87 694.89 934.36 691.21 929.55 687.84
  C 921.55 682.24 914.00 675.61 906.90 668.94
  Q 906.19 668.28 906.97 667.70
  C 910.99 664.72 915.35 662.82 919.65 660.31
  Q 935.84 650.87 950.21 642.68
  Z"
/>
</svg>
