<?xml version="1.0" encoding="UTF-8" standalone="no"?>
<!DOCTYPE svg PUBLIC "-//W3C//DTD SVG 1.1//EN" "http://www.w3.org/Graphics/SVG/1.1/DTD/svg11.dtd">
<svg xmlns="http://www.w3.org/2000/svg" version="1.1" viewBox="0.00 0.00 1920.00 1080.00">
<path stroke="#9f9e99" stroke-width="2.10" fill="none" stroke-linecap="butt" vector-effect="non-scaling-stroke" d="
  M 860.01 505.44
  Q 858.19 506.70 857.68 508.75
  Q 856.95 511.71 855.56 514.01
  Q 854.87 515.15 854.55 516.47
  Q 854.24 517.74 853.73 518.91
  Q 849.86 527.93 844.88 536.86
  Q 837.71 549.77 830.49 561.73
  Q 811.05 593.95 785.47 621.53
  Q 781.24 626.09 776.48 630.07"
/>
<path fill="#faf8f2" d="
  M 1300.58 520.62
  A 0.38 0.38 0.0 0 0 1300.30 520.00
  L 1291.36 519.92
  A 0.33 0.33 0.0 0 1 1291.05 519.48
  L 1295.90 505.90
  Q 1296.09 505.37 1296.64 505.37
  L 1325.61 505.37
  A 0.45 0.45 0.0 0 1 1326.04 505.97
  L 1313.20 542.49
  Q 1313.02 543.00 1312.48 543.00
  L 1299.76 542.98
  A 0.63 0.62 5.3 0 1 1299.14 542.24
  Q 1299.47 540.48 1300.02 538.72
  Q 1301.17 535.08 1298.30 537.61
  C 1289.98 544.94 1274.74 546.66 1264.58 542.23
  C 1254.26 537.74 1251.89 526.02 1254.45 516.11
  C 1257.59 503.96 1263.38 493.14 1272.81 484.90
  Q 1286.37 473.05 1303.43 472.61
  C 1319.46 472.19 1330.94 479.48 1328.32 497.18
  A 0.78 0.78 0.0 0 1 1327.56 497.84
  L 1307.94 497.87
  Q 1307.08 497.87 1307.11 497.01
  C 1307.29 491.94 1303.83 488.89 1298.88 489.00
  C 1286.21 489.28 1279.96 503.40 1277.15 513.66
  C 1275.59 519.35 1275.74 526.73 1283.35 527.82
  C 1290.25 528.80 1296.26 525.87 1300.58 520.62
  Z"
/>
<path fill="#faf8f2" d="
  M 1035.43 533.84
  L 1013.93 533.90
  A 0.30 0.30 0.0 0 0 1013.68 534.04
  L 1008.14 542.80
  A 0.30 0.30 0.0 0 1 1007.89 542.94
  L 986.65 542.97
  A 0.30 0.30 0.0 0 1 986.40 542.50
  L 1034.52 474.24
  A 0.30 0.30 0.0 0 1 1034.77 474.11
  L 1057.13 474.14
  A 0.30 0.30 0.0 0 1 1057.43 474.44
  L 1057.64 542.65
  A 0.30 0.30 0.0 0 1 1057.34 542.95
  L 1035.61 542.93
  A 0.30 0.30 0.0 0 1 1035.31 542.62
  L 1035.73 534.16
  A 0.30 0.30 0.0 0 0 1035.43 533.84
  Z
  M 1023.50 519.13
  A 0.32 0.32 0.0 0 0 1023.78 519.62
  L 1036.51 519.42
  A 0.32 0.32 0.0 0 0 1036.83 519.12
  L 1038.18 496.85
  A 0.32 0.32 0.0 0 0 1037.59 496.66
  L 1023.50 519.13
  Z"
/>
<path fill="#faf8f2" d="
  M 1143.31 489.11
  Q 1144.31 496.11 1142.47 502.71
  C 1135.72 527.00 1119.66 542.90 1093.47 542.99
  Q 1077.70 543.04 1063.44 543.01
  A 0.41 0.40 -80.3 0 1 1063.06 542.47
  L 1086.84 474.50
  Q 1087.02 474.01 1087.54 474.00
  Q 1104.03 473.95 1118.33 474.04
  C 1128.30 474.11 1141.63 477.32 1143.31 489.11
  Z
  M 1096.60 526.66
  Q 1105.32 526.34 1110.99 520.27
  C 1115.19 515.77 1117.14 510.77 1119.02 504.98
  C 1121.25 498.12 1121.25 491.00 1111.72 490.74
  Q 1108.24 490.65 1104.69 490.47
  Q 1104.08 490.43 1103.87 491.02
  L 1091.56 526.18
  A 0.54 0.54 0.0 0 0 1092.11 526.90
  Q 1094.26 526.74 1096.60 526.66
  Z"
/>
<path fill="#faf8f2" d="
  M 892.56 527.05
  L 922.29 526.98
  A 0.30 0.30 0.0 0 1 922.57 527.38
  L 917.28 542.68
  A 0.30 0.30 0.0 0 1 917.00 542.88
  L 865.01 542.90
  A 0.30 0.30 0.0 0 1 864.73 542.50
  L 888.52 474.48
  A 0.30 0.30 0.0 0 1 888.80 474.28
  L 910.16 474.32
  A 0.30 0.30 0.0 0 1 910.44 474.72
  L 892.28 526.65
  A 0.30 0.30 0.0 0 0 892.56 527.05
  Z"
/>
<path fill="#faf8f2" d="
  M 953.96 527.04
  L 987.47 526.98
  A 0.31 0.31 0.0 0 1 987.76 527.39
  L 982.53 542.67
  A 0.31 0.31 0.0 0 1 982.24 542.88
  L 926.32 542.89
  A 0.31 0.31 0.0 0 1 926.02 542.48
  L 949.87 474.48
  A 0.31 0.31 0.0 0 1 950.16 474.27
  L 1004.58 474.31
  A 0.31 0.31 0.0 0 1 1004.87 474.72
  L 999.64 489.93
  A 0.31 0.31 0.0 0 1 999.35 490.14
  L 966.53 490.12
  A 0.31 0.31 0.0 0 0 966.24 490.33
  L 962.91 499.88
  A 0.31 0.31 0.0 0 0 963.21 500.29
  L 990.51 500.23
  A 0.31 0.31 0.0 0 1 990.80 500.65
  L 985.39 515.78
  A 0.31 0.31 0.0 0 1 985.10 515.99
  L 957.51 515.98
  A 0.31 0.31 0.0 0 0 957.22 516.19
  L 953.67 526.63
  A 0.31 0.31 0.0 0 0 953.96 527.04
  Z"
/>
<path fill="#faf8f2" d="
  M 1136.58 542.18
  L 1160.34 474.58
  A 0.43 0.43 0.0 0 1 1160.75 474.29
  L 1181.82 474.33
  A 0.43 0.43 0.0 0 1 1182.23 474.90
  L 1158.49 542.50
  A 0.43 0.43 0.0 0 1 1158.08 542.79
  L 1136.99 542.75
  A 0.43 0.43 0.0 0 1 1136.58 542.18
  Z"
/>
<path fill="#faf8f2" d="
  M 1203.92 505.98
  Q 1203.14 507.10 1202.83 508.33
  C 1199.94 519.99 1195.79 531.11 1191.73 542.32
  A 0.75 0.73 -79.7 0 1 1191.04 542.81
  L 1171.47 542.76
  A 0.62 0.62 0.0 0 1 1170.88 541.93
  L 1194.40 474.72
  A 0.65 0.64 -80.5 0 1 1195.01 474.28
  L 1214.74 474.29
  A 0.68 0.66 -7.7 0 1 1215.37 474.76
  L 1225.92 510.63
  Q 1226.33 512.02 1226.80 510.65
  C 1228.72 505.04 1230.05 499.07 1232.12 493.35
  Q 1235.50 484.02 1238.68 474.83
  Q 1238.86 474.29 1239.44 474.29
  L 1259.01 474.33
  Q 1259.90 474.33 1259.61 475.17
  Q 1247.74 508.76 1237.90 537.23
  Q 1236.99 539.87 1235.79 542.41
  Q 1235.56 542.91 1235.01 542.91
  L 1215.94 542.87
  Q 1215.27 542.87 1215.07 542.23
  L 1204.25 506.03
  A 0.19 0.18 -36.0 0 0 1203.92 505.98
  Z"
/>
<path fill="#faf8f2" d="
  M 642.41 493.20
  Q 642.59 492.63 642.00 492.63
  L 623.00 492.64
  A 0.30 0.30 0.0 0 1 622.71 492.25
  L 628.08 475.48
  Q 628.25 474.95 628.81 474.95
  L 689.44 474.95
  Q 690.24 474.95 689.99 475.71
  L 684.81 492.02
  A 0.87 0.87 0.0 0 1 684.00 492.62
  L 664.73 492.69
  A 0.45 0.45 0.0 0 0 664.30 493.02
  Q 663.43 496.51 662.35 499.86
  Q 655.41 521.36 648.94 542.28
  A 0.80 0.79 8.4 0 1 648.18 542.84
  L 627.47 542.88
  A 0.53 0.52 8.5 0 1 626.96 542.20
  L 642.41 493.20
  Z"
/>
<path fill="#faf8f2" d="
  M 714.06 498.12
  L 734.72 498.13
  A 0.34 0.34 0.0 0 0 735.04 497.89
  L 742.15 475.21
  A 0.34 0.34 0.0 0 1 742.47 474.97
  L 763.84 474.94
  A 0.34 0.34 0.0 0 1 764.16 475.38
  L 742.88 542.62
  A 0.34 0.34 0.0 0 1 742.55 542.86
  L 721.29 542.90
  A 0.34 0.34 0.0 0 1 720.97 542.46
  L 728.99 516.93
  A 0.34 0.34 0.0 0 0 728.67 516.49
  L 708.01 516.32
  A 0.34 0.34 0.0 0 0 707.68 516.56
  L 699.54 542.61
  A 0.34 0.34 0.0 0 1 699.22 542.85
  L 677.91 542.91
  A 0.34 0.34 0.0 0 1 677.58 542.47
  L 698.88 475.19
  A 0.34 0.34 0.0 0 1 699.21 474.95
  L 720.51 474.95
  A 0.34 0.34 0.0 0 1 720.83 475.39
  L 713.74 497.68
  A 0.34 0.34 0.0 0 0 714.06 498.12
  Z"
/>
<path fill="#faf8f2" d="
  M 816.68 527.61
  L 812.18 542.50
  A 0.40 0.40 0.0 0 1 811.79 542.78
  L 756.05 542.78
  A 0.40 0.40 0.0 0 1 755.66 542.26
  L 776.87 475.23
  A 0.40 0.40 0.0 0 1 777.25 474.95
  L 831.58 474.95
  A 0.40 0.40 0.0 0 1 831.96 475.47
  L 827.22 490.41
  A 0.40 0.40 0.0 0 1 826.84 490.69
  L 794.25 490.66
  A 0.40 0.40 0.0 0 0 793.86 490.94
  L 791.02 500.31
  A 0.40 0.40 0.0 0 0 791.40 500.83
  L 818.18 500.75
  A 0.40 0.40 0.0 0 1 818.56 501.27
  L 814.11 515.97
  A 0.40 0.40 0.0 0 1 813.72 516.25
  L 786.24 516.24
  A 0.40 0.40 0.0 0 0 785.86 516.52
  L 782.58 526.65
  A 0.40 0.40 0.0 0 0 782.96 527.17
  L 816.30 527.09
  A 0.40 0.40 0.0 0 1 816.68 527.61
  Z"
/>
<path fill="#c6c4bf" d="
  M 860.01 505.44
  Q 858.19 506.70 857.68 508.75
  Q 856.95 511.71 855.56 514.01
  Q 854.87 515.15 854.55 516.47
  Q 854.24 517.74 853.73 518.91
  Q 849.86 527.93 844.88 536.86
  Q 837.71 549.77 830.49 561.73
  Q 811.05 593.95 785.47 621.53
  Q 781.24 626.09 776.48 630.07
  L 659.45 631.86
  A 0.03 0.03 0.0 0 1 659.44 631.80
  Q 724.93 624.24 778.28 586.39
  Q 830.07 549.64 864.25 492.88
  Q 864.33 492.74 864.48 492.82
  L 864.71 492.93
  Q 864.76 492.95 864.74 493.00
  L 860.01 505.44
  Z"
/>
<path fill="#787773" d="
  M 860.01 505.44
  L 813.56 629.08
  A 1.17 1.17 0.0 0 1 812.48 629.84
  L 776.48 630.07
  Q 781.24 626.09 785.47 621.53
  Q 811.05 593.95 830.49 561.73
  Q 837.71 549.77 844.88 536.86
  Q 849.86 527.93 853.73 518.91
  Q 854.24 517.74 854.55 516.47
  Q 854.87 515.15 855.56 514.01
  Q 856.95 511.71 857.68 508.75
  Q 858.19 506.70 860.01 505.44
  Z"
/>
<path fill="#faf8f2" d="
  M 1025.64 608.17
  A 0.55 0.55 0.0 0 0 1025.23 607.26
  L 1016.82 607.24
  Q 1016.27 607.24 1016.43 606.71
  L 1020.33 593.72
  A 1.02 1.01 -81.5 0 1 1021.30 593.00
  L 1050.00 593.00
  A 0.60 0.60 0.0 0 1 1050.57 593.78
  L 1039.31 629.67
  Q 1039.14 630.20 1038.58 630.20
  L 1025.72 630.21
  Q 1024.79 630.21 1024.96 629.29
  Q 1025.26 627.62 1025.78 626.15
  Q 1026.97 622.76 1024.13 624.96
  C 1007.82 637.58 975.93 633.87 979.09 606.73
  Q 980.10 598.02 984.38 589.21
  Q 995.09 567.16 1018.29 561.37
  C 1025.53 559.57 1034.48 559.71 1041.63 562.83
  C 1050.96 566.89 1053.75 575.35 1052.56 584.99
  Q 1052.49 585.53 1051.95 585.53
  L 1032.23 585.52
  Q 1031.52 585.52 1031.49 584.81
  Q 1031.27 577.19 1023.88 576.70
  C 1010.84 575.83 1004.06 591.49 1002.00 601.98
  C 1000.88 607.68 1001.63 613.96 1008.65 615.06
  Q 1018.47 616.60 1025.64 608.17
  Z"
/>
<path fill="#faf8f2" d="
  M 870.85 588.00
  L 897.96 587.96
  A 0.33 0.33 0.0 0 1 898.28 588.39
  L 893.42 603.32
  A 0.33 0.33 0.0 0 1 893.11 603.55
  L 865.70 603.62
  A 0.33 0.33 0.0 0 0 865.39 603.85
  L 862.07 613.85
  A 0.33 0.33 0.0 0 0 862.39 614.28
  L 895.89 614.25
  A 0.33 0.33 0.0 0 1 896.21 614.68
  L 891.64 629.71
  A 0.33 0.33 0.0 0 1 891.33 629.94
  L 835.47 629.98
  A 0.33 0.33 0.0 0 1 835.16 629.55
  L 856.40 562.36
  A 0.33 0.33 0.0 0 1 856.71 562.13
  L 911.23 562.12
  A 0.33 0.33 0.0 0 1 911.54 562.55
  L 906.69 577.52
  A 0.33 0.33 0.0 0 1 906.38 577.75
  L 873.64 577.77
  A 0.33 0.33 0.0 0 0 873.32 578.01
  L 870.53 587.58
  A 0.33 0.33 0.0 0 0 870.85 588.00
  Z"
/>
<path fill="#faf8f2" d="
  M 974.70 601.90
  Q 964.80 624.35 942.43 628.91
  Q 935.67 630.28 922.61 630.06
  Q 912.10 629.88 901.45 630.06
  A 0.36 0.35 8.9 0 1 901.11 629.60
  L 922.35 562.74
  Q 922.54 562.15 923.16 562.15
  Q 943.46 562.02 955.26 562.22
  Q 960.05 562.30 965.78 563.89
  C 984.88 569.18 980.48 588.79 974.70 601.90
  Z
  M 940.27 577.87
  Q 939.80 577.87 939.66 578.32
  L 928.61 613.24
  Q 928.29 614.25 929.35 614.22
  Q 931.59 614.14 933.96 614.07
  C 942.45 613.80 948.48 609.83 952.47 601.69
  Q 954.82 596.87 955.85 592.06
  C 957.05 586.42 957.88 579.35 949.98 578.37
  Q 945.34 577.79 940.27 577.87
  Z"
/>
<path fill="#faf8f2" d="
  M 1087.68 588.00
  L 1114.33 587.97
  A 0.47 0.47 0.0 0 1 1114.77 588.58
  L 1110.09 603.25
  A 0.47 0.47 0.0 0 1 1109.65 603.58
  L 1082.39 603.55
  A 0.47 0.47 0.0 0 0 1081.94 603.88
  L 1078.77 613.66
  A 0.47 0.47 0.0 0 0 1079.22 614.28
  L 1112.30 614.23
  A 0.47 0.47 0.0 0 1 1112.75 614.84
  L 1108.33 629.60
  A 0.47 0.47 0.0 0 1 1107.88 629.94
  L 1052.26 629.94
  A 0.47 0.47 0.0 0 1 1051.81 629.33
  L 1073.05 562.46
  A 0.47 0.47 0.0 0 1 1073.49 562.13
  L 1127.59 562.12
  A 0.47 0.47 0.0 0 1 1128.04 562.73
  L 1123.41 577.41
  A 0.47 0.47 0.0 0 1 1122.97 577.74
  L 1090.36 577.77
  A 0.47 0.47 0.0 0 0 1089.91 578.11
  L 1087.22 587.40
  A 0.47 0.47 0.0 0 0 1087.68 588.00
  Z"
/>
</svg>
