<?xml version="1.0" encoding="UTF-8"?>
<!DOCTYPE svg PUBLIC "-//W3C//DTD SVG 1.1//EN" "http://www.w3.org/Graphics/SVG/1.1/DTD/svg11.dtd">
<svg xmlns="http://www.w3.org/2000/svg" version="1.1" width="1080px" height="1920px" style="shape-rendering:geometricPrecision; text-rendering:geometricPrecision; image-rendering:optimizeQuality; fill-rule:evenodd; clip-rule:evenodd" xmlns:xlink="http://www.w3.org/1999/xlink">
<g><path style="opacity:0.144" fill="#1d1c1a" d="M 651.5,893.5 C 654.833,894.167 658.167,894.833 661.5,895.5C 569.665,895.167 477.998,895.501 386.5,896.5C 383.5,897.167 380.5,897.833 377.5,898.5C 379.475,896.91 381.808,895.743 384.5,895C 392.167,894.667 399.833,894.333 407.5,894C 488.833,893.5 570.166,893.333 651.5,893.5 Z"/></g>
<g><path style="opacity:0.098" fill="#181515" d="M 651.5,893.5 C 662.51,893.457 673.51,893.79 684.5,894.5C 688.239,894.514 691.572,895.18 694.5,896.5C 693.391,896.443 692.391,896.11 691.5,895.5C 681.5,895.5 671.5,895.5 661.5,895.5C 658.167,894.833 654.833,894.167 651.5,893.5 Z"/></g>
<g><path style="opacity:0.656" fill="#62605d" d="M 661.5,895.5 C 671.5,895.5 681.5,895.5 691.5,895.5C 641.004,896.833 590.171,897.5 539,897.5C 487.999,897.5 437.166,897.167 386.5,896.5C 477.998,895.501 569.665,895.167 661.5,895.5 Z"/></g>
<g><path style="opacity:1" fill="#32312e" d="M 691.5,895.5 C 692.391,896.11 693.391,896.443 694.5,896.5C 697.513,896.107 700.18,896.774 702.5,898.5C 702.631,899.376 702.298,900.043 701.5,900.5C 699.556,899.811 697.556,899.311 695.5,899C 591.167,898.333 486.833,898.333 382.5,899C 379.881,899.151 377.547,899.985 375.5,901.5C 374.614,900.675 374.281,899.675 374.5,898.5C 375.5,898.5 376.5,898.5 377.5,898.5C 380.5,897.833 383.5,897.167 386.5,896.5C 437.166,897.167 487.999,897.5 539,897.5C 590.171,897.5 641.004,896.833 691.5,895.5 Z"/></g>
<g><path style="opacity:0.998" fill="#272624" d="M 374.5,898.5 C 374.281,899.675 374.614,900.675 375.5,901.5C 377.547,899.985 379.881,899.151 382.5,899C 486.833,898.333 591.167,898.333 695.5,899C 697.556,899.311 699.556,899.811 701.5,900.5C 702.298,900.043 702.631,899.376 702.5,898.5C 719.681,904.851 732.515,916.184 741,932.5C 742.383,935.368 743.216,938.368 743.5,941.5C 744.737,952.156 744.737,962.823 743.5,973.5C 743.562,965.291 743.395,956.958 743,948.5C 742.084,942.919 740.25,937.586 737.5,932.5C 737.167,933.167 736.833,933.833 736.5,934.5C 741.448,947.041 742.782,960.041 740.5,973.5C 740.787,975.486 741.453,977.32 742.5,979C 741.852,980.44 741.519,981.94 741.5,983.5C 738.579,992.44 733.579,1000.11 726.5,1006.5C 718.671,1014.13 709.338,1018.8 698.5,1020.5C 695.201,1019.62 691.868,1019.46 688.5,1020C 689.5,1020.33 690.5,1020.67 691.5,1021C 590.666,1021.17 489.999,1021.67 389.5,1022.5C 364.882,1019.89 347.549,1007.23 337.5,984.5C 336.565,978.389 334.898,972.722 332.5,967.5C 332.5,965.833 332.5,964.167 332.5,962.5C 333.731,955.668 334.731,948.668 335.5,941.5C 338.396,930.852 343.73,921.519 351.5,913.5C 358.117,906.754 365.784,901.754 374.5,898.5 Z M 421.5,974.5 C 421.5,972.5 421.5,970.5 421.5,968.5C 422.735,968.279 423.735,967.612 424.5,966.5C 425.484,969.428 425.817,972.428 425.5,975.5C 423.901,975.768 422.568,975.434 421.5,974.5 Z"/></g>
<g><path style="opacity:1" fill="#545350" d="M 688.5,910.5 C 588.43,910.169 488.43,910.502 388.5,911.5C 438.162,910.167 488.162,909.5 538.5,909.5C 588.668,909.5 638.668,909.833 688.5,910.5 Z"/></g>
<g><path style="opacity:0.996" fill="#676562" d="M 388.5,911.5 C 388.5,911.833 388.5,912.167 388.5,912.5C 386.139,912.674 383.806,913.007 381.5,913.5C 383.279,911.656 385.612,910.99 388.5,911.5 Z"/></g>
<g><path style="opacity:1" fill="#b9b7b3" d="M 688.5,910.5 C 689.167,911.167 689.833,911.833 690.5,912.5C 667.833,912.5 645.167,912.5 622.5,912.5C 544.5,912.5 466.5,912.5 388.5,912.5C 388.5,912.167 388.5,911.833 388.5,911.5C 488.43,910.502 588.43,910.169 688.5,910.5 Z"/></g>
<g><path style="opacity:1" fill="#84827f" d="M 697.5,913.5 C 699.38,913.229 700.713,913.896 701.5,915.5C 699.847,915.34 698.514,914.674 697.5,913.5 Z"/></g>
<g><path style="opacity:1" fill="#666561" d="M 702.5,915.5 C 705.546,915.725 707.879,917.058 709.5,919.5C 706.9,918.532 704.566,917.199 702.5,915.5 Z"/></g>
<g><path style="opacity:1" fill="#e2e0da" d="M 388.5,912.5 C 466.5,912.5 544.5,912.5 622.5,912.5C 622.5,915.833 622.5,919.167 622.5,922.5C 604.821,922.167 587.154,922.5 569.5,923.5C 570.417,926.758 570.751,930.091 570.5,933.5C 567.167,933.5 563.833,933.5 560.5,933.5C 560.167,921.5 559.833,921.5 559.5,933.5C 556.5,933.5 553.5,933.5 550.5,933.5C 549.833,921.5 549.167,921.5 548.5,933.5C 545.813,933.664 543.146,933.497 540.5,933C 539.736,930.931 539.236,928.764 539,926.5C 539.201,932.369 536.368,934.703 530.5,933.5C 529.833,921.5 529.167,921.5 528.5,933.5C 517.833,934.167 517.833,934.833 528.5,935.5C 528.5,938.167 528.5,940.833 528.5,943.5C 524.671,942.931 521.337,943.598 518.5,945.5C 516.878,946.122 515.545,947.122 514.5,948.5C 513.034,949.347 512.2,950.68 512,952.5C 511.5,960.493 511.334,968.493 511.5,976.5C 511.247,978.827 511.914,980.827 513.5,982.5C 511.604,983.466 509.604,983.799 507.5,983.5C 507.826,974.983 507.493,966.65 506.5,958.5C 506.167,958.5 505.833,958.5 505.5,958.5C 500.833,958.5 496.167,958.5 491.5,958.5C 491.5,962.167 491.5,965.833 491.5,969.5C 491.737,970.791 491.404,971.791 490.5,972.5C 489.167,972.5 487.833,972.5 486.5,972.5C 486.191,961.752 486.524,951.085 487.5,940.5C 489.414,937.316 490.08,933.649 489.5,929.5C 481.5,929.5 473.5,929.5 465.5,929.5C 465.185,933.371 465.518,937.038 466.5,940.5C 466.833,940.5 467.167,940.5 467.5,940.5C 467.5,951.833 467.5,963.167 467.5,974.5C 465.612,976.988 464.945,979.988 465.5,983.5C 463.901,983.768 462.568,983.434 461.5,982.5C 462.5,982.5 463.5,982.5 464.5,982.5C 464.042,975.75 464.042,969.084 464.5,962.5C 464.657,959.186 463.991,956.186 462.5,953.5C 462.771,951.62 462.104,950.287 460.5,949.5C 459.167,948.5 457.833,947.5 456.5,946.5C 456.5,945.833 456.167,945.5 455.5,945.5C 452.572,944.18 449.239,943.514 445.5,943.5C 441.761,943.514 438.428,944.18 435.5,945.5C 433.517,945.157 432.183,945.824 431.5,947.5C 429.281,948.828 427.948,950.828 427.5,953.5C 425.656,955.279 424.99,957.612 425.5,960.5C 424.5,960.5 423.5,960.5 422.5,960.5C 422.38,958.266 422.713,956.099 423.5,954C 423.101,952.272 422.434,950.772 421.5,949.5C 421.665,946.482 421.498,943.482 421,940.5C 420.617,939.944 420.117,939.611 419.5,939.5C 419.267,937.938 418.6,936.605 417.5,935.5C 416.878,932.224 414.878,930.891 411.5,931.5C 409.833,931.5 408.167,931.5 406.5,931.5C 406.5,930.833 406.167,930.5 405.5,930.5C 396.348,929.506 387.015,929.173 377.5,929.5C 377.185,933.371 377.518,937.038 378.5,940.5C 378.833,940.5 379.167,940.5 379.5,940.5C 380.455,951.449 380.789,962.449 380.5,973.5C 379.833,973.5 379.5,973.833 379.5,974.5C 377.577,978.029 376.911,982.029 377.5,986.5C 383.167,986.5 388.833,986.5 394.5,986.5C 394.5,993.167 394.5,999.833 394.5,1006.5C 391.5,1006.5 388.5,1006.5 385.5,1006.5C 385.167,1006.5 384.833,1006.5 384.5,1006.5C 384.241,1002.76 384.574,999.094 385.5,995.5C 384.811,993.556 384.311,991.556 384,989.5C 382.887,991.8 381.387,992.133 379.5,990.5C 373.215,993.871 366.881,994.204 360.5,991.5C 359.167,989.833 357.833,988.167 356.5,986.5C 356.573,984.973 355.906,983.973 354.5,983.5C 354.672,982.508 354.338,981.842 353.5,981.5C 353.498,977.173 352.165,973.507 349.5,970.5C 349.5,963.833 349.5,957.167 349.5,950.5C 351.074,948.898 351.741,946.898 351.5,944.5C 351.5,944.167 351.5,943.833 351.5,943.5C 353.379,942.105 354.379,940.105 354.5,937.5C 354.5,937.167 354.5,936.833 354.5,936.5C 358.471,931.858 362.471,927.192 366.5,922.5C 370.666,918.244 375.666,915.244 381.5,913.5C 383.806,913.007 386.139,912.674 388.5,912.5 Z M 421.5,974.5 C 421.5,972.5 421.5,970.5 421.5,968.5C 422.735,968.279 423.735,967.612 424.5,966.5C 425.484,969.428 425.817,972.428 425.5,975.5C 423.901,975.768 422.568,975.434 421.5,974.5 Z"/></g>
<g><path style="opacity:1" fill="#e1dfda" d="M 622.5,912.5 C 645.167,912.5 667.833,912.5 690.5,912.5C 692.861,912.674 695.194,913.007 697.5,913.5C 698.514,914.674 699.847,915.34 701.5,915.5C 701.833,915.5 702.167,915.5 702.5,915.5C 704.566,917.199 706.9,918.532 709.5,919.5C 713.36,922.939 717.027,926.605 720.5,930.5C 720.738,932.404 721.738,933.738 723.5,934.5C 724.263,938.898 725.93,942.898 728.5,946.5C 729.803,955.154 729.803,963.821 728.5,972.5C 727.542,974.302 726.875,976.302 726.5,978.5C 725.463,979.93 724.796,981.597 724.5,983.5C 723.094,983.973 722.427,984.973 722.5,986.5C 721.147,987.526 720.147,988.859 719.5,990.5C 717.167,992.167 715.167,994.167 713.5,996.5C 711.167,998.167 708.833,999.833 706.5,1001.5C 704.973,1001.43 703.973,1002.09 703.5,1003.5C 701.685,1004.63 699.685,1005.3 697.5,1005.5C 695.214,1005.59 693.214,1006.26 691.5,1007.5C 657.543,1008.49 623.543,1008.82 589.5,1008.5C 589.5,1007.5 589.5,1006.5 589.5,1005.5C 583.5,1005.5 577.5,1005.5 571.5,1005.5C 571.5,1002.5 571.5,999.5 571.5,996.5C 583.5,995.833 583.5,995.167 571.5,994.5C 571.5,991.5 571.5,988.5 571.5,985.5C 578.309,986.732 584.976,986.732 591.5,985.5C 591.756,981.731 591.423,978.064 590.5,974.5C 591.132,966.427 590.465,958.76 588.5,951.5C 587.92,949.251 586.587,947.585 584.5,946.5C 582.883,945.028 580.883,944.361 578.5,944.5C 575.824,944.837 573.157,945.17 570.5,945.5C 569.209,945.737 568.209,945.404 567.5,944.5C 554.68,942.598 541.68,942.264 528.5,943.5C 528.5,940.833 528.5,938.167 528.5,935.5C 517.833,934.833 517.833,934.167 528.5,933.5C 529.167,921.5 529.833,921.5 530.5,933.5C 536.368,934.703 539.201,932.369 539,926.5C 539.236,928.764 539.736,930.931 540.5,933C 543.146,933.497 545.813,933.664 548.5,933.5C 549.167,921.5 549.833,921.5 550.5,933.5C 553.5,933.5 556.5,933.5 559.5,933.5C 559.833,921.5 560.167,921.5 560.5,933.5C 563.833,933.5 567.167,933.5 570.5,933.5C 570.751,930.091 570.417,926.758 569.5,923.5C 587.154,922.5 604.821,922.167 622.5,922.5C 622.5,919.167 622.5,915.833 622.5,912.5 Z"/></g>
<g><path style="opacity:1" fill="#92918d" d="M 366.5,922.5 C 362.471,927.192 358.471,931.858 354.5,936.5C 355.684,933.139 357.517,930.139 360,927.5C 361.777,925.21 363.944,923.543 366.5,922.5 Z"/></g>
<g><path style="opacity:1" fill="#aeaca8" d="M 405.5,930.5 C 396.5,930.5 387.5,930.5 378.5,930.5C 378.5,933.833 378.5,937.167 378.5,940.5C 377.518,937.038 377.185,933.371 377.5,929.5C 387.015,929.173 396.348,929.506 405.5,930.5 Z"/></g>
<g><path style="opacity:1" fill="#a9a7a3" d="M 487.5,940.5 C 487.5,937.5 487.5,934.5 487.5,931.5C 480.687,930.509 473.687,930.175 466.5,930.5C 466.5,933.833 466.5,937.167 466.5,940.5C 465.518,937.038 465.185,933.371 465.5,929.5C 473.5,929.5 481.5,929.5 489.5,929.5C 490.08,933.649 489.414,937.316 487.5,940.5 Z"/></g>
<g><path style="opacity:1" fill="#afada9" d="M 636.5,930.5 C 639.314,929.835 642.314,929.502 645.5,929.5C 648.913,929.517 651.913,930.184 654.5,931.5C 648.591,930.545 642.591,930.211 636.5,930.5 Z"/></g>
<g><path style="opacity:1" fill="#a09e9a" d="M 686.5,930.5 C 687.622,929.844 688.955,929.511 690.5,929.5C 692.333,929.585 693.666,930.252 694.5,931.5C 691.904,930.735 689.237,930.401 686.5,930.5 Z"/></g>
<g><path style="opacity:1" fill="#71706c" d="M 405.5,930.5 C 406.167,930.5 406.5,930.833 406.5,931.5C 397.5,931.5 388.5,931.5 379.5,931.5C 379.5,934.5 379.5,937.5 379.5,940.5C 379.167,940.5 378.833,940.5 378.5,940.5C 378.5,937.167 378.5,933.833 378.5,930.5C 387.5,930.5 396.5,930.5 405.5,930.5 Z"/></g>
<g><path style="opacity:1" fill="#787672" d="M 487.5,931.5 C 480.833,931.5 474.167,931.5 467.5,931.5C 467.5,934.5 467.5,937.5 467.5,940.5C 467.167,940.5 466.833,940.5 466.5,940.5C 466.5,937.167 466.5,933.833 466.5,930.5C 473.687,930.175 480.687,930.509 487.5,931.5 Z"/></g>
<g><path style="opacity:1" fill="#3c3b38" d="M 406.5,931.5 C 408.167,931.5 409.833,931.5 411.5,931.5C 411.5,931.833 411.5,932.167 411.5,932.5C 401.167,932.5 390.833,932.5 380.5,932.5C 380.5,935.167 380.5,937.833 380.5,940.5C 380.167,940.5 379.833,940.5 379.5,940.5C 379.5,937.5 379.5,934.5 379.5,931.5C 388.5,931.5 397.5,931.5 406.5,931.5 Z"/></g>
<g><path style="opacity:1" fill="#3c3b38" d="M 487.5,931.5 C 487.5,934.5 487.5,937.5 487.5,940.5C 487.167,940.5 486.833,940.5 486.5,940.5C 486.5,937.833 486.5,935.167 486.5,932.5C 480.5,932.5 474.5,932.5 468.5,932.5C 468.5,935.167 468.5,937.833 468.5,940.5C 468.167,940.5 467.833,940.5 467.5,940.5C 467.5,937.5 467.5,934.5 467.5,931.5C 474.167,931.5 480.833,931.5 487.5,931.5 Z"/></g>
<g><path style="opacity:1" fill="#464542" d="M 686.5,930.5 C 689.237,930.401 691.904,930.735 694.5,931.5C 695.167,931.5 695.5,931.833 695.5,932.5C 691.434,932.307 687.434,932.64 683.5,933.5C 684.306,932.272 685.306,931.272 686.5,930.5 Z"/></g>
<g><path style="opacity:1" fill="#84837f" d="M 720.5,930.5 C 722.262,931.262 723.262,932.596 723.5,934.5C 721.738,933.738 720.738,932.404 720.5,930.5 Z"/></g>
<g><path style="opacity:1" fill="#a8a6a1" d="M 411.5,932.5 C 411.5,932.167 411.5,931.833 411.5,931.5C 414.878,930.891 416.878,932.224 417.5,935.5C 415.711,934.123 413.711,933.123 411.5,932.5 Z"/></g>
<g><path style="opacity:0.999" fill="#272624" d="M 411.5,932.5 C 413.711,933.123 415.711,934.123 417.5,935.5C 418.6,936.605 419.267,937.938 419.5,939.5C 420.038,941.117 420.371,942.784 420.5,944.5C 418.69,953.111 417.856,962.111 418,971.5C 415.858,973.879 416.024,975.879 418.5,977.5C 416.672,980.194 414.339,982.194 411.5,983.5C 409.167,983.5 406.833,983.5 404.5,983.5C 396.5,983.5 388.5,983.5 380.5,983.5C 381.456,975.209 382.123,966.876 382.5,958.5C 382.499,952.989 382.166,947.656 381.5,942.5C 381.167,941.833 380.833,941.167 380.5,940.5C 380.5,937.833 380.5,935.167 380.5,932.5C 390.833,932.5 401.167,932.5 411.5,932.5 Z"/></g>
<g><path style="opacity:1" fill="#272624" d="M 486.5,940.5 C 485.505,951.321 485.172,962.321 485.5,973.5C 487.415,973.784 489.081,973.451 490.5,972.5C 491.404,971.791 491.737,970.791 491.5,969.5C 492.479,966.375 492.813,963.042 492.5,959.5C 496.5,959.5 500.5,959.5 504.5,959.5C 504.5,967.5 504.5,975.5 504.5,983.5C 492.5,983.5 480.5,983.5 468.5,983.5C 468.5,980.5 468.5,977.5 468.5,974.5C 469.819,963.265 469.819,951.931 468.5,940.5C 468.5,937.833 468.5,935.167 468.5,932.5C 474.5,932.5 480.5,932.5 486.5,932.5C 486.5,935.167 486.5,937.833 486.5,940.5 Z"/></g>
<g><path style="opacity:1" fill="#282624" d="M 652.5,932.5 C 652.5,937.5 652.5,942.5 652.5,947.5C 653.791,947.737 654.791,947.404 655.5,946.5C 659.154,946.058 662.821,945.724 666.5,945.5C 667.5,945.5 668.5,945.5 669.5,945.5C 670.167,946.833 671.167,947.833 672.5,948.5C 672.5,948.833 672.5,949.167 672.5,949.5C 673.11,957.964 673.776,966.297 674.5,974.5C 674.833,974.5 675.167,974.5 675.5,974.5C 675.5,977.833 675.5,981.167 675.5,984.5C 670.5,984.5 665.5,984.5 660.5,984.5C 660.827,975.318 660.493,966.318 659.5,957.5C 659.167,956.833 658.833,956.167 658.5,955.5C 657.081,954.549 655.415,954.216 653.5,954.5C 653.5,961.167 653.5,967.833 653.5,974.5C 653.5,977.5 653.5,980.5 653.5,983.5C 648.5,983.5 643.5,983.5 638.5,983.5C 638.5,981.167 638.5,978.833 638.5,976.5C 638.5,976.167 638.5,975.833 638.5,975.5C 639.117,975.389 639.617,975.056 640,974.5C 640.167,968.833 640.333,963.167 640.5,957.5C 640.496,951.458 639.829,945.792 638.5,940.5C 638.5,937.833 638.5,935.167 638.5,932.5C 643.167,932.5 647.833,932.5 652.5,932.5 Z"/></g>
<g><path style="opacity:1" fill="#292826" d="M 695.5,932.5 C 696.167,932.833 696.833,933.167 697.5,933.5C 697.662,935.527 697.495,937.527 697,939.5C 692.631,943.379 688.298,943.379 684,939.5C 683.505,937.527 683.338,935.527 683.5,933.5C 687.434,932.64 691.434,932.307 695.5,932.5 Z"/></g>
<g><path style="opacity:1" fill="#53524f" d="M 652.5,932.5 C 652.862,937.421 653.862,942.087 655.5,946.5C 654.791,947.404 653.791,947.737 652.5,947.5C 652.5,942.5 652.5,937.5 652.5,932.5 Z"/></g>
<g><path style="opacity:1" fill="#7e7c78" d="M 636.5,930.5 C 642.591,930.211 648.591,930.545 654.5,931.5C 654.5,936.167 654.5,940.833 654.5,945.5C 658.658,944.461 662.658,944.461 666.5,945.5C 662.821,945.724 659.154,946.058 655.5,946.5C 653.862,942.087 652.862,937.421 652.5,932.5C 647.695,931.513 642.695,931.179 637.5,931.5C 637.5,934.167 637.5,936.833 637.5,939.5C 636.523,936.713 636.19,933.713 636.5,930.5 Z"/></g>
<g><path style="opacity:1" fill="#484744" d="M 652.5,932.5 C 647.833,932.5 643.167,932.5 638.5,932.5C 638.5,935.167 638.5,937.833 638.5,940.5C 637.833,940.5 637.5,940.167 637.5,939.5C 637.5,936.833 637.5,934.167 637.5,931.5C 642.695,931.179 647.695,931.513 652.5,932.5 Z"/></g>
<g><path style="opacity:1" fill="#1e1c1b" d="M 428.5,936.5 C 469.833,937.167 469.833,937.833 428.5,938.5C 428.5,937.833 428.5,937.167 428.5,936.5 Z"/></g>
<g><path style="opacity:1" fill="#9f9e99" d="M 723.5,934.5 C 725.935,938.129 727.602,942.129 728.5,946.5C 725.93,942.898 724.263,938.898 723.5,934.5 Z"/></g>
<g><path style="opacity:1" fill="#5f5d5a" d="M 428.5,936.5 C 438.987,935.506 449.654,935.172 460.5,935.5C 460.5,936.833 460.5,938.167 460.5,939.5C 449.654,939.828 438.987,939.494 428.5,938.5C 469.833,937.833 469.833,937.167 428.5,936.5 Z"/></g>
<g><path style="opacity:0.979" fill="#1e1c1a" d="M 743.5,941.5 C 744.117,941.611 744.617,941.944 745,942.5C 745.667,954.167 745.667,965.833 745,977.5C 744.124,979.758 742.957,981.758 741.5,983.5C 741.519,981.94 741.852,980.44 742.5,979C 741.453,977.32 740.787,975.486 740.5,973.5C 742.782,960.041 741.448,947.041 736.5,934.5C 736.833,933.833 737.167,933.167 737.5,932.5C 740.25,937.586 742.084,942.919 743,948.5C 743.395,956.958 743.562,965.291 743.5,973.5C 744.737,962.823 744.737,952.156 743.5,941.5 Z"/></g>
<g><path style="opacity:1" fill="#a8a7a2" d="M 354.5,937.5 C 354.379,940.105 353.379,942.105 351.5,943.5C 351.621,940.895 352.621,938.895 354.5,937.5 Z"/></g>
<g><path style="opacity:1" fill="#c6c4bf" d="M 567.5,944.5 C 562.167,944.5 556.833,944.5 551.5,944.5C 551.5,947.833 551.5,951.167 551.5,954.5C 549.598,951.663 548.931,948.329 549.5,944.5C 546.813,944.336 544.146,944.503 541.5,945C 542.71,946.039 543.71,947.206 544.5,948.5C 542.938,948.267 541.605,947.6 540.5,946.5C 537.135,944.961 533.469,944.294 529.5,944.5C 525.799,944.627 522.132,944.96 518.5,945.5C 521.337,943.598 524.671,942.931 528.5,943.5C 541.68,942.264 554.68,942.598 567.5,944.5 Z"/></g>
<g><path style="opacity:1" fill="#adaba6" d="M 403.5,943.5 C 404.472,952.75 404.805,962.083 404.5,971.5C 403.833,971.833 403.167,972.167 402.5,972.5C 401.081,973.451 399.415,973.784 397.5,973.5C 397.5,963.167 397.5,952.833 397.5,942.5C 399.735,942.205 401.735,942.539 403.5,943.5 Z"/></g>
<g><path style="opacity:1" fill="#aeaca8" d="M 455.5,945.5 C 448.833,944.167 442.167,944.167 435.5,945.5C 438.428,944.18 441.761,943.514 445.5,943.5C 449.239,943.514 452.572,944.18 455.5,945.5 Z"/></g>
<g><path style="opacity:1" fill="#b5b3ae" d="M 633.5,945.5 C 627.833,945.5 622.167,945.5 616.5,945.5C 618.915,944.186 621.748,943.519 625,943.5C 628.252,943.519 631.085,944.186 633.5,945.5 Z"/></g>
<g><path style="opacity:1" fill="#b9b7b2" d="M 683.5,933.5 C 683.338,935.527 683.505,937.527 684,939.5C 688.298,943.379 692.631,943.379 697,939.5C 697.495,937.527 697.662,935.527 697.5,933.5C 700.179,936.954 699.512,940.12 695.5,943C 696.416,943.278 697.082,943.778 697.5,944.5C 692.167,944.5 686.833,944.5 681.5,944.5C 682.429,943.685 683.429,942.852 684.5,942C 682.327,939.302 681.994,936.469 683.5,933.5 Z"/></g>
<g><path style="opacity:1" fill="#4e4d49" d="M 455.5,945.5 C 456.167,945.5 456.5,945.833 456.5,946.5C 449.5,945.167 442.5,945.167 435.5,946.5C 435.5,946.167 435.5,945.833 435.5,945.5C 442.167,944.167 448.833,944.167 455.5,945.5 Z"/></g>
<g><path style="opacity:1" fill="#8f8d89" d="M 567.5,944.5 C 568.209,945.404 569.209,945.737 570.5,945.5C 570.5,945.833 570.5,946.167 570.5,946.5C 569.015,947.935 567.682,947.768 566.5,946C 561.845,945.501 557.179,945.334 552.5,945.5C 552.5,948.5 552.5,951.5 552.5,954.5C 552.167,954.5 551.833,954.5 551.5,954.5C 551.5,951.167 551.5,947.833 551.5,944.5C 556.833,944.5 562.167,944.5 567.5,944.5 Z"/></g>
<g><path style="opacity:1" fill="#6f6e6a" d="M 614.5,946.5 C 608.996,944.895 603.662,945.228 598.5,947.5C 598.47,946.503 598.97,945.836 600,945.5C 605.073,944.05 609.907,944.383 614.5,946.5 Z"/></g>
<g><path style="opacity:0.976" fill="#1b1a18" d="M 420.5,944.5 C 420.5,951.167 420.5,957.833 420.5,964.5C 420.31,968.923 419.643,973.256 418.5,977.5C 416.024,975.879 415.858,973.879 418,971.5C 417.856,962.111 418.69,953.111 420.5,944.5 Z"/></g>
<g><path style="opacity:1" fill="#8a8984" d="M 435.5,945.5 C 435.5,945.833 435.5,946.167 435.5,946.5C 434.041,946.433 432.708,946.766 431.5,947.5C 432.183,945.824 433.517,945.157 435.5,945.5 Z"/></g>
<g><path style="opacity:1" fill="#474643" d="M 540.5,946.5 C 531.632,944.944 522.965,945.611 514.5,948.5C 515.545,947.122 516.878,946.122 518.5,945.5C 522.132,944.96 525.799,944.627 529.5,944.5C 533.469,944.294 537.135,944.961 540.5,946.5 Z"/></g>
<g><path style="opacity:1" fill="#282725" d="M 540.5,946.5 C 541.605,947.6 542.938,948.267 544.5,948.5C 545.268,949.263 545.768,950.263 546,951.5C 546.667,960.5 546.667,969.5 546,978.5C 544.961,979.244 544.461,980.244 544.5,981.5C 541.805,982.428 539.472,983.761 537.5,985.5C 532.5,985.5 527.5,985.5 522.5,985.5C 520.898,983.926 518.898,983.259 516.5,983.5C 515.143,982.41 514.143,981.076 513.5,979.5C 513.214,969.115 513.548,958.782 514.5,948.5C 522.965,945.611 531.632,944.944 540.5,946.5 Z"/></g>
<g><path style="opacity:1" fill="#555451" d="M 584.5,946.5 C 579.833,946.5 575.167,946.5 570.5,946.5C 570.5,946.167 570.5,945.833 570.5,945.5C 573.157,945.17 575.824,944.837 578.5,944.5C 580.883,944.361 582.883,945.028 584.5,946.5 Z"/></g>
<g><path style="opacity:1" fill="#656360" d="M 616.5,945.5 C 622.167,945.5 627.833,945.5 633.5,945.5C 633.81,948.713 633.477,951.713 632.5,954.5C 632.5,951.833 632.5,949.167 632.5,946.5C 627.489,946.334 622.489,946.501 617.5,947C 615.947,949.14 614.947,948.973 614.5,946.5C 615.492,946.672 616.158,946.338 616.5,945.5 Z"/></g>
<g><path style="opacity:1" fill="#969590" d="M 669.5,945.5 C 671.5,945.5 672.5,946.5 672.5,948.5C 671.167,947.833 670.167,946.833 669.5,945.5 Z"/></g>
<g><path style="opacity:1" fill="#a4a39e" d="M 351.5,944.5 C 351.741,946.898 351.074,948.898 349.5,950.5C 349.5,949.167 349.5,947.833 349.5,946.5C 350.167,945.833 350.833,945.167 351.5,944.5 Z"/></g>
<g><path style="opacity:0.999" fill="#272623" d="M 456.5,946.5 C 457.833,947.5 459.167,948.5 460.5,949.5C 461.413,955.441 461.746,961.441 461.5,967.5C 455.167,967.5 448.833,967.5 442.5,967.5C 442.5,970.5 442.5,973.5 442.5,976.5C 444.415,976.784 446.081,976.451 447.5,975.5C 447.232,973.901 447.566,972.568 448.5,971.5C 452.833,971.5 457.167,971.5 461.5,971.5C 461.5,974.833 461.5,978.167 461.5,981.5C 459.821,981.285 458.821,981.952 458.5,983.5C 457.833,983.5 457.167,983.5 456.5,983.5C 449.48,984.747 442.48,984.747 435.5,983.5C 434.5,983.5 433.5,983.5 432.5,983.5C 431.695,981.787 430.695,980.121 429.5,978.5C 428.505,973.208 428.172,967.875 428.5,962.5C 428.047,957.151 429.047,952.151 431.5,947.5C 432.708,946.766 434.041,946.433 435.5,946.5C 442.5,945.167 449.5,945.167 456.5,946.5 Z"/></g>
<g><path style="opacity:1" fill="#282724" d="M 614.5,946.5 C 614.947,948.973 615.947,949.14 617.5,947C 622.489,946.501 627.489,946.334 632.5,946.5C 632.5,949.167 632.5,951.833 632.5,954.5C 630.521,966.12 629.854,978.12 630.5,990.5C 628.945,993.404 626.945,996.07 624.5,998.5C 618.496,1000.64 612.496,1000.98 606.5,999.5C 606.389,998.883 606.056,998.383 605.5,998C 602.793,997.605 600.127,997.105 597.5,996.5C 597.167,996.5 596.833,996.5 596.5,996.5C 596.19,993.287 596.523,990.287 597.5,987.5C 601.5,987.5 605.5,987.5 609.5,987.5C 609.427,989.027 610.094,990.027 611.5,990.5C 613.099,990.768 614.432,990.434 615.5,989.5C 616.468,987.393 616.802,985.059 616.5,982.5C 615.209,982.263 614.209,982.596 613.5,983.5C 609.167,983.5 604.833,983.5 600.5,983.5C 598.384,981.4 596.717,979.067 595.5,976.5C 595.334,969.159 595.5,961.826 596,954.5C 596.744,952.1 597.577,949.767 598.5,947.5C 603.662,945.228 608.996,944.895 614.5,946.5 Z"/></g>
<g><path style="opacity:1" fill="#6f6d69" d="M 379.5,940.5 C 379.833,940.5 380.167,940.5 380.5,940.5C 380.833,941.167 381.167,941.833 381.5,942.5C 381.828,953.014 381.494,963.347 380.5,973.5C 380.789,962.449 380.455,951.449 379.5,940.5 Z"/></g>
<g><path style="opacity:1" fill="#292826" d="M 570.5,946.5 C 575.167,946.5 579.833,946.5 584.5,946.5C 586.587,947.585 587.92,949.251 588.5,951.5C 588.175,959.352 588.508,967.018 589.5,974.5C 589.5,977.833 589.5,981.167 589.5,984.5C 584.833,984.5 580.167,984.5 575.5,984.5C 574.833,975.167 574.167,965.833 573.5,956.5C 573.209,955.351 572.376,954.684 571,954.5C 569.93,954.528 569.097,954.861 568.5,955.5C 568.5,961.833 568.5,968.167 568.5,974.5C 569.414,977.728 569.747,981.061 569.5,984.5C 563.833,984.5 558.167,984.5 552.5,984.5C 553.259,978.028 553.926,971.528 554.5,965C 554.488,961.098 553.821,957.598 552.5,954.5C 552.5,951.5 552.5,948.5 552.5,945.5C 557.179,945.334 561.845,945.501 566.5,946C 567.682,947.768 569.015,947.935 570.5,946.5 Z"/></g>
<g><path style="opacity:1" fill="#292826" d="M 698.5,974.5 C 698.833,974.5 699.167,974.5 699.5,974.5C 699.5,974.833 699.5,975.167 699.5,975.5C 699.5,978.5 699.5,981.5 699.5,984.5C 693.833,984.5 688.167,984.5 682.5,984.5C 682.342,981.098 682.676,977.764 683.5,974.5C 683.5,968.167 683.5,961.833 683.5,955.5C 682.701,952.57 682.368,949.57 682.5,946.5C 687.5,946.5 692.5,946.5 697.5,946.5C 697.173,956.015 697.506,965.348 698.5,974.5 Z"/></g>
<g><path style="opacity:1" fill="#62615e" d="M 681.5,945.5 C 687.167,945.5 692.833,945.5 698.5,945.5C 698.5,955.167 698.5,964.833 698.5,974.5C 697.506,965.348 697.173,956.015 697.5,946.5C 692.5,946.5 687.5,946.5 682.5,946.5C 682.368,949.57 682.701,952.57 683.5,955.5C 682.883,955.389 682.383,955.056 682,954.5C 681.502,951.518 681.335,948.518 681.5,945.5 Z"/></g>
<g><path style="opacity:0.071" fill="#171715" d="M 335.5,941.5 C 334.731,948.668 333.731,955.668 332.5,962.5C 332.374,956.807 332.707,951.14 333.5,945.5C 333.585,943.667 334.252,942.334 335.5,941.5 Z"/></g>
<g><path style="opacity:1" fill="#8b8985" d="M 598.5,947.5 C 597.577,949.767 596.744,952.1 596,954.5C 595.5,961.826 595.334,969.159 595.5,976.5C 594.344,968.677 594.177,960.677 595,952.5C 595.549,950.24 596.716,948.574 598.5,947.5 Z"/></g>
<g><path style="opacity:1" fill="#676662" d="M 568.5,955.5 C 569.097,954.861 569.93,954.528 571,954.5C 572.376,954.684 573.209,955.351 573.5,956.5C 571.958,955.699 570.292,955.366 568.5,955.5 Z"/></g>
<g><path style="opacity:1" fill="#e9e7e1" d="M 402.5,972.5 C 401.167,972.5 399.833,972.5 398.5,972.5C 398.5,962.833 398.5,953.167 398.5,943.5C 399.833,943.5 401.167,943.5 402.5,943.5C 402.5,953.167 402.5,962.833 402.5,972.5 Z"/></g>
<g><path style="opacity:1" fill="#4e4d4a" d="M 403.5,943.5 C 404.827,947.783 405.493,952.449 405.5,957.5C 405.499,962.346 405.166,967.012 404.5,971.5C 404.805,962.083 404.472,952.75 403.5,943.5 Z"/></g>
<g><path style="opacity:0.99" fill="#797773" d="M 419.5,939.5 C 420.117,939.611 420.617,939.944 421,940.5C 421.498,943.482 421.665,946.482 421.5,949.5C 420.897,954.619 421.564,959.285 423.5,963.5C 423.5,963.833 423.5,964.167 423.5,964.5C 423.167,964.5 422.833,964.5 422.5,964.5C 421.833,964.5 421.167,964.5 420.5,964.5C 420.5,957.833 420.5,951.167 420.5,944.5C 420.371,942.784 420.038,941.117 419.5,939.5 Z"/></g>
<g><path style="opacity:0.996" fill="#c7c6c0" d="M 421.5,949.5 C 422.434,950.772 423.101,952.272 423.5,954C 422.713,956.099 422.38,958.266 422.5,960.5C 423.5,960.5 424.5,960.5 425.5,960.5C 424.99,957.612 425.656,955.279 427.5,953.5C 427.5,956.5 427.5,959.5 427.5,962.5C 425.901,962.232 424.568,962.566 423.5,963.5C 421.564,959.285 420.897,954.619 421.5,949.5 Z"/></g>
<g><path style="opacity:1" fill="#514f4c" d="M 638.5,940.5 C 639.829,945.792 640.496,951.458 640.5,957.5C 640.333,963.167 640.167,968.833 640,974.5C 639.617,975.056 639.117,975.389 638.5,975.5C 638.5,975.167 638.5,974.833 638.5,974.5C 638.5,963.167 638.5,951.833 638.5,940.5 Z"/></g>
<g><path style="opacity:1" fill="#cdcbc6" d="M 443.5,954.5 C 444.833,954.5 446.167,954.5 447.5,954.5C 447.5,956.167 447.5,957.833 447.5,959.5C 445.833,959.5 444.167,959.5 442.5,959.5C 442.5,958.5 442.5,957.5 442.5,956.5C 442.328,955.508 442.662,954.842 443.5,954.5 Z"/></g>
<g><path style="opacity:1" fill="#757470" d="M 349.5,946.5 C 349.5,947.833 349.5,949.167 349.5,950.5C 349.5,957.167 349.5,963.833 349.5,970.5C 346.997,962.511 346.997,954.511 349.5,946.5 Z"/></g>
<g><path style="opacity:0.965" fill="#72716d" d="M 431.5,947.5 C 429.047,952.151 428.047,957.151 428.5,962.5C 428.167,962.5 427.833,962.5 427.5,962.5C 427.5,959.5 427.5,956.5 427.5,953.5C 427.948,950.828 429.281,948.828 431.5,947.5 Z"/></g>
<g><path style="opacity:1" fill="#a2a09c" d="M 615.5,955.5 C 616.49,961.31 616.823,967.31 616.5,973.5C 614.274,975.18 612.607,974.847 611.5,972.5C 612.833,972.5 614.167,972.5 615.5,972.5C 615.5,966.833 615.5,961.167 615.5,955.5 Z"/></g>
<g><path style="opacity:1" fill="#4e4c49" d="M 611.5,955.5 C 613.265,954.539 615.265,954.205 617.5,954.5C 617.823,961.022 617.49,967.355 616.5,973.5C 616.823,967.31 616.49,961.31 615.5,955.5C 614.167,955.5 612.833,955.5 611.5,955.5 Z"/></g>
<g><path style="opacity:0.997" fill="#73726e" d="M 728.5,946.5 C 729.824,950.107 730.491,954.107 730.5,958.5C 730.333,962.5 730.167,966.5 730,970.5C 729.722,971.416 729.222,972.082 728.5,972.5C 729.803,963.821 729.803,955.154 728.5,946.5 Z"/></g>
<g><path style="opacity:1" fill="#504f4b" d="M 514.5,948.5 C 513.548,958.782 513.214,969.115 513.5,979.5C 512.833,978.5 512.167,977.5 511.5,976.5C 511.334,968.493 511.5,960.493 512,952.5C 512.2,950.68 513.034,949.347 514.5,948.5 Z"/></g>
<g><path style="opacity:1" fill="#82817d" d="M 658.5,955.5 C 657.167,955.5 655.833,955.5 654.5,955.5C 654.5,961.833 654.5,968.167 654.5,974.5C 654.167,974.5 653.833,974.5 653.5,974.5C 653.5,967.833 653.5,961.167 653.5,954.5C 655.415,954.216 657.081,954.549 658.5,955.5 Z"/></g>
<g><path style="opacity:1" fill="#797773" d="M 443.5,954.5 C 444.919,953.549 446.585,953.216 448.5,953.5C 448.5,955.833 448.5,958.167 448.5,960.5C 446.167,960.5 443.833,960.5 441.5,960.5C 441.232,958.901 441.566,957.568 442.5,956.5C 442.5,957.5 442.5,958.5 442.5,959.5C 444.167,959.5 445.833,959.5 447.5,959.5C 447.5,957.833 447.5,956.167 447.5,954.5C 446.167,954.5 444.833,954.5 443.5,954.5 Z"/></g>
<g><path style="opacity:1" fill="#95938f" d="M 486.5,940.5 C 486.833,940.5 487.167,940.5 487.5,940.5C 486.524,951.085 486.191,961.752 486.5,972.5C 487.833,972.5 489.167,972.5 490.5,972.5C 489.081,973.451 487.415,973.784 485.5,973.5C 485.172,962.321 485.505,951.321 486.5,940.5 Z"/></g>
<g><path style="opacity:1" fill="#dad8d3" d="M 611.5,955.5 C 612.833,955.5 614.167,955.5 615.5,955.5C 615.5,961.167 615.5,966.833 615.5,972.5C 614.167,972.5 612.833,972.5 611.5,972.5C 611.167,972.5 610.833,972.5 610.5,972.5C 610.218,967.073 610.551,961.74 611.5,956.5C 611.5,956.167 611.5,955.833 611.5,955.5 Z"/></g>
<g><path style="opacity:1" fill="#a09e99" d="M 681.5,945.5 C 681.5,945.167 681.5,944.833 681.5,944.5C 686.833,944.5 692.167,944.5 697.5,944.5C 699.474,954.111 700.141,964.111 699.5,974.5C 699.167,974.5 698.833,974.5 698.5,974.5C 698.5,964.833 698.5,955.167 698.5,945.5C 692.833,945.5 687.167,945.5 681.5,945.5 Z"/></g>
<g><path style="opacity:1" fill="#a2a09c" d="M 467.5,940.5 C 467.833,940.5 468.167,940.5 468.5,940.5C 469.819,951.931 469.819,963.265 468.5,974.5C 468.167,974.5 467.833,974.5 467.5,974.5C 467.5,963.167 467.5,951.833 467.5,940.5 Z"/></g>
<g><path style="opacity:1" fill="#4e4d4a" d="M 460.5,949.5 C 462.104,950.287 462.771,951.62 462.5,953.5C 462.5,958.167 462.5,962.833 462.5,967.5C 462.167,967.5 461.833,967.5 461.5,967.5C 461.746,961.441 461.413,955.441 460.5,949.5 Z"/></g>
<g><path style="opacity:1" fill="#7d7c78" d="M 611.5,956.5 C 610.551,961.74 610.218,967.073 610.5,972.5C 609.836,970.022 609.503,967.355 609.5,964.5C 609.522,961.41 610.188,958.743 611.5,956.5 Z"/></g>
<g><path style="opacity:1" fill="#9c9a96" d="M 531.5,955.5 C 532.491,962.313 532.825,969.313 532.5,976.5C 529.956,976.896 527.789,976.229 526,974.5C 525.205,967.782 525.372,961.116 526.5,954.5C 528.582,953.106 530.249,953.439 531.5,955.5 Z"/></g>
<g><path style="opacity:1" fill="#e3e1db" d="M 531.5,955.5 C 531.5,961.833 531.5,968.167 531.5,974.5C 530.167,974.5 528.833,974.5 527.5,974.5C 527.5,968.167 527.5,961.833 527.5,955.5C 528.833,955.5 530.167,955.5 531.5,955.5 Z"/></g>
<g><path style="opacity:1" fill="#a6a4a0" d="M 588.5,951.5 C 590.465,958.76 591.132,966.427 590.5,974.5C 590.167,974.5 589.833,974.5 589.5,974.5C 588.508,967.018 588.175,959.352 588.5,951.5 Z"/></g>
<g><path style="opacity:1" fill="#585754" d="M 672.5,949.5 C 673.117,949.611 673.617,949.944 674,950.5C 674.5,958.493 674.666,966.493 674.5,974.5C 673.776,966.297 673.11,957.964 672.5,949.5 Z"/></g>
<g><path style="opacity:1" fill="#a09e9a" d="M 461.5,967.5 C 461.833,967.5 462.167,967.5 462.5,967.5C 456.355,968.49 450.022,968.823 443.5,968.5C 443.338,970.527 443.505,972.527 444,974.5C 445.011,975.337 446.178,975.67 447.5,975.5C 446.081,976.451 444.415,976.784 442.5,976.5C 442.5,973.5 442.5,970.5 442.5,967.5C 448.833,967.5 455.167,967.5 461.5,967.5 Z"/></g>
<g><path style="opacity:1" fill="#71706c" d="M 632.5,954.5 C 631.852,966.598 631.186,978.598 630.5,990.5C 629.854,978.12 630.521,966.12 632.5,954.5 Z"/></g>
<g><path style="opacity:1" fill="#cccac5" d="M 462.5,953.5 C 463.991,956.186 464.657,959.186 464.5,962.5C 464.042,969.084 464.042,975.75 464.5,982.5C 463.5,982.5 462.5,982.5 461.5,982.5C 461.5,982.167 461.5,981.833 461.5,981.5C 462.117,981.389 462.617,981.056 463,980.5C 463.784,977.24 463.617,974.073 462.5,971C 457.648,970.185 452.981,970.352 448.5,971.5C 447.566,972.568 447.232,973.901 447.5,975.5C 446.178,975.67 445.011,975.337 444,974.5C 443.505,972.527 443.338,970.527 443.5,968.5C 450.022,968.823 456.355,968.49 462.5,967.5C 462.5,962.833 462.5,958.167 462.5,953.5 Z"/></g>
<g><path style="opacity:0.114" fill="#141412" d="M 332.5,967.5 C 334.898,972.722 336.565,978.389 337.5,984.5C 335.895,982.52 334.728,980.187 334,977.5C 333.661,974.12 333.161,970.787 332.5,967.5 Z"/></g>
<g><path style="opacity:1" fill="#a5a39f" d="M 349.5,970.5 C 352.165,973.507 353.498,977.173 353.5,981.5C 351.503,978.167 350.17,974.5 349.5,970.5 Z"/></g>
<g><path style="opacity:1" fill="#6f6d6a" d="M 728.5,972.5 C 728.946,975.01 728.28,977.01 726.5,978.5C 726.875,976.302 727.542,974.302 728.5,972.5 Z"/></g>
<g><path style="opacity:1" fill="#696764" d="M 448.5,971.5 C 452.981,970.352 457.648,970.185 462.5,971C 463.617,974.073 463.784,977.24 463,980.5C 462.617,981.056 462.117,981.389 461.5,981.5C 461.5,978.167 461.5,974.833 461.5,971.5C 457.167,971.5 452.833,971.5 448.5,971.5 Z"/></g>
<g><path style="opacity:1" fill="#9f9d99" d="M 654.5,974.5 C 655.117,974.611 655.617,974.944 656,975.5C 656.808,979.027 656.641,982.36 655.5,985.5C 655.81,982.287 655.477,979.287 654.5,976.5C 654.5,975.833 654.5,975.167 654.5,974.5 Z"/></g>
<g><path style="opacity:0.192" fill="#3c3b38" d="M 427.5,962.5 C 427.833,962.5 428.167,962.5 428.5,962.5C 428.172,967.875 428.505,973.208 429.5,978.5C 430.695,980.121 431.695,981.787 432.5,983.5C 425.521,984.458 418.521,984.458 411.5,983.5C 414.339,982.194 416.672,980.194 418.5,977.5C 419.643,973.256 420.31,968.923 420.5,964.5C 421.167,964.5 421.833,964.5 422.5,964.5C 421.766,965.708 421.433,967.041 421.5,968.5C 421.5,970.5 421.5,972.5 421.5,974.5C 419.086,975.777 418.919,977.443 421,979.5C 423.027,979.014 425.193,979.014 427.5,979.5C 427.497,974.473 427.164,969.473 426.5,964.5C 425.5,964.5 424.5,964.5 423.5,964.5C 423.5,964.167 423.5,963.833 423.5,963.5C 424.568,962.566 425.901,962.232 427.5,962.5 Z M 421.5,974.5 C 421.5,972.5 421.5,970.5 421.5,968.5C 422.735,968.279 423.735,967.612 424.5,966.5C 425.484,969.428 425.817,972.428 425.5,975.5C 423.901,975.768 422.568,975.434 421.5,974.5 Z"/></g>
<g><path style="opacity:0.044" fill="#1c1b18" d="M 422.5,964.5 C 422.833,964.5 423.167,964.5 423.5,964.5C 424.5,964.5 425.5,964.5 426.5,964.5C 427.164,969.473 427.497,974.473 427.5,979.5C 425.193,979.014 423.027,979.014 421,979.5C 418.919,977.443 419.086,975.777 421.5,974.5C 422.568,975.434 423.901,975.768 425.5,975.5C 425.817,972.428 425.484,969.428 424.5,966.5C 423.735,967.612 422.735,968.279 421.5,968.5C 421.433,967.041 421.766,965.708 422.5,964.5 Z"/></g>
<g><path style="opacity:1" fill="#676662" d="M 461.5,981.5 C 461.5,981.833 461.5,982.167 461.5,982.5C 460.391,982.557 459.391,982.89 458.5,983.5C 458.821,981.952 459.821,981.285 461.5,981.5 Z"/></g>
<g><path style="opacity:1" fill="#383734" d="M 381.5,942.5 C 382.166,947.656 382.499,952.989 382.5,958.5C 382.123,966.876 381.456,975.209 380.5,983.5C 388.5,983.5 396.5,983.5 404.5,983.5C 396.35,984.493 388.017,984.826 379.5,984.5C 379.5,981.5 379.5,978.5 379.5,975.5C 379.5,975.167 379.5,974.833 379.5,974.5C 379.5,973.833 379.833,973.5 380.5,973.5C 381.494,963.347 381.828,953.014 381.5,942.5 Z"/></g>
<g><path style="opacity:1" fill="#3d3c39" d="M 505.5,958.5 C 505.5,967.167 505.5,975.833 505.5,984.5C 492.833,984.5 480.167,984.5 467.5,984.5C 467.5,981.5 467.5,978.5 467.5,975.5C 467.5,975.167 467.5,974.833 467.5,974.5C 467.833,974.5 468.167,974.5 468.5,974.5C 468.5,977.5 468.5,980.5 468.5,983.5C 480.5,983.5 492.5,983.5 504.5,983.5C 504.5,975.5 504.5,967.5 504.5,959.5C 500.5,959.5 496.5,959.5 492.5,959.5C 492.813,963.042 492.479,966.375 491.5,969.5C 491.5,965.833 491.5,962.167 491.5,958.5C 496.167,958.5 500.833,958.5 505.5,958.5 Z"/></g>
<g><path style="opacity:1" fill="#3a3936" d="M 653.5,974.5 C 653.833,974.5 654.167,974.5 654.5,974.5C 654.5,975.167 654.5,975.833 654.5,976.5C 654.5,979.167 654.5,981.833 654.5,984.5C 648.833,984.5 643.167,984.5 637.5,984.5C 637.194,981.615 637.527,978.948 638.5,976.5C 638.5,978.833 638.5,981.167 638.5,983.5C 643.5,983.5 648.5,983.5 653.5,983.5C 653.5,980.5 653.5,977.5 653.5,974.5 Z"/></g>
<g><path style="opacity:1" fill="#72716d" d="M 354.5,983.5 C 355.906,983.973 356.573,984.973 356.5,986.5C 355.094,986.027 354.427,985.027 354.5,983.5 Z"/></g>
<g><path style="opacity:0.988" fill="#6e6c69" d="M 379.5,975.5 C 379.5,978.5 379.5,981.5 379.5,984.5C 388.017,984.826 396.35,984.493 404.5,983.5C 406.833,983.5 409.167,983.5 411.5,983.5C 418.521,984.458 425.521,984.458 432.5,983.5C 433.5,983.5 434.5,983.5 435.5,983.5C 435.833,984.167 436.167,984.833 436.5,985.5C 435.833,985.5 435.167,985.5 434.5,985.5C 433.903,984.861 433.07,984.528 432,984.5C 428.468,984.712 425.302,985.712 422.5,987.5C 420.658,987.723 418.825,988.057 417,988.5C 415.028,986.589 412.695,985.255 410,984.5C 408.615,984.514 407.449,984.848 406.5,985.5C 397.167,985.5 387.833,985.5 378.5,985.5C 378.187,981.958 378.521,978.625 379.5,975.5 Z"/></g>
<g><path style="opacity:0.996" fill="#474643" d="M 435.5,983.5 C 442.48,984.747 449.48,984.747 456.5,983.5C 456.082,984.222 455.416,984.722 454.5,985C 448.509,985.499 442.509,985.666 436.5,985.5C 436.167,984.833 435.833,984.167 435.5,983.5 Z"/></g>
<g><path style="opacity:1" fill="#6a6965" d="M 505.5,958.5 C 505.833,958.5 506.167,958.5 506.5,958.5C 506.5,967.5 506.5,976.5 506.5,985.5C 493.167,985.5 479.833,985.5 466.5,985.5C 466.187,981.958 466.521,978.625 467.5,975.5C 467.5,978.5 467.5,981.5 467.5,984.5C 480.167,984.5 492.833,984.5 505.5,984.5C 505.5,975.833 505.5,967.167 505.5,958.5 Z"/></g>
<g><path style="opacity:1" fill="#64625f" d="M 552.5,954.5 C 553.821,957.598 554.488,961.098 554.5,965C 553.926,971.528 553.259,978.028 552.5,984.5C 558.167,984.5 563.833,984.5 569.5,984.5C 569.747,981.061 569.414,977.728 568.5,974.5C 570.414,977.684 571.08,981.351 570.5,985.5C 564.167,985.5 557.833,985.5 551.5,985.5C 551.985,978.662 552.651,971.829 553.5,965C 553.463,961.417 553.13,957.917 552.5,954.5 Z"/></g>
<g><path style="opacity:1" fill="#686763" d="M 589.5,974.5 C 589.833,974.5 590.167,974.5 590.5,974.5C 591.423,978.064 591.756,981.731 591.5,985.5C 585.974,985.821 580.64,985.488 575.5,984.5C 580.167,984.5 584.833,984.5 589.5,984.5C 589.5,981.167 589.5,977.833 589.5,974.5 Z"/></g>
<g><path style="opacity:1" fill="#93918d" d="M 613.5,983.5 C 614.209,982.596 615.209,982.263 616.5,982.5C 616.802,985.059 616.468,987.393 615.5,989.5C 615.975,986.918 615.308,984.918 613.5,983.5 Z"/></g>
<g><path style="opacity:1" fill="#6b6a66" d="M 638.5,974.5 C 638.5,974.833 638.5,975.167 638.5,975.5C 638.5,975.833 638.5,976.167 638.5,976.5C 637.527,978.948 637.194,981.615 637.5,984.5C 643.167,984.5 648.833,984.5 654.5,984.5C 654.5,981.833 654.5,979.167 654.5,976.5C 655.477,979.287 655.81,982.287 655.5,985.5C 649.167,985.5 642.833,985.5 636.5,985.5C 636.335,982.15 636.502,978.817 637,975.5C 637.383,974.944 637.883,974.611 638.5,974.5 Z"/></g>
<g><path style="opacity:1" fill="#696864" d="M 659.5,957.5 C 660.493,966.318 660.827,975.318 660.5,984.5C 665.5,984.5 670.5,984.5 675.5,984.5C 675.5,981.167 675.5,977.833 675.5,974.5C 676.482,977.962 676.815,981.629 676.5,985.5C 670.833,985.5 665.167,985.5 659.5,985.5C 659.5,976.167 659.5,966.833 659.5,957.5 Z"/></g>
<g><path style="opacity:1" fill="#686663" d="M 683.5,974.5 C 682.676,977.764 682.342,981.098 682.5,984.5C 688.167,984.5 693.833,984.5 699.5,984.5C 699.5,981.5 699.5,978.5 699.5,975.5C 700.479,978.625 700.813,981.958 700.5,985.5C 694.167,985.5 687.833,985.5 681.5,985.5C 681.335,982.15 681.502,978.817 682,975.5C 682.383,974.944 682.883,974.611 683.5,974.5 Z"/></g>
<g><path style="opacity:1" fill="#6b6966" d="M 724.5,983.5 C 724.573,985.027 723.906,986.027 722.5,986.5C 722.427,984.973 723.094,983.973 724.5,983.5 Z"/></g>
<g><path style="opacity:1" fill="#8a8985" d="M 600.5,983.5 C 604.833,983.5 609.167,983.5 613.5,983.5C 612.432,984.434 611.099,984.768 609.5,984.5C 609.5,985.5 609.5,986.5 609.5,987.5C 605.5,987.5 601.5,987.5 597.5,987.5C 599.369,986.835 601.369,986.169 603.5,985.5C 603.043,984.702 602.376,984.369 601.5,984.5C 600.833,984.5 600.5,984.167 600.5,983.5 Z"/></g>
<g><path style="opacity:1" fill="#d5d3ce" d="M 613.5,983.5 C 615.308,984.918 615.975,986.918 615.5,989.5C 614.432,990.434 613.099,990.768 611.5,990.5C 611.573,988.973 610.906,987.973 609.5,987.5C 609.5,986.5 609.5,985.5 609.5,984.5C 611.099,984.768 612.432,984.434 613.5,983.5 Z"/></g>
<g><path style="opacity:0.757" fill="#b6b4af" d="M 379.5,974.5 C 379.5,974.833 379.5,975.167 379.5,975.5C 378.521,978.625 378.187,981.958 378.5,985.5C 387.833,985.5 397.167,985.5 406.5,985.5C 408.199,985.34 409.866,985.506 411.5,986C 413.746,990.042 417.079,992.542 421.5,993.5C 421.517,991.435 421.85,989.435 422.5,987.5C 425.302,985.712 428.468,984.712 432,984.5C 433.07,984.528 433.903,984.861 434.5,985.5C 431.873,986.092 429.206,986.425 426.5,986.5C 426.492,989.545 426.159,992.545 425.5,995.5C 421.5,995.5 417.5,995.5 413.5,995.5C 413.785,993.712 413.452,992.045 412.5,990.5C 411.167,989.833 410.167,988.833 409.5,987.5C 404.544,986.506 399.544,986.173 394.5,986.5C 388.833,986.5 383.167,986.5 377.5,986.5C 376.911,982.029 377.577,978.029 379.5,974.5 Z"/></g>
<g><path style="opacity:0.644" fill="#999893" d="M 406.5,985.5 C 407.449,984.848 408.615,984.514 410,984.5C 412.695,985.255 415.028,986.589 417,988.5C 418.825,988.057 420.658,987.723 422.5,987.5C 421.85,989.435 421.517,991.435 421.5,993.5C 417.079,992.542 413.746,990.042 411.5,986C 409.866,985.506 408.199,985.34 406.5,985.5 Z"/></g>
<g><path style="opacity:1" fill="#b0aeaa" d="M 601.5,984.5 C 602.376,984.369 603.043,984.702 603.5,985.5C 601.369,986.169 599.369,986.835 597.5,987.5C 596.523,990.287 596.19,993.287 596.5,996.5C 595.359,993.36 595.192,990.027 596,986.5C 597.948,985.891 599.782,985.224 601.5,984.5 Z"/></g>
<g><path style="opacity:1" fill="#6e6d69" d="M 609.5,987.5 C 610.906,987.973 611.573,988.973 611.5,990.5C 610.094,990.027 609.427,989.027 609.5,987.5 Z"/></g>
<g><path style="opacity:0.984" fill="#d7d5d0" d="M 467.5,974.5 C 467.5,974.833 467.5,975.167 467.5,975.5C 466.521,978.625 466.187,981.958 466.5,985.5C 456.516,986.213 446.516,986.547 436.5,986.5C 436.26,989.579 436.593,992.579 437.5,995.5C 423.516,996.499 409.516,996.833 395.5,996.5C 395.335,999.518 395.502,1002.52 396,1005.5C 398.621,1007 401.288,1007.33 404,1006.5C 404.717,1007.04 405.217,1007.71 405.5,1008.5C 399.077,1008.79 392.744,1008.46 386.5,1007.5C 386.167,1007.5 385.833,1007.5 385.5,1007.5C 385.5,1007.17 385.5,1006.83 385.5,1006.5C 388.5,1006.5 391.5,1006.5 394.5,1006.5C 394.5,999.833 394.5,993.167 394.5,986.5C 399.544,986.173 404.544,986.506 409.5,987.5C 410.167,988.833 411.167,989.833 412.5,990.5C 413.452,992.045 413.785,993.712 413.5,995.5C 417.5,995.5 421.5,995.5 425.5,995.5C 426.159,992.545 426.492,989.545 426.5,986.5C 429.206,986.425 431.873,986.092 434.5,985.5C 435.167,985.5 435.833,985.5 436.5,985.5C 442.509,985.666 448.509,985.499 454.5,985C 455.416,984.722 456.082,984.222 456.5,983.5C 457.167,983.5 457.833,983.5 458.5,983.5C 459.391,982.89 460.391,982.557 461.5,982.5C 462.568,983.434 463.901,983.768 465.5,983.5C 464.945,979.988 465.612,976.988 467.5,974.5 Z"/></g>
<g><path style="opacity:1" fill="#8b8a86" d="M 630.5,990.5 C 630.354,994.636 628.354,997.303 624.5,998.5C 626.945,996.07 628.945,993.404 630.5,990.5 Z"/></g>
<g><path style="opacity:1" fill="#62615e" d="M 719.5,990.5 C 718.545,993.455 716.545,995.455 713.5,996.5C 715.167,994.167 717.167,992.167 719.5,990.5 Z"/></g>
<g><path style="opacity:0.763" fill="#a5a39f" d="M 363.5,994.5 C 369.537,994.171 375.537,994.504 381.5,995.5C 381.291,996.086 380.957,996.586 380.5,997C 376.367,996.906 372.701,997.74 369.5,999.5C 366.845,998.503 364.845,996.836 363.5,994.5 Z"/></g>
<g><path style="opacity:1" fill="#5f5d5a" d="M 597.5,996.5 C 600.127,997.105 602.793,997.605 605.5,998C 606.056,998.383 606.389,998.883 606.5,999.5C 603.873,998.895 601.207,998.395 598.5,998C 597.944,997.617 597.611,997.117 597.5,996.5 Z"/></g>
<g><path style="opacity:0.935" fill="#cac8c3" d="M 384.5,1006.5 C 383.167,1006.17 381.833,1005.83 380.5,1005.5C 379.833,1005.5 379.167,1005.5 378.5,1005.5C 378.027,1004.09 377.027,1003.43 375.5,1003.5C 372.802,1003.16 370.802,1001.82 369.5,999.5C 372.701,997.74 376.367,996.906 380.5,997C 380.957,996.586 381.291,996.086 381.5,995.5C 375.537,994.504 369.537,994.171 363.5,994.5C 362.167,993.833 361.167,992.833 360.5,991.5C 366.881,994.204 373.215,993.871 379.5,990.5C 381.387,992.133 382.887,991.8 384,989.5C 384.311,991.556 384.811,993.556 385.5,995.5C 384.574,999.094 384.241,1002.76 384.5,1006.5 Z"/></g>
<g><path style="opacity:0.992" fill="#7a7875" d="M 706.5,1001.5 C 706.027,1002.91 705.027,1003.57 703.5,1003.5C 703.973,1002.09 704.973,1001.43 706.5,1001.5 Z"/></g>
<g><path style="opacity:0.988" fill="#686663" d="M 375.5,1003.5 C 377.027,1003.43 378.027,1004.09 378.5,1005.5C 376.973,1005.57 375.973,1004.91 375.5,1003.5 Z"/></g>
<g><path style="opacity:1" fill="#e2e0db" d="M 466.5,985.5 C 479.99,986.496 493.656,986.829 507.5,986.5C 507.5,992.833 507.5,999.167 507.5,1005.5C 503.833,1005.5 500.167,1005.5 496.5,1005.5C 496.5,1006.5 496.5,1007.5 496.5,1008.5C 466.167,1008.5 435.833,1008.5 405.5,1008.5C 405.217,1007.71 404.717,1007.04 404,1006.5C 401.288,1007.33 398.621,1007 396,1005.5C 395.502,1002.52 395.335,999.518 395.5,996.5C 409.516,996.833 423.516,996.499 437.5,995.5C 436.593,992.579 436.26,989.579 436.5,986.5C 446.516,986.547 456.516,986.213 466.5,985.5 Z"/></g>
<g><path style="opacity:1" fill="#d1cfca" d="M 551.5,954.5 C 551.833,954.5 552.167,954.5 552.5,954.5C 553.13,957.917 553.463,961.417 553.5,965C 552.651,971.829 551.985,978.662 551.5,985.5C 557.833,985.5 564.167,985.5 570.5,985.5C 571.08,981.351 570.414,977.684 568.5,974.5C 568.5,968.167 568.5,961.833 568.5,955.5C 570.292,955.366 571.958,955.699 573.5,956.5C 574.167,965.833 574.833,975.167 575.5,984.5C 580.64,985.488 585.974,985.821 591.5,985.5C 584.976,986.732 578.309,986.732 571.5,985.5C 571.5,988.5 571.5,991.5 571.5,994.5C 583.5,995.167 583.5,995.833 571.5,996.5C 571.5,999.5 571.5,1002.5 571.5,1005.5C 577.5,1005.5 583.5,1005.5 589.5,1005.5C 589.5,1006.5 589.5,1007.5 589.5,1008.5C 575.833,1008.5 562.167,1008.5 548.5,1008.5C 548.5,1007.5 548.5,1006.5 548.5,1005.5C 555.833,1005.5 563.167,1005.5 570.5,1005.5C 570.5,999.167 570.5,992.833 570.5,986.5C 563.833,986.5 557.167,986.5 550.5,986.5C 550.5,989.833 550.5,993.167 550.5,996.5C 543.8,996.83 537.134,996.497 530.5,995.5C 536.463,994.504 542.463,994.171 548.5,994.5C 548.5,991.5 548.5,988.5 548.5,985.5C 535.496,986.666 522.496,986.832 509.5,986C 509.455,992.124 509.288,998.291 509,1004.5C 511.719,1005.44 514.552,1005.78 517.5,1005.5C 517.5,1006.5 517.5,1007.5 517.5,1008.5C 510.5,1008.5 503.5,1008.5 496.5,1008.5C 496.5,1007.5 496.5,1006.5 496.5,1005.5C 500.167,1005.5 503.833,1005.5 507.5,1005.5C 507.5,999.167 507.5,992.833 507.5,986.5C 493.656,986.829 479.99,986.496 466.5,985.5C 479.833,985.5 493.167,985.5 506.5,985.5C 506.5,976.5 506.5,967.5 506.5,958.5C 507.493,966.65 507.826,974.983 507.5,983.5C 509.604,983.799 511.604,983.466 513.5,982.5C 511.914,980.827 511.247,978.827 511.5,976.5C 512.167,977.5 512.833,978.5 513.5,979.5C 514.143,981.076 515.143,982.41 516.5,983.5C 518.102,985.074 520.102,985.741 522.5,985.5C 527.5,985.5 532.5,985.5 537.5,985.5C 540.659,985.426 542.992,984.093 544.5,981.5C 544.461,980.244 544.961,979.244 546,978.5C 546.667,969.5 546.667,960.5 546,951.5C 545.768,950.263 545.268,949.263 544.5,948.5C 543.71,947.206 542.71,946.039 541.5,945C 544.146,944.503 546.813,944.336 549.5,944.5C 548.931,948.329 549.598,951.663 551.5,954.5 Z"/></g>
<g><path style="opacity:1" fill="#989692" d="M 544.5,981.5 C 542.992,984.093 540.659,985.426 537.5,985.5C 539.472,983.761 541.805,982.428 544.5,981.5 Z"/></g>
<g><path style="opacity:1" fill="#706e6a" d="M 516.5,983.5 C 518.898,983.259 520.898,983.926 522.5,985.5C 520.102,985.741 518.102,985.074 516.5,983.5 Z"/></g>
<g><path style="opacity:1" fill="#e3e1dc" d="M 548.5,1008.5 C 538.167,1008.5 527.833,1008.5 517.5,1008.5C 517.5,1007.5 517.5,1006.5 517.5,1005.5C 514.552,1005.78 511.719,1005.44 509,1004.5C 509.288,998.291 509.455,992.124 509.5,986C 522.496,986.832 535.496,986.666 548.5,985.5C 548.5,988.5 548.5,991.5 548.5,994.5C 542.463,994.171 536.463,994.504 530.5,995.5C 537.134,996.497 543.8,996.83 550.5,996.5C 550.5,993.167 550.5,989.833 550.5,986.5C 557.167,986.5 563.833,986.5 570.5,986.5C 570.5,992.833 570.5,999.167 570.5,1005.5C 563.167,1005.5 555.833,1005.5 548.5,1005.5C 548.5,1006.5 548.5,1007.5 548.5,1008.5 Z"/></g>
<g><path style="opacity:0.992" fill="#676662" d="M 380.5,1005.5 C 381.833,1005.83 383.167,1006.17 384.5,1006.5C 384.833,1006.5 385.167,1006.5 385.5,1006.5C 385.5,1006.83 385.5,1007.17 385.5,1007.5C 384.167,1007.5 382.833,1007.5 381.5,1007.5C 381.167,1006.83 380.833,1006.17 380.5,1005.5 Z"/></g>
<g><path style="opacity:1" fill="#7d7b77" d="M 697.5,1005.5 C 696.01,1007.28 694.01,1007.95 691.5,1007.5C 693.214,1006.26 695.214,1005.59 697.5,1005.5 Z"/></g>
<g><path style="opacity:1" fill="#686663" d="M 386.5,1007.5 C 392.744,1008.46 399.077,1008.79 405.5,1008.5C 435.833,1008.5 466.167,1008.5 496.5,1008.5C 503.5,1008.5 510.5,1008.5 517.5,1008.5C 527.833,1008.5 538.167,1008.5 548.5,1008.5C 562.167,1008.5 575.833,1008.5 589.5,1008.5C 623.543,1008.82 657.543,1008.49 691.5,1007.5C 691.672,1008.49 691.338,1009.16 690.5,1009.5C 588.828,1010.16 487.495,1009.5 386.5,1007.5 Z"/></g>
<g><path style="opacity:1" fill="#1c1b19" d="M 381.5,1007.5 C 382.833,1007.5 384.167,1007.5 385.5,1007.5C 385.833,1007.5 386.167,1007.5 386.5,1007.5C 487.495,1009.5 588.828,1010.16 690.5,1009.5C 690.389,1010.12 690.056,1010.62 689.5,1011C 588.833,1011.67 488.167,1011.67 387.5,1011C 385.196,1010.1 382.862,1009.27 380.5,1008.5C 380.624,1007.89 380.957,1007.56 381.5,1007.5 Z"/></g>
<g><path style="opacity:0.195" fill="#1a1916" d="M 698.5,1020.5 C 698.389,1021.12 698.056,1021.62 697.5,1022C 594.953,1023.49 492.286,1023.65 389.5,1022.5C 489.999,1021.67 590.666,1021.17 691.5,1021C 690.5,1020.67 689.5,1020.33 688.5,1020C 691.868,1019.46 695.201,1019.62 698.5,1020.5 Z"/></g>
</svg>
