<?xml version="1.0" encoding="UTF-8" standalone="no"?>
<!DOCTYPE svg PUBLIC "-//W3C//DTD SVG 1.1//EN" "http://www.w3.org/Graphics/SVG/1.1/DTD/svg11.dtd">
<svg xmlns="http://www.w3.org/2000/svg" version="1.1" viewBox="0.00 0.00 1920.00 1080.00">
<g stroke-width="2.10" fill="none" stroke-linecap="butt">
<path stroke="#84827f" vector-effect="non-scaling-stroke" d="
  M 820.29 617.29
  C 822.83 621.79 825.31 626.28 828.27 630.50
  Q 839.89 647.11 855.89 661.49
  C 863.10 667.96 872.57 674.38 881.16 679.25
  Q 908.38 694.67 941.52 698.28
  Q 957.22 699.99 968.21 699.23
  C 973.81 698.85 979.36 698.82 984.86 697.85
  Q 991.22 696.72 997.21 695.49
  C 1001.66 694.59 1005.92 692.95 1010.32 691.75
  Q 1015.25 690.41 1020.05 688.47
  Q 1064.24 670.60 1091.06 633.07
  Q 1100.11 620.41 1107.32 603.52"
/>
<path stroke="#94928e" vector-effect="non-scaling-stroke" d="
  M 1107.32 603.52
  Q 1114.29 588.66 1117.21 573.49
  Q 1121.00 553.85 1120.49 531.31
  C 1120.39 526.65 1119.71 522.28 1119.33 517.64
  Q 1118.90 512.39 1117.71 507.36
  Q 1113.17 488.25 1108.35 477.14
  Q 1097.75 452.71 1076.70 429.51
  C 1073.34 425.81 1069.29 422.61 1065.67 419.18
  Q 1062.01 415.71 1057.22 412.39
  Q 1027.77 391.99 995.16 383.94
  C 982.83 380.90 969.88 379.86 957.49 379.87
  C 952.15 379.87 946.86 380.56 941.54 380.86
  Q 935.68 381.19 930.02 382.51
  Q 914.25 386.20 900.96 391.38
  Q 882.98 398.39 864.42 411.68
  Q 852.86 419.95 843.72 430.22
  Q 836.89 437.87 830.35 445.76
  Q 826.28 450.66 823.20 456.27
  C 819.17 463.60 815.11 470.81 811.75 478.41
  Q 809.80 482.82 808.79 486.81
  Q 806.30 496.70 803.95 506.68
  Q 802.88 511.23 802.09 516.37
  Q 801.01 523.31 800.73 526.11
  Q 798.65 546.92 802.50 567.49
  Q 807.72 595.39 820.29 617.29"
/>
<path stroke="#e6e4df" vector-effect="non-scaling-stroke" d="
  M 1107.32 603.52
  Q 1105.37 604.09 1103.63 604.48
  Q 1102.97 604.62 1102.32 604.88
  Q 1101.27 605.30 1100.42 604.50
  Q 1100.09 604.19 1099.64 604.17
  Q 1093.78 603.95 1087.75 603.60
  C 1086.19 603.51 1085.17 602.36 1084.18 601.25"
/>
<path stroke="#94928e" vector-effect="non-scaling-stroke" d="
  M 1084.18 601.25
  C 1090.05 588.81 1094.77 575.37 1096.66 562.00
  Q 1097.99 552.57 1098.22 542.23
  Q 1099.27 496.20 1072.01 458.71
  C 1057.08 438.19 1038.16 423.73 1014.88 413.32
  Q 982.86 399.00 946.57 402.12
  C 935.65 403.06 924.10 406.00 913.83 409.44
  Q 899.22 414.33 885.08 423.46
  Q 871.51 432.22 857.54 447.42
  Q 835.66 471.24 827.31 503.45
  Q 825.05 512.19 823.66 523.24
  C 819.67 555.00 826.91 585.23 843.57 612.51"
/>
<path stroke="#e6e4df" vector-effect="non-scaling-stroke" d="
  M 843.57 612.51
  Q 843.65 612.88 843.58 613.09
  Q 843.50 613.34 842.87 613.59
  Q 842.50 613.73 842.28 613.41
  Q 841.97 612.96 841.50 613.24
  Q 840.33 613.92 838.95 614.12
  C 837.23 614.37 835.45 615.67 833.89 616.44
  A 1.28 1.27 -50.3 0 1 832.98 616.53
  Q 832.75 616.47 832.52 616.42
  Q 832.03 616.31 831.53 616.53
  Q 829.86 617.23 827.77 616.88
  Q 827.24 616.79 826.86 617.19
  Q 825.61 618.50 824.00 619.07
  A 0.45 0.44 -33.8 0 1 823.57 618.99
  Q 821.85 617.52 820.29 617.29"
/>
<path stroke="#84827f" vector-effect="non-scaling-stroke" d="
  M 1084.18 601.25
  Q 1063.76 643.04 1021.25 663.46
  Q 999.64 673.84 977.71 676.11
  C 961.59 677.78 945.83 677.53 930.12 673.68
  C 907.86 668.22 887.46 659.16 870.14 643.77
  Q 854.71 630.05 843.57 612.51"
/>
<path stroke="#94928e" vector-effect="non-scaling-stroke" d="
  M 1002.33 488.53
  C 1001.95 489.56 1000.60 490.71 1000.37 491.72
  Q 998.23 501.05 996.96 504.74
  C 992.25 518.39 983.11 528.43 971.05 536.14
  Q 969.74 536.98 971.29 537.13
  C 996.19 539.59 1016.20 528.46 1028.90 507.71
  Q 1034.82 498.04 1036.69 485.99
  C 1038.87 471.91 1037.07 459.75 1033.50 446.33
  A 1.73 1.73 0.0 0 0 1032.01 445.04
  Q 991.40 440.38 962.98 466.98
  C 956.96 472.61 951.61 479.83 949.08 487.80
  C 945.22 500.00 943.23 510.88 946.07 523.61
  Q 947.05 527.97 948.03 532.21
  Q 948.22 533.01 949.00 532.75
  C 963.39 527.96 976.87 518.21 983.76 504.46
  C 986.10 499.79 987.82 494.36 989.42 489.25
  Q 997.43 463.70 1022.96 455.40
  Q 1024.00 455.06 1024.44 456.06
  Q 1025.57 458.63 1025.42 461.44
  Q 1025.39 461.91 1024.99 462.15
  C 1014.16 468.62 1006.77 476.37 1002.33 488.53"
/>
<path stroke="#94928e" vector-effect="non-scaling-stroke" d="
  M 924.22 517.90
  A 11.98 11.98 0.0 0 0 912.24 505.92
  A 11.98 11.98 0.0 0 0 900.26 517.90
  A 11.98 11.98 0.0 0 0 912.24 529.88
  A 11.98 11.98 0.0 0 0 924.22 517.90"
/>
<path stroke="#84827f" vector-effect="non-scaling-stroke" d="
  M 983.20 641.39
  C 1007.85 636.32 1029.57 622.41 1044.83 602.93
  Q 1065.61 576.40 1067.29 541.63
  Q 1067.99 527.04 1064.15 513.36
  Q 1063.70 511.79 1062.92 513.22
  Q 1058.62 521.01 1052.52 527.78"
/>
<path stroke="#94928e" vector-effect="non-scaling-stroke" d="
  M 1052.52 527.78
  C 1035.64 545.53 1013.78 555.77 990.00 559.92
  Q 985.55 560.70 981.13 561.33
  Q 939.32 567.33 901.05 551.31
  C 882.45 543.52 866.88 530.26 857.56 512.39
  Q 857.18 511.66 856.99 512.46
  C 852.79 530.36 852.04 547.02 856.99 564.72
  Q 864.76 592.49 885.28 613.98
  C 897.66 626.94 912.87 635.16 929.99 640.26
  Q 938.48 642.79 949.69 643.49
  Q 966.54 644.55 983.20 641.39"
/>
<path stroke="#e6e4df" vector-effect="non-scaling-stroke" d="
  M 1052.52 527.78
  Q 1052.95 532.00 1051.18 538.25
  Q 1048.66 547.17 1046.34 553.68
  Q 1043.77 560.88 1039.27 568.42
  Q 1027.00 588.95 1005.33 603.08
  Q 986.13 615.58 963.68 618.65
  Q 936.85 622.32 912.79 612.02
  Q 908.88 610.34 905.90 608.50
  C 902.05 606.13 898.03 603.97 894.55 600.98
  Q 892.24 599.00 889.50 597.16
  Q 888.66 596.60 888.26 597.62
  A 1.07 1.06 37.7 0 0 888.39 598.63
  Q 890.58 601.75 893.41 604.46
  C 897.24 608.12 901.47 610.98 905.51 614.29
  Q 908.67 616.89 912.29 619.10
  Q 925.11 626.95 941.23 633.51
  Q 949.16 636.73 957.24 638.24
  Q 966.23 639.91 975.37 640.47
  Q 977.27 640.59 979.14 640.37
  Q 981.00 640.16 982.81 640.05
  Q 983.38 640.02 983.31 640.59
  L 983.20 641.39"
/>
</g>
<path fill="#31302e" d="
  M 1046.68 675.86
  Q 1044.98 677.08 1043.16 678.04
  Q 1039.16 680.16 1035.19 682.34
  Q 1027.61 686.48 1018.17 690.12
  C 1013.18 692.04 1008.07 692.94 1003.05 694.86
  C 1001.24 695.55 999.36 695.66 997.62 696.35
  C 995.67 697.11 993.64 696.73 991.63 697.39
  C 989.14 698.21 986.69 698.04 984.24 698.80
  C 980.11 700.10 975.23 699.20 970.86 699.89
  Q 961.75 701.33 953.08 700.27
  Q 947.90 699.63 943.98 699.50
  Q 940.52 699.37 937.80 698.70
  C 934.75 697.96 931.76 698.18 928.62 697.43
  Q 922.06 695.88 916.59 694.50
  Q 901.39 690.67 886.14 682.81
  Q 877.86 678.55 871.40 673.86
  C 869.85 672.74 868.02 672.15 866.57 670.90
  C 863.92 668.64 860.92 666.90 858.38 664.66
  C 854.51 661.24 850.46 657.76 846.96 653.95
  Q 844.75 651.55 842.39 649.09
  C 835.18 641.57 828.83 633.23 823.20 624.17
  Q 818.59 616.73 814.86 608.97
  Q 812.21 603.44 809.50 597.29
  Q 808.77 595.63 808.43 594.12
  C 808.09 592.55 807.25 591.48 806.82 589.93
  Q 805.79 586.19 804.55 582.63
  C 803.95 580.91 804.25 579.23 803.52 577.73
  Q 802.74 576.11 802.66 574.38
  C 802.57 572.00 801.17 570.15 801.28 567.92
  Q 801.48 564.11 800.43 560.67
  C 799.34 557.06 800.21 553.58 799.43 549.99
  Q 797.54 541.25 799.23 533.27
  C 800.22 528.61 799.31 524.48 800.79 519.86
  C 801.87 516.46 800.71 513.08 802.15 509.63
  Q 802.79 508.11 802.70 506.31
  Q 802.67 505.71 802.96 505.19
  C 804.21 502.93 803.76 500.72 804.80 498.45
  C 805.79 496.28 805.36 494.30 806.36 492.10
  C 807.10 490.50 806.83 488.81 807.50 487.12
  C 808.36 484.98 808.60 482.69 809.55 480.65
  Q 815.12 468.66 821.80 456.62
  Q 825.29 450.35 830.26 444.40
  Q 842.79 429.42 849.71 422.84
  Q 854.26 418.53 860.31 413.72
  C 865.85 409.33 871.84 405.59 877.89 401.88
  Q 893.01 392.62 908.53 387.53
  Q 916.06 385.06 926.38 382.33
  Q 929.06 381.62 931.32 381.36
  C 933.56 381.10 935.42 380.08 937.64 380.21
  Q 942.77 380.51 947.13 379.79
  Q 951.45 379.07 956.15 379.05
  Q 959.42 379.03 963.22 379.00
  Q 966.10 378.98 970.25 379.60
  Q 974.93 380.29 980.33 380.22
  Q 983.17 380.18 986.05 380.90
  Q 988.95 381.62 991.92 382.15
  Q 994.93 382.69 998.09 383.75
  C 1000.85 384.68 1003.60 385.17 1006.41 385.98
  Q 1023.02 390.78 1044.73 403.40
  Q 1056.13 410.03 1063.52 416.35
  Q 1067.61 419.85 1071.61 423.45
  Q 1075.79 427.21 1079.28 431.15
  Q 1095.80 449.75 1107.10 471.99
  Q 1109.65 477.02 1111.44 482.20
  Q 1113.23 487.39 1114.95 492.78
  Q 1115.74 495.24 1116.36 497.75
  C 1117.08 500.72 1118.36 503.82 1118.59 506.82
  Q 1118.75 508.96 1119.56 510.92
  C 1120.54 513.29 1120.22 515.48 1120.16 518.05
  Q 1120.14 519.20 1121.11 522.82
  Q 1121.64 524.80 1121.63 527.22
  Q 1121.63 538.91 1121.55 549.70
  Q 1121.54 551.24 1121.01 552.74
  C 1119.40 557.26 1121.07 561.64 1119.29 566.14
  Q 1118.39 568.44 1118.70 571.85
  Q 1118.77 572.59 1118.44 573.27
  C 1117.20 575.84 1117.51 578.26 1116.39 580.80
  C 1115.76 582.23 1115.97 583.76 1115.38 585.34
  Q 1114.10 588.75 1113.10 592.00
  Q 1112.39 594.33 1111.32 596.40
  C 1110.39 598.20 1110.15 599.97 1109.29 601.82
  Q 1106.51 607.78 1103.74 613.33
  Q 1100.32 620.16 1095.90 627.31
  Q 1091.61 634.25 1086.73 640.12
  C 1080.58 647.52 1074.51 654.41 1067.41 660.48
  Q 1063.80 663.57 1060.30 666.52
  C 1058.49 668.05 1056.48 669.09 1054.65 670.62
  C 1052.18 672.70 1049.30 673.98 1046.68 675.86
  Z
  M 820.29 617.29
  C 822.83 621.79 825.31 626.28 828.27 630.50
  Q 839.89 647.11 855.89 661.49
  C 863.10 667.96 872.57 674.38 881.16 679.25
  Q 908.38 694.67 941.52 698.28
  Q 957.22 699.99 968.21 699.23
  C 973.81 698.85 979.36 698.82 984.86 697.85
  Q 991.22 696.72 997.21 695.49
  C 1001.66 694.59 1005.92 692.95 1010.32 691.75
  Q 1015.25 690.41 1020.05 688.47
  Q 1064.24 670.60 1091.06 633.07
  Q 1100.11 620.41 1107.32 603.52
  Q 1114.29 588.66 1117.21 573.49
  Q 1121.00 553.85 1120.49 531.31
  C 1120.39 526.65 1119.71 522.28 1119.33 517.64
  Q 1118.90 512.39 1117.71 507.36
  Q 1113.17 488.25 1108.35 477.14
  Q 1097.75 452.71 1076.70 429.51
  C 1073.34 425.81 1069.29 422.61 1065.67 419.18
  Q 1062.01 415.71 1057.22 412.39
  Q 1027.77 391.99 995.16 383.94
  C 982.83 380.90 969.88 379.86 957.49 379.87
  C 952.15 379.87 946.86 380.56 941.54 380.86
  Q 935.68 381.19 930.02 382.51
  Q 914.25 386.20 900.96 391.38
  Q 882.98 398.39 864.42 411.68
  Q 852.86 419.95 843.72 430.22
  Q 836.89 437.87 830.35 445.76
  Q 826.28 450.66 823.20 456.27
  C 819.17 463.60 815.11 470.81 811.75 478.41
  Q 809.80 482.82 808.79 486.81
  Q 806.30 496.70 803.95 506.68
  Q 802.88 511.23 802.09 516.37
  Q 801.01 523.31 800.73 526.11
  Q 798.65 546.92 802.50 567.49
  Q 807.72 595.39 820.29 617.29
  Z"
/>
<path fill="#f6f4ee" d="
  M 1107.32 603.52
  Q 1105.37 604.09 1103.63 604.48
  Q 1102.97 604.62 1102.32 604.88
  Q 1101.27 605.30 1100.42 604.50
  Q 1100.09 604.19 1099.64 604.17
  Q 1093.78 603.95 1087.75 603.60
  C 1086.19 603.51 1085.17 602.36 1084.18 601.25
  C 1090.05 588.81 1094.77 575.37 1096.66 562.00
  Q 1097.99 552.57 1098.22 542.23
  Q 1099.27 496.20 1072.01 458.71
  C 1057.08 438.19 1038.16 423.73 1014.88 413.32
  Q 982.86 399.00 946.57 402.12
  C 935.65 403.06 924.10 406.00 913.83 409.44
  Q 899.22 414.33 885.08 423.46
  Q 871.51 432.22 857.54 447.42
  Q 835.66 471.24 827.31 503.45
  Q 825.05 512.19 823.66 523.24
  C 819.67 555.00 826.91 585.23 843.57 612.51
  Q 843.65 612.88 843.58 613.09
  Q 843.50 613.34 842.87 613.59
  Q 842.50 613.73 842.28 613.41
  Q 841.97 612.96 841.50 613.24
  Q 840.33 613.92 838.95 614.12
  C 837.23 614.37 835.45 615.67 833.89 616.44
  A 1.28 1.27 -50.3 0 1 832.98 616.53
  Q 832.75 616.47 832.52 616.42
  Q 832.03 616.31 831.53 616.53
  Q 829.86 617.23 827.77 616.88
  Q 827.24 616.79 826.86 617.19
  Q 825.61 618.50 824.00 619.07
  A 0.45 0.44 -33.8 0 1 823.57 618.99
  Q 821.85 617.52 820.29 617.29
  Q 807.72 595.39 802.50 567.49
  Q 798.65 546.92 800.73 526.11
  Q 801.01 523.31 802.09 516.37
  Q 802.88 511.23 803.95 506.68
  Q 806.30 496.70 808.79 486.81
  Q 809.80 482.82 811.75 478.41
  C 815.11 470.81 819.17 463.60 823.20 456.27
  Q 826.28 450.66 830.35 445.76
  Q 836.89 437.87 843.72 430.22
  Q 852.86 419.95 864.42 411.68
  Q 882.98 398.39 900.96 391.38
  Q 914.25 386.20 930.02 382.51
  Q 935.68 381.19 941.54 380.86
  C 946.86 380.56 952.15 379.87 957.49 379.87
  C 969.88 379.86 982.83 380.90 995.16 383.94
  Q 1027.77 391.99 1057.22 412.39
  Q 1062.01 415.71 1065.67 419.18
  C 1069.29 422.61 1073.34 425.81 1076.70 429.51
  Q 1097.75 452.71 1108.35 477.14
  Q 1113.17 488.25 1117.71 507.36
  Q 1118.90 512.39 1119.33 517.64
  C 1119.71 522.28 1120.39 526.65 1120.49 531.31
  Q 1121.00 553.85 1117.21 573.49
  Q 1114.29 588.66 1107.32 603.52
  Z"
/>
<path fill="#31302e" d="
  M 1084.18 601.25
  Q 1063.76 643.04 1021.25 663.46
  Q 999.64 673.84 977.71 676.11
  C 961.59 677.78 945.83 677.53 930.12 673.68
  C 907.86 668.22 887.46 659.16 870.14 643.77
  Q 854.71 630.05 843.57 612.51
  C 826.91 585.23 819.67 555.00 823.66 523.24
  Q 825.05 512.19 827.31 503.45
  Q 835.66 471.24 857.54 447.42
  Q 871.51 432.22 885.08 423.46
  Q 899.22 414.33 913.83 409.44
  C 924.10 406.00 935.65 403.06 946.57 402.12
  Q 982.86 399.00 1014.88 413.32
  C 1038.16 423.73 1057.08 438.19 1072.01 458.71
  Q 1099.27 496.20 1098.22 542.23
  Q 1097.99 552.57 1096.66 562.00
  C 1094.77 575.37 1090.05 588.81 1084.18 601.25
  Z
  M 1002.33 488.53
  C 1001.95 489.56 1000.60 490.71 1000.37 491.72
  Q 998.23 501.05 996.96 504.74
  C 992.25 518.39 983.11 528.43 971.05 536.14
  Q 969.74 536.98 971.29 537.13
  C 996.19 539.59 1016.20 528.46 1028.90 507.71
  Q 1034.82 498.04 1036.69 485.99
  C 1038.87 471.91 1037.07 459.75 1033.50 446.33
  A 1.73 1.73 0.0 0 0 1032.01 445.04
  Q 991.40 440.38 962.98 466.98
  C 956.96 472.61 951.61 479.83 949.08 487.80
  C 945.22 500.00 943.23 510.88 946.07 523.61
  Q 947.05 527.97 948.03 532.21
  Q 948.22 533.01 949.00 532.75
  C 963.39 527.96 976.87 518.21 983.76 504.46
  C 986.10 499.79 987.82 494.36 989.42 489.25
  Q 997.43 463.70 1022.96 455.40
  Q 1024.00 455.06 1024.44 456.06
  Q 1025.57 458.63 1025.42 461.44
  Q 1025.39 461.91 1024.99 462.15
  C 1014.16 468.62 1006.77 476.37 1002.33 488.53
  Z
  M 924.22 517.90
  A 11.98 11.98 0.0 0 0 912.24 505.92
  A 11.98 11.98 0.0 0 0 900.26 517.90
  A 11.98 11.98 0.0 0 0 912.24 529.88
  A 11.98 11.98 0.0 0 0 924.22 517.90
  Z
  M 983.20 641.39
  C 1007.85 636.32 1029.57 622.41 1044.83 602.93
  Q 1065.61 576.40 1067.29 541.63
  Q 1067.99 527.04 1064.15 513.36
  Q 1063.70 511.79 1062.92 513.22
  Q 1058.62 521.01 1052.52 527.78
  C 1035.64 545.53 1013.78 555.77 990.00 559.92
  Q 985.55 560.70 981.13 561.33
  Q 939.32 567.33 901.05 551.31
  C 882.45 543.52 866.88 530.26 857.56 512.39
  Q 857.18 511.66 856.99 512.46
  C 852.79 530.36 852.04 547.02 856.99 564.72
  Q 864.76 592.49 885.28 613.98
  C 897.66 626.94 912.87 635.16 929.99 640.26
  Q 938.48 642.79 949.69 643.49
  Q 966.54 644.55 983.20 641.39
  Z"
/>
<path fill="#f6f4ee" d="
  M 1002.33 488.53
  C 1006.77 476.37 1014.16 468.62 1024.99 462.15
  Q 1025.39 461.91 1025.42 461.44
  Q 1025.57 458.63 1024.44 456.06
  Q 1024.00 455.06 1022.96 455.40
  Q 997.43 463.70 989.42 489.25
  C 987.82 494.36 986.10 499.79 983.76 504.46
  C 976.87 518.21 963.39 527.96 949.00 532.75
  Q 948.22 533.01 948.03 532.21
  Q 947.05 527.97 946.07 523.61
  C 943.23 510.88 945.22 500.00 949.08 487.80
  C 951.61 479.83 956.96 472.61 962.98 466.98
  Q 991.40 440.38 1032.01 445.04
  A 1.73 1.73 0.0 0 1 1033.50 446.33
  C 1037.07 459.75 1038.87 471.91 1036.69 485.99
  Q 1034.82 498.04 1028.90 507.71
  C 1016.20 528.46 996.19 539.59 971.29 537.13
  Q 969.74 536.98 971.05 536.14
  C 983.11 528.43 992.25 518.39 996.96 504.74
  Q 998.23 501.05 1000.37 491.72
  C 1000.60 490.71 1001.95 489.56 1002.33 488.53
  Z"
/>
<circle fill="#f6f4ee" cx="912.24" cy="517.90" r="11.98"/>
<path fill="#f6f4ee" d="
  M 1052.52 527.78
  Q 1052.95 532.00 1051.18 538.25
  Q 1048.66 547.17 1046.34 553.68
  Q 1043.77 560.88 1039.27 568.42
  Q 1027.00 588.95 1005.33 603.08
  Q 986.13 615.58 963.68 618.65
  Q 936.85 622.32 912.79 612.02
  Q 908.88 610.34 905.90 608.50
  C 902.05 606.13 898.03 603.97 894.55 600.98
  Q 892.24 599.00 889.50 597.16
  Q 888.66 596.60 888.26 597.62
  A 1.07 1.06 37.7 0 0 888.39 598.63
  Q 890.58 601.75 893.41 604.46
  C 897.24 608.12 901.47 610.98 905.51 614.29
  Q 908.67 616.89 912.29 619.10
  Q 925.11 626.95 941.23 633.51
  Q 949.16 636.73 957.24 638.24
  Q 966.23 639.91 975.37 640.47
  Q 977.27 640.59 979.14 640.37
  Q 981.00 640.16 982.81 640.05
  Q 983.38 640.02 983.31 640.59
  L 983.20 641.39
  Q 966.54 644.55 949.69 643.49
  Q 938.48 642.79 929.99 640.26
  C 912.87 635.16 897.66 626.94 885.28 613.98
  Q 864.76 592.49 856.99 564.72
  C 852.04 547.02 852.79 530.36 856.99 512.46
  Q 857.18 511.66 857.56 512.39
  C 866.88 530.26 882.45 543.52 901.05 551.31
  Q 939.32 567.33 981.13 561.33
  Q 985.55 560.70 990.00 559.92
  C 1013.78 555.77 1035.64 545.53 1052.52 527.78
  Z"
/>
<path fill="#d6d4cf" d="
  M 983.20 641.39
  L 983.31 640.59
  Q 983.38 640.02 982.81 640.05
  Q 981.00 640.16 979.14 640.37
  Q 977.27 640.59 975.37 640.47
  Q 966.23 639.91 957.24 638.24
  Q 949.16 636.73 941.23 633.51
  Q 925.11 626.95 912.29 619.10
  Q 908.67 616.89 905.51 614.29
  C 901.47 610.98 897.24 608.12 893.41 604.46
  Q 890.58 601.75 888.39 598.63
  A 1.07 1.06 37.7 0 1 888.26 597.62
  Q 888.66 596.60 889.50 597.16
  Q 892.24 599.00 894.55 600.98
  C 898.03 603.97 902.05 606.13 905.90 608.50
  Q 908.88 610.34 912.79 612.02
  Q 936.85 622.32 963.68 618.65
  Q 986.13 615.58 1005.33 603.08
  Q 1027.00 588.95 1039.27 568.42
  Q 1043.77 560.88 1046.34 553.68
  Q 1048.66 547.17 1051.18 538.25
  Q 1052.95 532.00 1052.52 527.78
  Q 1058.62 521.01 1062.92 513.22
  Q 1063.70 511.79 1064.15 513.36
  Q 1067.99 527.04 1067.29 541.63
  Q 1065.61 576.40 1044.83 602.93
  C 1029.57 622.41 1007.85 636.32 983.20 641.39
  Z"
/>
<path fill="#d6d4cf" d="
  M 1084.18 601.25
  C 1085.17 602.36 1086.19 603.51 1087.75 603.60
  Q 1093.78 603.95 1099.64 604.17
  Q 1100.09 604.19 1100.42 604.50
  Q 1101.27 605.30 1102.32 604.88
  Q 1102.97 604.62 1103.63 604.48
  Q 1105.37 604.09 1107.32 603.52
  Q 1100.11 620.41 1091.06 633.07
  Q 1064.24 670.60 1020.05 688.47
  Q 1015.25 690.41 1010.32 691.75
  C 1005.92 692.95 1001.66 694.59 997.21 695.49
  Q 991.22 696.72 984.86 697.85
  C 979.36 698.82 973.81 698.85 968.21 699.23
  Q 957.22 699.99 941.52 698.28
  Q 908.38 694.67 881.16 679.25
  C 872.57 674.38 863.10 667.96 855.89 661.49
  Q 839.89 647.11 828.27 630.50
  C 825.31 626.28 822.83 621.79 820.29 617.29
  Q 821.85 617.52 823.57 618.99
  A 0.45 0.44 -33.8 0 0 824.00 619.07
  Q 825.61 618.50 826.86 617.19
  Q 827.24 616.79 827.77 616.88
  Q 829.86 617.23 831.53 616.53
  Q 832.03 616.31 832.52 616.42
  Q 832.75 616.47 832.98 616.53
  A 1.28 1.27 -50.3 0 0 833.89 616.44
  C 835.45 615.67 837.23 614.37 838.95 614.12
  Q 840.33 613.92 841.50 613.24
  Q 841.97 612.96 842.28 613.41
  Q 842.50 613.73 842.87 613.59
  Q 843.50 613.34 843.58 613.09
  Q 843.65 612.88 843.57 612.51
  Q 854.71 630.05 870.14 643.77
  C 887.46 659.16 907.86 668.22 930.12 673.68
  C 945.83 677.53 961.59 677.78 977.71 676.11
  Q 999.64 673.84 1021.25 663.46
  Q 1063.76 643.04 1084.18 601.25
  Z"
/>
</svg>
