<?xml version="1.0" encoding="UTF-8"?>
<!DOCTYPE svg PUBLIC "-//W3C//DTD SVG 1.1//EN" "http://www.w3.org/Graphics/SVG/1.1/DTD/svg11.dtd">
<svg xmlns="http://www.w3.org/2000/svg" version="1.1" width="1920px" height="1080px" style="shape-rendering:geometricPrecision; text-rendering:geometricPrecision; image-rendering:optimizeQuality; fill-rule:evenodd; clip-rule:evenodd" xmlns:xlink="http://www.w3.org/1999/xlink">
<g><path style="opacity:1" fill="#4c4b48" d="M 987.5,359.5 C 994.254,359.387 1000.92,360.053 1007.5,361.5C 1015.1,363.034 1022.43,365.367 1029.5,368.5C 1029.91,369.643 1030.57,370.643 1031.5,371.5C 1042.83,377.496 1053.83,383.996 1064.5,391C 1067.42,392.15 1070.42,392.983 1073.5,393.5C 1089.96,405.621 1103.62,420.288 1114.5,437.5C 1071.72,412.362 1028.89,387.362 986,362.5C 985.586,362.957 985.086,363.291 984.5,363.5C 983.511,367.107 983.177,370.774 983.5,374.5C 982.355,370.689 982.188,366.689 983,362.5C 984.129,360.859 985.629,359.859 987.5,359.5 Z"/></g>
<g><path style="opacity:0.125" fill="#191917" d="M 987.5,359.5 C 994.354,357.961 1001.02,358.627 1007.5,361.5C 1000.92,360.053 994.254,359.387 987.5,359.5 Z"/></g>
<g><path style="opacity:1" fill="#565551" d="M 901.5,391.5 C 898.215,391.928 895.215,392.928 892.5,394.5C 891.292,395.234 889.959,395.567 888.5,395.5C 881.528,396.508 874.528,396.675 867.5,396C 865.734,391.362 866.401,387.196 869.5,383.5C 869.5,382.167 870.167,381.5 871.5,381.5C 873.853,380.66 875.853,379.326 877.5,377.5C 895.432,366.042 915.098,361.042 936.5,362.5C 936.519,364.06 936.852,365.56 937.5,367C 936.038,371.474 933.371,375.14 929.5,378C 920.837,383.831 911.503,388.331 901.5,391.5 Z"/></g>
<g><path style="opacity:1" fill="#565552" d="M 1114.5,437.5 C 1124.5,451.815 1131.84,467.482 1136.5,484.5C 1134.71,482.574 1133.71,480.241 1133.5,477.5C 1129.1,474.967 1124.43,472.967 1119.5,471.5C 1116.43,463.014 1112.1,455.347 1106.5,448.5C 1103.21,443.54 1099.21,439.207 1094.5,435.5C 1091.67,433.252 1088.67,431.252 1085.5,429.5C 1080.68,426.437 1075.35,424.437 1069.5,423.5C 1065.83,423.5 1062.17,423.5 1058.5,423.5C 1052.99,418.745 1046.66,415.579 1039.5,414C 1023.08,404.041 1006.58,394.207 990,384.5C 989.865,386.922 990.365,389.255 991.5,391.5C 987.532,386.558 984.865,380.891 983.5,374.5C 983.177,370.774 983.511,367.107 984.5,363.5C 985.086,363.291 985.586,362.957 986,362.5C 1028.89,387.362 1071.72,412.362 1114.5,437.5 Z"/></g>
<g><path style="opacity:1" fill="#383734" d="M 1029.5,368.5 C 1045.66,374.246 1060.33,382.579 1073.5,393.5C 1070.42,392.983 1067.42,392.15 1064.5,391C 1053.83,383.996 1042.83,377.496 1031.5,371.5C 1030.57,370.643 1029.91,369.643 1029.5,368.5 Z"/></g>
<g><path style="opacity:0.082" fill="#141312" d="M 877.5,377.5 C 875.853,379.326 873.853,380.66 871.5,381.5C 872.802,379.178 874.802,377.845 877.5,377.5 Z"/></g>
<g><path style="opacity:0.02" fill="#141412" d="M 901.5,391.5 C 898.916,393.472 895.916,394.472 892.5,394.5C 895.215,392.928 898.215,391.928 901.5,391.5 Z"/></g>
<g><path style="opacity:0.859" fill="#30302d" d="M 869.5,383.5 C 866.401,387.196 865.734,391.362 867.5,396C 874.528,396.675 881.528,396.508 888.5,395.5C 883.582,397.067 878.415,398.067 873,398.5C 870.205,397.815 867.372,397.315 864.5,397C 861.385,390.89 863.052,386.39 869.5,383.5 Z"/></g>
<g><path style="opacity:0.004" fill="#1c1c1b" d="M 1000.5,405.5 C 1002.53,406.539 1003.86,408.205 1004.5,410.5C 1002.46,409.421 1001.12,407.754 1000.5,405.5 Z"/></g>
<g><path style="opacity:1" fill="#61605d" d="M 1058.5,423.5 C 1046.89,427.79 1039.89,436.124 1037.5,448.5C 1037.67,449.492 1037.34,450.158 1036.5,450.5C 1036.79,448.712 1036.45,447.045 1035.5,445.5C 1033.41,443.753 1031.74,441.753 1030.5,439.5C 1029.83,438.167 1028.83,437.167 1027.5,436.5C 1025.17,435.5 1023.5,433.833 1022.5,431.5C 1020.91,428.236 1018.57,425.569 1015.5,423.5C 1011.43,419.441 1007.77,415.107 1004.5,410.5C 1003.86,408.205 1002.53,406.539 1000.5,405.5C 996.506,401.521 993.506,396.855 991.5,391.5C 990.365,389.255 989.865,386.922 990,384.5C 1006.58,394.207 1023.08,404.041 1039.5,414C 1046.66,415.579 1052.99,418.745 1058.5,423.5 Z"/></g>
<g><path style="opacity:1" fill="#cccac5" d="M 1058.5,423.5 C 1062.17,423.5 1065.83,423.5 1069.5,423.5C 1069.82,439.911 1069.48,456.244 1068.5,472.5C 1058.45,465.63 1049.12,457.797 1040.5,449C 1039.55,448.517 1038.55,448.351 1037.5,448.5C 1039.89,436.124 1046.89,427.79 1058.5,423.5 Z"/></g>
<g><path style="opacity:0.039" fill="#20201f" d="M 1015.5,423.5 C 1018.57,425.569 1020.91,428.236 1022.5,431.5C 1019.43,429.431 1017.09,426.764 1015.5,423.5 Z"/></g>
<g><path style="opacity:1" fill="#c1bfba" d="M 1069.5,423.5 C 1075.35,424.437 1080.68,426.437 1085.5,429.5C 1085.5,447.833 1085.5,466.167 1085.5,484.5C 1079.27,481.27 1073.61,477.27 1068.5,472.5C 1069.48,456.244 1069.82,439.911 1069.5,423.5 Z"/></g>
<g><path style="opacity:0.145" fill="#171616" d="M 829.5,430.5 C 836.354,428.961 843.02,429.627 849.5,432.5C 848.167,432.5 846.833,432.5 845.5,432.5C 840.432,430.822 835.098,430.156 829.5,430.5 Z"/></g>
<g><path style="opacity:1" fill="#787773" d="M 829.5,430.5 C 835.098,430.156 840.432,430.822 845.5,432.5C 822.302,443.203 807.136,460.869 800,485.5C 792.269,518.223 800.436,546.389 824.5,570C 839.013,582.919 856.013,590.419 875.5,592.5C 875.833,592.5 876.167,592.5 876.5,592.5C 877.499,595.162 878.499,597.828 879.5,600.5C 839.482,598.721 810.982,579.388 794,542.5C 788.755,527.938 786.755,512.938 788,497.5C 789.517,489.384 791.35,481.384 793.5,473.5C 801.532,455.722 813.532,441.389 829.5,430.5 Z"/></g>
<g><path style="opacity:1" fill="#b8b7b2" d="M 1085.5,429.5 C 1088.67,431.252 1091.67,433.252 1094.5,435.5C 1094.5,453.833 1094.5,472.167 1094.5,490.5C 1093.83,490.5 1093.17,490.5 1092.5,490.5C 1090.17,488.5 1087.83,486.5 1085.5,484.5C 1085.5,466.167 1085.5,447.833 1085.5,429.5 Z"/></g>
<g><path style="opacity:0.998" fill="#5e5c59" d="M 829.5,430.5 C 813.532,441.389 801.532,455.722 793.5,473.5C 792.833,473.833 792.167,474.167 791.5,474.5C 793.883,468.196 796.383,461.863 799,455.5C 800.699,452.079 802.865,449.079 805.5,446.5C 809.167,443.5 812.5,440.167 815.5,436.5C 819.365,432.907 824.032,430.907 829.5,430.5 Z"/></g>
<g><path style="opacity:1" fill="#7e7d79" d="M 845.5,432.5 C 846.833,432.5 848.167,432.5 849.5,432.5C 850.492,432.328 851.158,432.662 851.5,433.5C 852.93,434.537 854.597,435.204 856.5,435.5C 857.492,435.328 858.158,435.662 858.5,436.5C 858.5,436.833 858.5,437.167 858.5,437.5C 828.481,447.712 811.314,468.712 807,500.5C 805.761,539.913 823.594,566.413 860.5,580C 863.343,580.446 866.176,580.946 869,581.5C 870.07,581.472 870.903,581.139 871.5,580.5C 873.405,584.216 874.739,588.216 875.5,592.5C 856.013,590.419 839.013,582.919 824.5,570C 800.436,546.389 792.269,518.223 800,485.5C 807.136,460.869 822.302,443.203 845.5,432.5 Z"/></g>
<g><path style="opacity:0.004" fill="#171717" d="M 851.5,433.5 C 853.698,433.12 855.365,433.787 856.5,435.5C 854.597,435.204 852.93,434.537 851.5,433.5 Z"/></g>
<g><path style="opacity:0.082" fill="#1e1d1c" d="M 858.5,437.5 C 858.5,437.167 858.5,436.833 858.5,436.5C 860.38,436.229 861.713,436.896 862.5,438.5C 861.167,438.167 859.833,437.833 858.5,437.5 Z"/></g>
<g><path style="opacity:1" fill="#82817d" d="M 858.5,437.5 C 859.833,437.833 861.167,438.167 862.5,438.5C 863.71,438.932 864.71,439.599 865.5,440.5C 835.43,448.408 817.597,467.741 812,498.5C 810.057,539.634 828.891,565.634 868.5,576.5C 869.416,576.457 870.083,576.124 870.5,575.5C 870.833,575.5 871.167,575.5 871.5,575.5C 871.5,577.167 871.5,578.833 871.5,580.5C 870.903,581.139 870.07,581.472 869,581.5C 866.176,580.946 863.343,580.446 860.5,580C 823.594,566.413 805.761,539.913 807,500.5C 811.314,468.712 828.481,447.712 858.5,437.5 Z"/></g>
<g><path style="opacity:0.004" fill="#12120f" d="M 1027.5,436.5 C 1028.83,437.167 1029.83,438.167 1030.5,439.5C 1028.5,439.5 1027.5,438.5 1027.5,436.5 Z"/></g>
<g><path style="opacity:1" fill="#878581" d="M 865.5,440.5 C 867.027,440.427 868.027,441.094 868.5,442.5C 869.436,443.974 870.77,444.974 872.5,445.5C 874.23,446.026 875.564,447.026 876.5,448.5C 852.692,450.147 835.858,461.814 826,483.5C 815.165,515.321 823.331,540.821 850.5,560C 856.462,563.265 862.795,565.432 869.5,566.5C 870.159,569.455 870.492,572.455 870.5,575.5C 870.083,576.124 869.416,576.457 868.5,576.5C 828.891,565.634 810.057,539.634 812,498.5C 817.597,467.741 835.43,448.408 865.5,440.5 Z"/></g>
<g><path style="opacity:0.545" fill="#2b2a28" d="M 815.5,436.5 C 812.5,440.167 809.167,443.5 805.5,446.5C 807.833,442.167 811.167,438.833 815.5,436.5 Z"/></g>
<g><path style="opacity:1" fill="#adaca7" d="M 1094.5,435.5 C 1099.21,439.207 1103.21,443.54 1106.5,448.5C 1106.5,464.833 1106.5,481.167 1106.5,497.5C 1102.14,495.656 1098.14,493.323 1094.5,490.5C 1094.5,472.167 1094.5,453.833 1094.5,435.5 Z"/></g>
<g><path style="opacity:0.098" fill="#1c1c1b" d="M 868.5,442.5 C 870.632,442.554 871.965,443.554 872.5,445.5C 870.77,444.974 869.436,443.974 868.5,442.5 Z"/></g>
<g><path style="opacity:1" fill="#8c8b87" d="M 876.5,448.5 C 877.539,450.531 879.205,451.864 881.5,452.5C 882.833,453.167 883.833,454.167 884.5,455.5C 884.5,455.833 884.5,456.167 884.5,456.5C 861.386,453.986 844.219,463.319 833,484.5C 821.853,514.056 829.353,537.556 855.5,555C 859.741,556.704 863.907,558.538 868,560.5C 868.186,557.964 868.686,555.631 869.5,553.5C 869.5,553.833 869.5,554.167 869.5,554.5C 869.5,558.5 869.5,562.5 869.5,566.5C 862.795,565.432 856.462,563.265 850.5,560C 823.331,540.821 815.165,515.321 826,483.5C 835.858,461.814 852.692,450.147 876.5,448.5 Z"/></g>
<g><path style="opacity:0.471" fill="#373635" d="M 876.5,448.5 C 878.754,449.124 880.421,450.457 881.5,452.5C 879.205,451.864 877.539,450.531 876.5,448.5 Z"/></g>
<g><path style="opacity:1" fill="#d7d6d0" d="M 1037.5,448.5 C 1038.55,448.351 1039.55,448.517 1040.5,449C 1049.12,457.797 1058.45,465.63 1068.5,472.5C 1073.61,477.27 1079.27,481.27 1085.5,484.5C 1087.83,486.5 1090.17,488.5 1092.5,490.5C 1091.66,492.173 1090.32,493.34 1088.5,494C 1076.07,498.71 1064.07,497.71 1052.5,491C 1046.1,485.458 1040.77,479.291 1036.5,472.5C 1036.5,472.167 1036.5,471.833 1036.5,471.5C 1036.5,464.5 1036.5,457.5 1036.5,450.5C 1037.34,450.158 1037.67,449.492 1037.5,448.5 Z"/></g>
<g><path style="opacity:0.004" fill="#181716" d="M 884.5,456.5 C 884.5,456.167 884.5,455.833 884.5,455.5C 886.833,455.833 888.167,457.167 888.5,459.5C 887.167,458.5 885.833,457.5 884.5,456.5 Z"/></g>
<g><path style="opacity:1" fill="#92908c" d="M 884.5,456.5 C 885.833,457.5 887.167,458.5 888.5,459.5C 889.167,460.833 890.167,461.833 891.5,462.5C 892.167,463.833 893.167,464.833 894.5,465.5C 894.557,466.609 894.89,467.609 895.5,468.5C 872.334,462.535 854.834,469.869 843,490.5C 836.052,509.54 839.885,526.04 854.5,540C 858.964,543.565 863.964,546.065 869.5,547.5C 869.5,549.5 869.5,551.5 869.5,553.5C 868.686,555.631 868.186,557.964 868,560.5C 863.907,558.538 859.741,556.704 855.5,555C 829.353,537.556 821.853,514.056 833,484.5C 844.219,463.319 861.386,453.986 884.5,456.5 Z"/></g>
<g><path style="opacity:0.659" fill="#595754" d="M 1036.5,450.5 C 1036.5,457.5 1036.5,464.5 1036.5,471.5C 1035.64,468.177 1034.97,464.677 1034.5,461C 1034.97,457.323 1035.64,453.823 1036.5,450.5 Z"/></g>
<g><path style="opacity:0.012" fill="#1a1a19" d="M 888.5,459.5 C 890.5,459.5 891.5,460.5 891.5,462.5C 890.167,461.833 889.167,460.833 888.5,459.5 Z"/></g>
<g><path style="opacity:0.004" fill="#161615" d="M 891.5,462.5 C 893.5,462.5 894.5,463.5 894.5,465.5C 893.167,464.833 892.167,463.833 891.5,462.5 Z"/></g>
<g><path style="opacity:0.729" fill="#31302e" d="M 894.5,465.5 C 897.573,467.569 899.906,470.236 901.5,473.5C 899.5,471.833 897.5,470.167 895.5,468.5C 894.89,467.609 894.557,466.609 894.5,465.5 Z"/></g>
<g><path style="opacity:1" fill="#9b9a95" d="M 1106.5,448.5 C 1112.1,455.347 1116.43,463.014 1119.5,471.5C 1123.62,482.092 1125.28,493.092 1124.5,504.5C 1123.61,503.89 1122.61,503.557 1121.5,503.5C 1116.34,501.89 1111.34,499.89 1106.5,497.5C 1106.5,481.167 1106.5,464.833 1106.5,448.5 Z"/></g>
<g><path style="opacity:1" fill="#979691" d="M 895.5,468.5 C 897.5,470.167 899.5,471.833 901.5,473.5C 901.738,475.404 902.738,476.738 904.5,477.5C 906.262,478.262 907.262,479.596 907.5,481.5C 907.557,482.609 907.89,483.609 908.5,484.5C 907.215,486.452 905.549,488.118 903.5,489.5C 902.199,486.152 899.866,483.652 896.5,482C 874.887,473.476 859.887,479.976 851.5,501.5C 849.459,517.717 856.125,529.384 871.5,536.5C 870.735,539.096 870.401,541.763 870.5,544.5C 870.443,545.609 870.11,546.609 869.5,547.5C 863.964,546.065 858.964,543.565 854.5,540C 839.885,526.04 836.052,509.54 843,490.5C 854.834,469.869 872.334,462.535 895.5,468.5 Z"/></g>
<g><path style="opacity:1" fill="#62605d" d="M 967.5,472.5 C 969.905,473.768 972.572,474.435 975.5,474.5C 999.019,479.828 1017.19,492.828 1030,513.5C 1030.48,514.448 1030.65,515.448 1030.5,516.5C 996.518,490.674 959.185,484.341 918.5,497.5C 915.409,492.986 912.075,488.653 908.5,484.5C 907.89,483.609 907.557,482.609 907.5,481.5C 908.482,482.141 909.482,482.807 910.5,483.5C 916.962,479.466 923.962,476.799 931.5,475.5C 943.337,472.93 955.337,471.93 967.5,472.5 Z"/></g>
<g><path style="opacity:1" fill="#cdcbc6" d="M 1036.5,472.5 C 1040.77,479.291 1046.1,485.458 1052.5,491C 1064.07,497.71 1076.07,498.71 1088.5,494C 1090.32,493.34 1091.66,492.173 1092.5,490.5C 1093.17,490.5 1093.83,490.5 1094.5,490.5C 1098.14,493.323 1102.14,495.656 1106.5,497.5C 1111.34,499.89 1116.34,501.89 1121.5,503.5C 1116.99,510.276 1110.99,515.443 1103.5,519C 1092.08,524.356 1080.08,526.522 1067.5,525.5C 1064.77,522.761 1061.77,520.427 1058.5,518.5C 1058.57,516.973 1057.91,515.973 1056.5,515.5C 1054.37,513.909 1052.7,511.909 1051.5,509.5C 1051.57,507.973 1050.91,506.973 1049.5,506.5C 1048.66,506.158 1048.33,505.492 1048.5,504.5C 1048.57,502.973 1047.91,501.973 1046.5,501.5C 1041.19,492.573 1037.86,482.906 1036.5,472.5 Z"/></g>
<g><path style="opacity:0.545" fill="#22211f" d="M 967.5,472.5 C 955.337,471.93 943.337,472.93 931.5,475.5C 934.842,473.665 938.509,472.498 942.5,472C 951.01,471.177 959.344,471.343 967.5,472.5 Z"/></g>
<g><path style="opacity:0.051" fill="#1d1d1b" d="M 967.5,472.5 C 970.495,472.294 973.162,472.96 975.5,474.5C 972.572,474.435 969.905,473.768 967.5,472.5 Z"/></g>
<g><path style="opacity:0.435" fill="#333230" d="M 901.5,473.5 C 903.262,474.262 904.262,475.596 904.5,477.5C 902.738,476.738 901.738,475.404 901.5,473.5 Z"/></g>
<g><path style="opacity:1" fill="#72706d" d="M 793.5,473.5 C 791.35,481.384 789.517,489.384 788,497.5C 786.755,512.938 788.755,527.938 794,542.5C 810.982,579.388 839.482,598.721 879.5,600.5C 881.167,602.5 882.833,604.5 884.5,606.5C 884.5,607.167 884.5,607.833 884.5,608.5C 840.409,609.331 808.242,589.664 788,549.5C 782.974,537.685 781.14,525.352 782.5,512.5C 782.5,511.5 782.5,510.5 782.5,509.5C 783.222,509.082 783.722,508.416 784,507.5C 784.501,503.49 785.001,499.49 785.5,495.5C 785.5,494.833 785.5,494.167 785.5,493.5C 787.31,490.855 788.31,487.855 788.5,484.5C 788.35,480.805 789.35,477.472 791.5,474.5C 792.167,474.167 792.833,473.833 793.5,473.5 Z"/></g>
<g><path style="opacity:1" fill="#9f9e99" d="M 903.5,489.5 C 902.5,489.833 901.833,490.5 901.5,491.5C 890.025,500.116 881.691,511.116 876.5,524.5C 874.842,528.413 873.176,532.413 871.5,536.5C 856.125,529.384 849.459,517.717 851.5,501.5C 859.887,479.976 874.887,473.476 896.5,482C 899.866,483.652 902.199,486.152 903.5,489.5 Z"/></g>
<g><path style="opacity:1" fill="#807e7a" d="M 908.5,484.5 C 912.075,488.653 915.409,492.986 918.5,497.5C 920.566,501.966 922.9,506.299 925.5,510.5C 925.557,511.609 925.89,512.609 926.5,513.5C 922.199,534.134 909.533,545.134 888.5,546.5C 882.926,546.753 877.593,545.753 872.5,543.5C 871.817,543.863 871.15,544.196 870.5,544.5C 870.401,541.763 870.735,539.096 871.5,536.5C 873.176,532.413 874.842,528.413 876.5,524.5C 881.15,528.087 886.484,529.254 892.5,528C 905.152,524.215 910.319,515.715 908,502.5C 906.314,498.448 904.148,494.781 901.5,491.5C 901.833,490.5 902.5,489.833 903.5,489.5C 905.549,488.118 907.215,486.452 908.5,484.5 Z"/></g>
<g><path style="opacity:0.431" fill="#2b2a27" d="M 788.5,484.5 C 788.31,487.855 787.31,490.855 785.5,493.5C 785.528,490.084 786.528,487.084 788.5,484.5 Z"/></g>
<g><path style="opacity:0.999" fill="#696764" d="M 1119.5,471.5 C 1124.43,472.967 1129.1,474.967 1133.5,477.5C 1133.71,480.241 1134.71,482.574 1136.5,484.5C 1136.5,484.833 1136.5,485.167 1136.5,485.5C 1137.27,490.797 1137.61,496.13 1137.5,501.5C 1136.31,503.975 1134.31,504.975 1131.5,504.5C 1129.17,504.5 1126.83,504.5 1124.5,504.5C 1125.28,493.092 1123.62,482.092 1119.5,471.5 Z"/></g>
<g><path style="opacity:1" fill="#888682" d="M 901.5,491.5 C 904.148,494.781 906.314,498.448 908,502.5C 910.319,515.715 905.152,524.215 892.5,528C 886.484,529.254 881.15,528.087 876.5,524.5C 881.691,511.116 890.025,500.116 901.5,491.5 Z"/></g>
<g><path style="opacity:0.814" fill="#353432" d="M 1136.5,485.5 C 1139.82,490.726 1140.16,496.06 1137.5,501.5C 1137.61,496.13 1137.27,490.797 1136.5,485.5 Z"/></g>
<g><path style="opacity:1" fill="#6b6a66" d="M 1030.5,516.5 C 1033.88,521.276 1036.22,526.609 1037.5,532.5C 1037.41,535.152 1038.08,537.485 1039.5,539.5C 1039.47,543.869 1039.8,548.202 1040.5,552.5C 1012.04,511.782 973.708,497.782 925.5,510.5C 922.9,506.299 920.566,501.966 918.5,497.5C 959.185,484.341 996.518,490.674 1030.5,516.5 Z"/></g>
<g><path style="opacity:0.094" fill="#2a2928" d="M 1046.5,501.5 C 1047.91,501.973 1048.57,502.973 1048.5,504.5C 1047.09,504.027 1046.43,503.027 1046.5,501.5 Z"/></g>
<g><path style="opacity:0.165" fill="#1a1a1a" d="M 1124.5,504.5 C 1126.83,504.5 1129.17,504.5 1131.5,504.5C 1129.74,505.461 1127.74,505.795 1125.5,505.5C 1125.74,506.791 1125.4,507.791 1124.5,508.5C 1124.5,507.167 1124.5,505.833 1124.5,504.5 Z"/></g>
<g><path style="opacity:0.906" fill="#3c3b39" d="M 785.5,495.5 C 785.001,499.49 784.501,503.49 784,507.5C 783.722,508.416 783.222,509.082 782.5,509.5C 782.498,504.5 783.498,499.833 785.5,495.5 Z"/></g>
<g><path style="opacity:0.059" fill="#1d1c1c" d="M 1049.5,506.5 C 1050.91,506.973 1051.57,507.973 1051.5,509.5C 1050.09,509.027 1049.43,508.027 1049.5,506.5 Z"/></g>
<g><path style="opacity:1" fill="#72716d" d="M 1040.5,552.5 C 1040.5,558.167 1040.5,563.833 1040.5,569.5C 1040.5,570.167 1040.5,570.833 1040.5,571.5C 1039.65,573.888 1038.65,576.221 1037.5,578.5C 1035.57,567.968 1031.41,558.302 1025,549.5C 1000.33,519.982 968.997,509.316 931,517.5C 928.849,516.833 927.349,515.5 926.5,513.5C 925.89,512.609 925.557,511.609 925.5,510.5C 973.708,497.782 1012.04,511.782 1040.5,552.5 Z"/></g>
<g><path style="opacity:1" fill="#bab8b3" d="M 1121.5,503.5 C 1122.61,503.557 1123.61,503.89 1124.5,504.5C 1124.5,505.833 1124.5,507.167 1124.5,508.5C 1124.63,510.292 1124.3,511.958 1123.5,513.5C 1122.26,515.214 1121.59,517.214 1121.5,519.5C 1121.67,520.492 1121.34,521.158 1120.5,521.5C 1119.33,522.514 1118.66,523.847 1118.5,525.5C 1118.5,526.167 1118.17,526.5 1117.5,526.5C 1116.17,527.167 1115.17,528.167 1114.5,529.5C 1114.5,529.833 1114.5,530.167 1114.5,530.5C 1112.97,530.427 1111.97,531.094 1111.5,532.5C 1111.03,533.906 1110.03,534.573 1108.5,534.5C 1106.6,534.796 1104.93,535.463 1103.5,536.5C 1097.85,539.06 1092.18,539.06 1086.5,536.5C 1084.32,534.415 1081.65,533.415 1078.5,533.5C 1077.51,533.672 1076.84,533.338 1076.5,532.5C 1075.79,530.799 1074.46,529.799 1072.5,529.5C 1072.17,529.5 1071.83,529.5 1071.5,529.5C 1070.74,527.738 1069.4,526.738 1067.5,526.5C 1067.5,526.167 1067.5,525.833 1067.5,525.5C 1080.08,526.522 1092.08,524.356 1103.5,519C 1110.99,515.443 1116.99,510.276 1121.5,503.5 Z"/></g>
<g><path style="opacity:1" fill="#787673" d="M 926.5,513.5 C 927.349,515.5 928.849,516.833 931,517.5C 968.997,509.316 1000.33,519.982 1025,549.5C 1031.41,558.302 1035.57,567.968 1037.5,578.5C 1036.61,581.054 1036.28,583.721 1036.5,586.5C 1035.07,587.78 1034.4,589.447 1034.5,591.5C 1034.31,595.102 1032.97,598.102 1030.5,600.5C 1030.7,565.384 1014.7,540.884 982.5,527C 966.817,520.999 950.817,519.999 934.5,524C 933.941,524.725 933.608,525.558 933.5,526.5C 934.178,528.516 934.844,530.516 935.5,532.5C 919.865,556.171 898.198,564.505 870.5,557.5C 870.737,556.209 870.404,555.209 869.5,554.5C 869.5,554.167 869.5,553.833 869.5,553.5C 869.5,551.5 869.5,549.5 869.5,547.5C 870.11,546.609 870.443,545.609 870.5,544.5C 871.15,544.196 871.817,543.863 872.5,543.5C 877.593,545.753 882.926,546.753 888.5,546.5C 909.533,545.134 922.199,534.134 926.5,513.5 Z"/></g>
<g><path style="opacity:0.012" fill="#232322" d="M 1056.5,515.5 C 1057.91,515.973 1058.57,516.973 1058.5,518.5C 1057.09,518.027 1056.43,517.027 1056.5,515.5 Z"/></g>
<g><path style="opacity:0.031" fill="#36362b" d="M 1123.5,513.5 C 1123.74,515.898 1123.07,517.898 1121.5,519.5C 1121.59,517.214 1122.26,515.214 1123.5,513.5 Z"/></g>
<g><path style="opacity:0.51" fill="#3c3b37" d="M 1058.5,518.5 C 1061.77,520.427 1064.77,522.761 1067.5,525.5C 1067.5,525.833 1067.5,526.167 1067.5,526.5C 1063.9,524.57 1060.9,521.903 1058.5,518.5 Z"/></g>
<g><path style="opacity:1" fill="#7e7d79" d="M 1030.5,600.5 C 1029.09,600.973 1028.43,601.973 1028.5,603.5C 1028.67,604.492 1028.34,605.158 1027.5,605.5C 1026.09,605.973 1025.43,606.973 1025.5,608.5C 1023.83,611.83 1021.5,614.497 1018.5,616.5C 1026.18,584.677 1016.84,559.177 990.5,540C 974.136,529.632 956.469,526.632 937.5,531C 936.748,531.671 936.414,532.504 936.5,533.5C 935.833,533.5 935.5,533.167 935.5,532.5C 934.844,530.516 934.178,528.516 933.5,526.5C 933.608,525.558 933.941,524.725 934.5,524C 950.817,519.999 966.817,520.999 982.5,527C 1014.7,540.884 1030.7,565.384 1030.5,600.5 Z"/></g>
<g><path style="opacity:0.055" fill="#232221" d="M 1120.5,521.5 C 1120.77,523.38 1120.1,524.713 1118.5,525.5C 1118.66,523.847 1119.33,522.514 1120.5,521.5 Z"/></g>
<g><path style="opacity:0.4" fill="#3d3c39" d="M 1067.5,526.5 C 1069.4,526.738 1070.74,527.738 1071.5,529.5C 1069.6,529.262 1068.26,528.262 1067.5,526.5 Z"/></g>
<g><path style="opacity:0.043" fill="#2e2d2c" d="M 1117.5,526.5 C 1117.5,528.5 1116.5,529.5 1114.5,529.5C 1115.17,528.167 1116.17,527.167 1117.5,526.5 Z"/></g>
<g><path style="opacity:1" fill="#85837f" d="M 1018.5,616.5 C 1018.5,617.167 1018.17,617.5 1017.5,617.5C 1016.17,618.167 1015.17,619.167 1014.5,620.5C 1013.17,621.167 1012.17,622.167 1011.5,623.5C 1009.88,625.641 1007.88,627.308 1005.5,628.5C 1020.55,597.376 1015.55,570.209 990.5,547C 974.647,535.457 956.98,531.624 937.5,535.5C 936.662,535.158 936.328,534.492 936.5,533.5C 936.414,532.504 936.748,531.671 937.5,531C 956.469,526.632 974.136,529.632 990.5,540C 1016.84,559.177 1026.18,584.677 1018.5,616.5 Z"/></g>
<g><path style="opacity:0.906" fill="#5d5c59" d="M 1072.5,529.5 C 1074.46,529.799 1075.79,530.799 1076.5,532.5C 1074.37,532.446 1073.03,531.446 1072.5,529.5 Z"/></g>
<g><path style="opacity:0.027" fill="#2c1f1e" d="M 1114.5,530.5 C 1114.03,531.906 1113.03,532.573 1111.5,532.5C 1111.97,531.094 1112.97,530.427 1114.5,530.5 Z"/></g>
<g><path style="opacity:0.855" fill="#4e4d4b" d="M 1078.5,533.5 C 1081.65,533.415 1084.32,534.415 1086.5,536.5C 1083.35,536.585 1080.68,535.585 1078.5,533.5 Z"/></g>
<g><path style="opacity:0.693" fill="#2e2d2c" d="M 781.5,518.5 C 781.5,527.833 781.5,537.167 781.5,546.5C 781.5,550.167 781.5,553.833 781.5,557.5C 778.866,544.498 778.866,531.498 781.5,518.5 Z"/></g>
<g><path style="opacity:0.004" fill="#1c1716" d="M 1108.5,534.5 C 1107.36,536.213 1105.7,536.88 1103.5,536.5C 1104.93,535.463 1106.6,534.796 1108.5,534.5 Z"/></g>
<g><path style="opacity:1" fill="#8a8985" d="M 1005.5,628.5 C 1004.71,629.401 1003.71,630.068 1002.5,630.5C 1000.85,630.66 999.514,631.326 998.5,632.5C 998.027,633.906 997.027,634.573 995.5,634.5C 993.847,634.66 992.514,635.326 991.5,636.5C 991.158,637.338 990.492,637.672 989.5,637.5C 987.447,637.402 985.78,638.069 984.5,639.5C 981.426,641.302 978.092,642.302 974.5,642.5C 998.595,628.297 1008.1,607.297 1003,579.5C 1000.63,571.093 996.466,563.759 990.5,557.5C 990.709,556.914 991.043,556.414 991.5,556C 977.268,542.021 960.268,536.855 940.5,540.5C 940.5,541.5 940.5,542.5 940.5,543.5C 938.98,541.11 937.98,538.443 937.5,535.5C 956.98,531.624 974.647,535.457 990.5,547C 1015.55,570.209 1020.55,597.376 1005.5,628.5 Z"/></g>
<g><path style="opacity:1" fill="#6d6c68" d="M 782.5,512.5 C 781.14,525.352 782.974,537.685 788,549.5C 808.242,589.664 840.409,609.331 884.5,608.5C 887.138,611.474 889.805,614.474 892.5,617.5C 844.137,620.652 807.637,601.319 783,559.5C 782.825,554.981 782.325,550.647 781.5,546.5C 781.5,537.167 781.5,527.833 781.5,518.5C 781.205,516.265 781.539,514.265 782.5,512.5 Z"/></g>
<g><path style="opacity:0.302" fill="#252321" d="M 1037.5,532.5 C 1038.92,534.515 1039.59,536.848 1039.5,539.5C 1038.08,537.485 1037.41,535.152 1037.5,532.5 Z"/></g>
<g><path style="opacity:1" fill="#71706c" d="M 935.5,532.5 C 935.5,533.167 935.833,533.5 936.5,533.5C 936.328,534.492 936.662,535.158 937.5,535.5C 937.98,538.443 938.98,541.11 940.5,543.5C 941.038,545.117 941.371,546.784 941.5,548.5C 923.024,570.215 899.691,578.215 871.5,572.5C 871.5,573.5 871.5,574.5 871.5,575.5C 871.167,575.5 870.833,575.5 870.5,575.5C 870.492,572.455 870.159,569.455 869.5,566.5C 869.5,562.5 869.5,558.5 869.5,554.5C 870.404,555.209 870.737,556.209 870.5,557.5C 898.198,564.505 919.865,556.171 935.5,532.5 Z"/></g>
<g><path style="opacity:1" fill="#969490" d="M 974.5,642.5 C 972.236,643.219 969.903,643.552 967.5,643.5C 965.167,643.5 962.833,643.5 960.5,643.5C 960.5,640.167 960.5,636.833 960.5,633.5C 974.606,628.564 984.773,619.231 991,605.5C 996.703,585.451 991.536,568.951 975.5,556C 968.096,551.588 960.096,549.088 951.5,548.5C 948.249,548.518 945.583,549.518 943.5,551.5C 942.833,550.5 942.167,549.5 941.5,548.5C 941.371,546.784 941.038,545.117 940.5,543.5C 940.5,542.5 940.5,541.5 940.5,540.5C 960.268,536.855 977.268,542.021 991.5,556C 991.043,556.414 990.709,556.914 990.5,557.5C 996.466,563.759 1000.63,571.093 1003,579.5C 1008.1,607.297 998.595,628.297 974.5,642.5 Z"/></g>
<g><path style="opacity:1" fill="#a2a19c" d="M 960.5,633.5 C 959.841,630.545 959.508,627.545 959.5,624.5C 959.492,621.455 959.159,618.455 958.5,615.5C 958.5,614.167 958.5,612.833 958.5,611.5C 959.309,613.292 959.809,615.292 960,617.5C 980.914,607.307 986.247,591.64 976,570.5C 968.397,561.116 958.564,556.782 946.5,557.5C 946.5,558.5 946.5,559.5 946.5,560.5C 944.747,557.854 943.747,554.854 943.5,551.5C 945.583,549.518 948.249,548.518 951.5,548.5C 960.096,549.088 968.096,551.588 975.5,556C 991.536,568.951 996.703,585.451 991,605.5C 984.773,619.231 974.606,628.564 960.5,633.5 Z"/></g>
<g><path style="opacity:0.494" fill="#333230" d="M 1039.5,539.5 C 1040.92,545.608 1041.59,551.941 1041.5,558.5C 1041.5,562.349 1041.17,566.016 1040.5,569.5C 1040.5,563.833 1040.5,558.167 1040.5,552.5C 1039.8,548.202 1039.47,543.869 1039.5,539.5 Z"/></g>
<g><path style="opacity:1" fill="#adaca7" d="M 958.5,611.5 C 957.743,608.209 957.076,604.876 956.5,601.5C 963.213,599.943 967.046,595.609 968,588.5C 968.563,575.56 962.397,568.227 949.5,566.5C 949.5,567.833 949.5,569.167 949.5,570.5C 948.833,570.5 948.5,570.167 948.5,569.5C 948.127,566.426 947.461,563.426 946.5,560.5C 946.5,559.5 946.5,558.5 946.5,557.5C 958.564,556.782 968.397,561.116 976,570.5C 986.247,591.64 980.914,607.307 960,617.5C 959.809,615.292 959.309,613.292 958.5,611.5 Z"/></g>
<g><path style="opacity:1" fill="#6b6966" d="M 941.5,548.5 C 942.167,549.5 942.833,550.5 943.5,551.5C 943.747,554.854 944.747,557.854 946.5,560.5C 947.461,563.426 948.127,566.426 948.5,569.5C 947.732,568.737 947.232,567.737 947,566.5C 927.094,585.168 903.594,593.835 876.5,592.5C 876.167,592.5 875.833,592.5 875.5,592.5C 874.739,588.216 873.405,584.216 871.5,580.5C 871.5,578.833 871.5,577.167 871.5,575.5C 871.5,574.5 871.5,573.5 871.5,572.5C 899.691,578.215 923.024,570.215 941.5,548.5 Z"/></g>
<g><path style="opacity:0.196" fill="#24231e" d="M 782.5,564.5 C 783.795,568.267 784.461,572.267 784.5,576.5C 783.011,572.764 782.344,568.764 782.5,564.5 Z"/></g>
<g><path style="opacity:1" fill="#666561" d="M 781.5,546.5 C 782.325,550.647 782.825,554.981 783,559.5C 807.637,601.319 844.137,620.652 892.5,617.5C 894.833,619.5 897.167,621.5 899.5,623.5C 899.5,623.833 899.5,624.167 899.5,624.5C 865.545,629.844 834.879,622.011 807.5,601C 799.588,594.253 792.254,587.086 785.5,579.5C 784.596,578.791 784.263,577.791 784.5,576.5C 784.461,572.267 783.795,568.267 782.5,564.5C 781.631,562.283 781.298,559.95 781.5,557.5C 781.5,553.833 781.5,550.167 781.5,546.5 Z"/></g>
<g><path style="opacity:1" fill="#bdbcb7" d="M 956.5,601.5 C 955.487,595.086 954.154,588.753 952.5,582.5C 951.5,578.499 950.5,574.499 949.5,570.5C 949.5,569.167 949.5,567.833 949.5,566.5C 962.397,568.227 968.563,575.56 968,588.5C 967.046,595.609 963.213,599.943 956.5,601.5 Z"/></g>
<g><path style="opacity:1" fill="#646360" d="M 948.5,569.5 C 948.5,570.167 948.833,570.5 949.5,570.5C 950.5,574.499 951.5,578.499 952.5,582.5C 951.883,582.389 951.383,582.056 951,581.5C 938.344,593.001 924.01,600.001 908,602.5C 900.138,604.238 892.305,605.572 884.5,606.5C 882.833,604.5 881.167,602.5 879.5,600.5C 878.499,597.828 877.499,595.162 876.5,592.5C 903.594,593.835 927.094,585.168 947,566.5C 947.232,567.737 947.732,568.737 948.5,569.5 Z"/></g>
<g><path style="opacity:0.994" fill="#3b3a38" d="M 1040.5,571.5 C 1040.55,576.977 1039.22,581.977 1036.5,586.5C 1036.28,583.721 1036.61,581.054 1037.5,578.5C 1038.65,576.221 1039.65,573.888 1040.5,571.5 Z"/></g>
<g><path style="opacity:0.988" fill="#353533" d="M 785.5,580.5 C 787.79,583.342 788.79,586.676 788.5,590.5C 786.32,587.619 785.32,584.286 785.5,580.5 Z"/></g>
<g><path style="opacity:1" fill="#61605c" d="M 785.5,580.5 C 785.5,580.167 785.5,579.833 785.5,579.5C 792.254,587.086 799.588,594.253 807.5,601C 834.879,622.011 865.545,629.844 899.5,624.5C 902.792,626.458 905.792,628.791 908.5,631.5C 906.328,632.934 904.161,633.267 902,632.5C 860.791,638.915 825.291,628.415 795.5,601C 794.255,600.209 792.922,599.709 791.5,599.5C 790.871,596.603 789.871,593.936 788.5,591.5C 788.5,591.167 788.5,590.833 788.5,590.5C 788.79,586.676 787.79,583.342 785.5,580.5 Z"/></g>
<g><path style="opacity:0.008" fill="#21211e" d="M 1036.5,586.5 C 1036.88,588.698 1036.21,590.365 1034.5,591.5C 1034.4,589.447 1035.07,587.78 1036.5,586.5 Z"/></g>
<g><path style="opacity:0.263" fill="#1b1b18" d="M 788.5,591.5 C 789.871,593.936 790.871,596.603 791.5,599.5C 791.5,599.833 791.5,600.167 791.5,600.5C 789.528,597.916 788.528,594.916 788.5,591.5 Z"/></g>
<g><path style="opacity:1" fill="#5e5d59" d="M 952.5,582.5 C 954.154,588.753 955.487,595.086 956.5,601.5C 947.66,607.088 938.327,611.921 928.5,616C 918.769,618.505 909.103,621.005 899.5,623.5C 897.167,621.5 894.833,619.5 892.5,617.5C 889.805,614.474 887.138,611.474 884.5,608.5C 884.5,607.833 884.5,607.167 884.5,606.5C 892.305,605.572 900.138,604.238 908,602.5C 924.01,600.001 938.344,593.001 951,581.5C 951.383,582.056 951.883,582.389 952.5,582.5 Z"/></g>
<g><path style="opacity:1" fill="#5b5a56" d="M 791.5,600.5 C 791.5,600.167 791.5,599.833 791.5,599.5C 792.922,599.709 794.255,600.209 795.5,601C 825.291,628.415 860.791,638.915 902,632.5C 904.161,633.267 906.328,632.934 908.5,631.5C 905.792,628.791 902.792,626.458 899.5,624.5C 899.5,624.167 899.5,623.833 899.5,623.5C 909.103,621.005 918.769,618.505 928.5,616C 938.327,611.921 947.66,607.088 956.5,601.5C 957.076,604.876 957.743,608.209 958.5,611.5C 958.5,612.833 958.5,614.167 958.5,615.5C 957.883,615.389 957.383,615.056 957,614.5C 943.517,623.479 928.684,629.645 912.5,633C 913.167,633.667 913.833,634.333 914.5,635C 870.372,644.907 830.872,635.74 796,607.5C 794.646,604.998 793.146,602.665 791.5,600.5 Z"/></g>
<g><path style="opacity:0.125" fill="#1d1d1d" d="M 1030.5,600.5 C 1030.57,602.027 1029.91,603.027 1028.5,603.5C 1028.43,601.973 1029.09,600.973 1030.5,600.5 Z"/></g>
<g><path style="opacity:0.043" fill="#191918" d="M 1027.5,605.5 C 1027.57,607.027 1026.91,608.027 1025.5,608.5C 1025.43,606.973 1026.09,605.973 1027.5,605.5 Z"/></g>
<g><path style="opacity:1" fill="#575552" d="M 791.5,600.5 C 793.146,602.665 794.646,604.998 796,607.5C 830.872,635.74 870.372,644.907 914.5,635C 913.833,634.333 913.167,633.667 912.5,633C 928.684,629.645 943.517,623.479 957,614.5C 957.383,615.056 957.883,615.389 958.5,615.5C 959.159,618.455 959.492,621.455 959.5,624.5C 949.542,630.547 939.042,635.547 928,639.5C 927.586,639.043 927.086,638.709 926.5,638.5C 926.94,639.953 926.274,641.119 924.5,642C 893.107,651.5 861.774,650.5 830.5,639C 821.538,634.524 812.538,630.357 803.5,626.5C 797.923,618.672 793.923,610.005 791.5,600.5 Z"/></g>
<g><path style="opacity:0.004" fill="#191817" d="M 1017.5,617.5 C 1017.5,619.5 1016.5,620.5 1014.5,620.5C 1015.17,619.167 1016.17,618.167 1017.5,617.5 Z"/></g>
<g><path style="opacity:0.008" fill="#131312" d="M 1014.5,620.5 C 1014.5,622.5 1013.5,623.5 1011.5,623.5C 1012.17,622.167 1013.17,621.167 1014.5,620.5 Z"/></g>
<g><path style="opacity:1" fill="#54534f" d="M 959.5,624.5 C 959.508,627.545 959.841,630.545 960.5,633.5C 960.5,636.833 960.5,640.167 960.5,643.5C 957.167,643.5 953.833,643.5 950.5,643.5C 945.663,643.884 940.997,643.217 936.5,641.5C 901.329,656.758 866.163,657.425 831,643.5C 830.667,643.833 830.333,644.167 830,644.5C 822.678,640.422 815.178,636.755 807.5,633.5C 805.412,631.664 804.079,629.331 803.5,626.5C 812.538,630.357 821.538,634.524 830.5,639C 861.774,650.5 893.107,651.5 924.5,642C 926.274,641.119 926.94,639.953 926.5,638.5C 927.086,638.709 927.586,639.043 928,639.5C 939.042,635.547 949.542,630.547 959.5,624.5 Z"/></g>
<g><path style="opacity:0.008" fill="#1f1a1a" d="M 1002.5,630.5 C 1001.71,632.104 1000.38,632.771 998.5,632.5C 999.514,631.326 1000.85,630.66 1002.5,630.5 Z"/></g>
<g><path style="opacity:0.035" fill="#1d1d1c" d="M 995.5,634.5 C 994.713,636.104 993.38,636.771 991.5,636.5C 992.514,635.326 993.847,634.66 995.5,634.5 Z"/></g>
<g><path style="opacity:0.071" fill="#1e1a18" d="M 989.5,637.5 C 988.22,638.931 986.553,639.598 984.5,639.5C 985.78,638.069 987.447,637.402 989.5,637.5 Z"/></g>
<g><path style="opacity:1" fill="#4d4c49" d="M 807.5,633.5 C 815.178,636.755 822.678,640.422 830,644.5C 830.333,644.167 830.667,643.833 831,643.5C 866.163,657.425 901.329,656.758 936.5,641.5C 940.997,643.217 945.663,643.884 950.5,643.5C 952.631,644.314 954.964,644.814 957.5,645C 952.756,645.912 948.589,647.746 945,650.5C 944.667,650.167 944.333,649.833 944,649.5C 942.51,651.558 940.51,652.891 938,653.5C 937.667,653.167 937.333,652.833 937,652.5C 934.689,654.11 932.189,655.443 929.5,656.5C 928.833,656.167 928.167,655.833 927.5,655.5C 924.243,658.369 920.577,659.369 916.5,658.5C 910.69,661.715 904.523,662.715 898,661.5C 896.092,662.454 894.092,663.121 892,663.5C 879.709,663.313 867.542,662.813 855.5,662C 853.324,661.837 851.491,661.004 850,659.5C 848.594,660.668 847.428,660.335 846.5,658.5C 843.476,659.291 840.476,658.958 837.5,657.5C 836.353,657.182 835.519,656.516 835,655.5C 831.629,656.155 828.629,655.155 826,652.5C 825.586,652.957 825.086,653.291 824.5,653.5C 822.21,652.533 820.21,651.2 818.5,649.5C 814.055,644.719 810.389,639.385 807.5,633.5 Z"/></g>
<g><path style="opacity:1" fill="#464542" d="M 950.5,643.5 C 953.833,643.5 957.167,643.5 960.5,643.5C 962.833,643.5 965.167,643.5 967.5,643.5C 965.393,644.468 963.059,644.802 960.5,644.5C 960.09,650.358 959.423,656.191 958.5,662C 958.684,663.376 959.351,664.209 960.5,664.5C 944.623,665.864 928.956,668.53 913.5,672.5C 906.241,673.631 899.241,675.631 892.5,678.5C 875.481,678.089 858.481,676.256 841.5,673C 839.886,670.873 837.886,669.373 835.5,668.5C 828.75,663.086 823.083,656.753 818.5,649.5C 820.21,651.2 822.21,652.533 824.5,653.5C 825.086,653.291 825.586,652.957 826,652.5C 828.629,655.155 831.629,656.155 835,655.5C 835.519,656.516 836.353,657.182 837.5,657.5C 840.476,658.958 843.476,659.291 846.5,658.5C 847.428,660.335 848.594,660.668 850,659.5C 851.491,661.004 853.324,661.837 855.5,662C 867.542,662.813 879.709,663.313 892,663.5C 894.092,663.121 896.092,662.454 898,661.5C 904.523,662.715 910.69,661.715 916.5,658.5C 920.577,659.369 924.243,658.369 927.5,655.5C 928.167,655.833 928.833,656.167 929.5,656.5C 932.189,655.443 934.689,654.11 937,652.5C 937.333,652.833 937.667,653.167 938,653.5C 940.51,652.891 942.51,651.558 944,649.5C 944.333,649.833 944.667,650.167 945,650.5C 948.589,647.746 952.756,645.912 957.5,645C 954.964,644.814 952.631,644.314 950.5,643.5 Z"/></g>
<g><path style="opacity:0.227" fill="#2d2c29" d="M 1023.5,662.5 C 1030.42,662.068 1037.09,662.734 1043.5,664.5C 1036.66,664.111 1029.99,663.444 1023.5,662.5 Z"/></g>
<g><path style="opacity:0.224" fill="#232220" d="M 1048.5,665.5 C 1051.88,665.068 1054.88,665.735 1057.5,667.5C 1054.31,667.142 1051.31,666.475 1048.5,665.5 Z"/></g>
<g><path style="opacity:0.267" fill="#242422" d="M 1061.5,668.5 C 1063.55,668.402 1065.22,669.069 1066.5,670.5C 1064.45,670.598 1062.78,669.931 1061.5,668.5 Z"/></g>
<g><path style="opacity:1" fill="#807f7b" d="M 1023.5,662.5 C 1029.99,663.444 1036.66,664.111 1043.5,664.5C 1045.41,664.216 1047.08,664.549 1048.5,665.5C 1051.31,666.475 1054.31,667.142 1057.5,667.5C 1058.96,667.433 1060.29,667.766 1061.5,668.5C 1062.78,669.931 1064.45,670.598 1066.5,670.5C 1067.49,670.328 1068.16,670.662 1068.5,671.5C 1068.97,672.906 1069.97,673.573 1071.5,673.5C 1071.5,674.167 1071.5,674.833 1071.5,675.5C 1052.34,676.167 1033,676.5 1013.5,676.5C 993.684,676.488 974.017,675.821 954.5,674.5C 952.966,677.773 951.632,681.106 950.5,684.5C 950.217,685.289 949.717,685.956 949,686.5C 937.033,681.906 925.2,677.239 913.5,672.5C 928.956,668.53 944.623,665.864 960.5,664.5C 976.129,662.801 991.963,661.801 1008,661.5C 1013.19,661.66 1018.35,661.993 1023.5,662.5 Z"/></g>
<g><path style="opacity:0.071" fill="#1f1818" d="M 1068.5,671.5 C 1070.03,671.427 1071.03,672.094 1071.5,673.5C 1069.97,673.573 1068.97,672.906 1068.5,671.5 Z"/></g>
<g><path style="opacity:1" fill="#7e7d79" d="M 1071.5,675.5 C 1072.47,677.607 1072.8,679.941 1072.5,682.5C 1071.5,683.167 1070.5,683.833 1069.5,684.5C 1029.83,684.5 990.167,684.5 950.5,684.5C 951.632,681.106 952.966,677.773 954.5,674.5C 974.017,675.821 993.684,676.488 1013.5,676.5C 1033,676.5 1052.34,676.167 1071.5,675.5 Z"/></g>
<g><path style="opacity:1" fill="#7c7a76" d="M 913.5,672.5 C 925.2,677.239 937.033,681.906 949,686.5C 949.717,685.956 950.217,685.289 950.5,684.5C 990.167,684.5 1029.83,684.5 1069.5,684.5C 1069.5,684.833 1069.5,685.167 1069.5,685.5C 1068.97,687.446 1067.63,688.446 1065.5,688.5C 1064.29,688.932 1063.29,689.599 1062.5,690.5C 1024.17,690.333 985.832,690.5 947.5,691C 945.561,692.432 944.228,694.265 943.5,696.5C 941.661,697.508 940.328,699.008 939.5,701C 937.167,701.667 934.833,701.667 932.5,701C 917.843,695.673 903.177,690.34 888.5,685C 886.944,684.28 885.944,683.113 885.5,681.5C 887.713,680.227 890.046,679.227 892.5,678.5C 899.241,675.631 906.241,673.631 913.5,672.5 Z"/></g>
<g><path style="opacity:0.863" fill="#3c3c3a" d="M 1071.5,673.5 C 1073.39,674.768 1074.39,676.601 1074.5,679C 1074.61,680.699 1073.95,681.866 1072.5,682.5C 1072.8,679.941 1072.47,677.607 1071.5,675.5C 1071.5,674.833 1071.5,674.167 1071.5,673.5 Z"/></g>
<g><path style="opacity:1" fill="#3e3d3a" d="M 835.5,668.5 C 837.886,669.373 839.886,670.873 841.5,673C 858.481,676.256 875.481,678.089 892.5,678.5C 890.046,679.227 887.713,680.227 885.5,681.5C 883.004,682.58 880.67,683.914 878.5,685.5C 877.094,685.973 876.427,686.973 876.5,688.5C 875.305,688.866 874.639,689.699 874.5,691C 876.626,692.492 878.626,694.159 880.5,696C 894.025,701.13 907.692,705.797 921.5,710C 915.796,710.456 910.13,710.456 904.5,710C 907.374,710.942 910.04,712.109 912.5,713.5C 882.653,705.418 856.986,690.418 835.5,668.5 Z"/></g>
<g><path style="opacity:0.008" fill="#171615" d="M 1072.5,682.5 C 1072.5,684.5 1071.5,685.5 1069.5,685.5C 1069.5,685.167 1069.5,684.833 1069.5,684.5C 1070.5,683.833 1071.5,683.167 1072.5,682.5 Z"/></g>
<g><path style="opacity:0.004" fill="#161515" d="M 1065.5,688.5 C 1065.18,690.048 1064.18,690.715 1062.5,690.5C 1063.29,689.599 1064.29,688.932 1065.5,688.5 Z"/></g>
<g><path style="opacity:1" fill="#72716d" d="M 1062.5,690.5 C 1062.5,691.167 1062.17,691.5 1061.5,691.5C 1059.97,691.427 1058.97,692.094 1058.5,693.5C 1058.16,694.338 1057.49,694.672 1056.5,694.5C 1055.08,694.709 1053.74,695.209 1052.5,696C 1016.17,696.5 979.835,696.667 943.5,696.5C 944.228,694.265 945.561,692.432 947.5,691C 985.832,690.5 1024.17,690.333 1062.5,690.5 Z"/></g>
<g><path style="opacity:0.004" fill="#151313" d="M 1061.5,691.5 C 1061.03,692.906 1060.03,693.573 1058.5,693.5C 1058.97,692.094 1059.97,691.427 1061.5,691.5 Z"/></g>
<g><path style="opacity:1" fill="#686763" d="M 885.5,681.5 C 885.944,683.113 886.944,684.28 888.5,685C 903.177,690.34 917.843,695.673 932.5,701C 934.833,701.667 937.167,701.667 939.5,701C 940.328,699.008 941.661,697.508 943.5,696.5C 979.835,696.667 1016.17,696.5 1052.5,696C 1053.74,695.209 1055.08,694.709 1056.5,694.5C 1050.82,698.958 1044.49,702.291 1037.5,704.5C 1035.08,704.878 1032.75,705.545 1030.5,706.5C 996.498,706.667 962.498,706.5 928.5,706C 925.181,704.358 921.847,702.691 918.5,701C 905.666,696.278 892.666,691.944 879.5,688C 878.748,687.329 878.414,686.496 878.5,685.5C 880.67,683.914 883.004,682.58 885.5,681.5 Z"/></g>
<g><path style="opacity:0.169" fill="#1a1817" d="M 1037.5,704.5 C 1035.57,706.293 1033.24,707.293 1030.5,707.5C 1030.5,707.167 1030.5,706.833 1030.5,706.5C 1032.75,705.545 1035.08,704.878 1037.5,704.5 Z"/></g>
<g><path style="opacity:1" fill="#5f5e5a" d="M 878.5,685.5 C 878.414,686.496 878.748,687.329 879.5,688C 892.666,691.944 905.666,696.278 918.5,701C 921.847,702.691 925.181,704.358 928.5,706C 962.498,706.5 996.498,706.667 1030.5,706.5C 1030.5,706.833 1030.5,707.167 1030.5,707.5C 1027.86,709.31 1024.86,710.31 1021.5,710.5C 989.498,710.667 957.498,710.5 925.5,710C 927.891,708.691 927.891,707.691 925.5,707C 909.269,700.096 892.936,693.93 876.5,688.5C 876.427,686.973 877.094,685.973 878.5,685.5 Z"/></g>
<g><path style="opacity:1" fill="#575652" d="M 876.5,688.5 C 892.936,693.93 909.269,700.096 925.5,707C 927.891,707.691 927.891,708.691 925.5,710C 957.498,710.5 989.498,710.667 1021.5,710.5C 1021.16,711.338 1020.49,711.672 1019.5,711.5C 1016.85,711.41 1014.51,712.076 1012.5,713.5C 1006.76,715.847 1000.76,717.18 994.5,717.5C 989.63,717.69 984.964,718.356 980.5,719.5C 963.784,719.822 947.117,719.155 930.5,717.5C 924.281,717.021 918.281,715.687 912.5,713.5C 910.04,712.109 907.374,710.942 904.5,710C 910.13,710.456 915.796,710.456 921.5,710C 907.692,705.797 894.025,701.13 880.5,696C 878.626,694.159 876.626,692.492 874.5,691C 874.639,689.699 875.305,688.866 876.5,688.5 Z"/></g>
<g><path style="opacity:0.024" fill="#171613" d="M 1019.5,711.5 C 1017.49,712.924 1015.15,713.59 1012.5,713.5C 1014.51,712.076 1016.85,711.41 1019.5,711.5 Z"/></g>
<g><path style="opacity:0.094" fill="#181817" d="M 994.5,717.5 C 990.1,719.104 985.434,719.771 980.5,719.5C 984.964,718.356 989.63,717.69 994.5,717.5 Z"/></g>
<g><path style="opacity:0.455" fill="#21201e" d="M 930.5,717.5 C 947.117,719.155 963.784,719.822 980.5,719.5C 969.007,720.659 957.341,720.826 945.5,720C 940.272,719.704 935.272,718.871 930.5,717.5 Z"/></g>
</svg>
