<?xml version="1.0" encoding="UTF-8"?>
<!DOCTYPE svg PUBLIC "-//W3C//DTD SVG 1.1//EN" "http://www.w3.org/Graphics/SVG/1.1/DTD/svg11.dtd">
<svg xmlns="http://www.w3.org/2000/svg" version="1.1" width="1794px" height="585px" style="display: block; margin: center; shape-rendering: geometricPrecision; text-rendering: geometricPrecision; image-rendering: optimizeQuality; fill-rule:evenodd; clip-rule:evenodd" xmlns:xlink="http://www.w3.org/1999/xlink">
<g><path style="opacity:0.988" fill="#94948f" d="M 235.5,1.5 C 237.167,1.5 238.833,1.5 240.5,1.5C 240.171,30.7404 240.505,59.9071 241.5,89C 163.579,134.546 85.4119,179.712 7,224.5C 6.58605,224.043 6.08605,223.709 5.5,223.5C 3.12784,178.85 2.12784,134.183 2.5,89.5C 80.3648,60.3887 158.031,31.0554 235.5,1.5 Z"/></g>
<g><path style="opacity:0.982" fill="#74746f" d="M 256.5,1.5 C 258.199,1.33982 259.866,1.50649 261.5,2C 337.724,30.9446 414.057,59.6112 490.5,88C 493.268,89.762 494.768,92.262 495,95.5C 500.556,193.044 484.223,286.711 446,376.5C 408.144,460.021 350.644,526.521 273.5,576C 268.832,578.585 263.998,580.752 259,582.5C 257.893,582.415 256.893,582.081 256,581.5C 255.174,388.152 255.34,194.819 256.5,1.5 Z M 272.5,55.5 C 283.905,59.0242 295.239,62.8575 306.5,67C 361.612,88.3896 416.612,110.056 471.5,132C 474.9,159.352 473.566,186.519 467.5,213.5C 466.726,214.711 465.893,214.711 465,213.5C 456.059,194.619 447.393,175.619 439,156.5C 437.5,155 436,153.5 434.5,152C 380.609,131.387 326.943,110.221 273.5,88.5C 272.501,77.5202 272.168,66.5202 272.5,55.5 Z M 273.5,210.5 C 331.665,239.166 389.498,268.499 447,298.5C 443.693,325.422 435.36,350.756 422,374.5C 419.578,378.344 416.911,382.01 414,385.5C 412.168,362.539 410.501,339.539 409,316.5C 364.737,292.618 320.237,269.118 275.5,246C 272.982,244.13 271.648,241.63 271.5,238.5C 272.112,229.109 272.779,219.775 273.5,210.5 Z M 272.5,386.5 C 306.069,405.624 339.735,424.791 373.5,444C 374.357,444.689 375.023,445.522 375.5,446.5C 370.257,455.904 364.424,464.904 358,473.5C 345.938,486.231 333.271,498.231 320,509.5C 319.308,508.975 318.808,508.308 318.5,507.5C 322.889,492.11 326.889,476.61 330.5,461C 330.204,459.112 329.704,457.278 329,455.5C 309.484,444.747 290.817,432.747 273,419.5C 271.191,408.527 271.025,397.527 272.5,386.5 Z"/></g>
<g><path style="opacity:1" fill="#fefffe" d="M 1101.5,126.5 C 1103.47,126.261 1105.3,126.594 1107,127.5C 1107.17,152.173 1107.67,176.84 1108.5,201.5C 1128.3,182.134 1150.3,179.301 1174.5,193C 1181.73,199.616 1186.23,207.783 1188,217.5C 1189.04,224.125 1189.71,230.792 1190,237.5C 1190.67,263.167 1190.67,288.833 1190,314.5C 1189.5,315 1189,315.5 1188.5,316C 1175.45,316.814 1162.45,316.647 1149.5,315.5C 1148.86,287.823 1148.03,260.156 1147,232.5C 1142.4,218.113 1133.23,213.947 1119.5,220C 1114.63,224.249 1111.13,229.416 1109,235.5C 1107.59,261.881 1107.09,288.214 1107.5,314.5C 1106.97,315.192 1106.31,315.692 1105.5,316C 1092.79,316.814 1080.12,316.647 1067.5,315.5C 1066.5,252.837 1066.17,190.17 1066.5,127.5C 1078.35,127.828 1090.01,127.495 1101.5,126.5 Z"/></g>
<g><path style="opacity:1" fill="#fefffe" d="M 1599.5,126.5 C 1613.18,126.443 1626.85,126.776 1640.5,127.5C 1640.67,178.168 1640.5,228.834 1640,279.5C 1639.83,291.514 1639.33,303.514 1638.5,315.5C 1626.55,316.646 1614.55,316.812 1602.5,316C 1601.33,315.5 1600.5,314.667 1600,313.5C 1599.83,309.789 1599.33,306.122 1598.5,302.5C 1580.11,319.517 1559.11,323.35 1535.5,314C 1517.27,304.067 1507.77,288.567 1507,267.5C 1505.2,251.11 1506.86,235.11 1512,219.5C 1524.59,194.118 1545.09,182.618 1573.5,185C 1582.93,187.295 1591.09,191.795 1598,198.5C 1598.33,198.167 1598.67,197.833 1599,197.5C 1599.09,173.76 1599.25,150.093 1599.5,126.5 Z M 1570.5,216.5 C 1584.86,216.607 1594.03,223.607 1598,237.5C 1602.85,255.621 1598.35,270.788 1584.5,283C 1572.88,289.131 1563.05,286.964 1555,276.5C 1543.89,257.001 1545.72,238.834 1560.5,222C 1563.77,219.87 1567.1,218.037 1570.5,216.5 Z"/></g>
<g><path style="opacity:1" fill="#fefffe" d="M 1232.5,127.5 C 1256.86,126.225 1265.36,137.225 1258,160.5C 1255.8,163.04 1253.3,165.207 1250.5,167C 1242.58,168.568 1234.58,168.901 1226.5,168C 1218.16,163.99 1214.16,157.324 1214.5,148C 1215.06,136.284 1221.06,129.45 1232.5,127.5 Z"/></g>
<g><path style="opacity:1" fill="#fefffe" d="M 1434.5,127.5 C 1447.5,127.5 1460.5,127.5 1473.5,127.5C 1473.33,176.168 1473.5,224.834 1474,273.5C 1474.49,282.321 1479.15,286.654 1488,286.5C 1491.33,286.577 1494.5,285.91 1497.5,284.5C 1498.48,284.977 1499.31,285.643 1500,286.5C 1500.82,296.078 1500.65,305.578 1499.5,315C 1484.63,318.675 1469.63,319.341 1454.5,317C 1442.17,311.987 1435,302.82 1433,289.5C 1432.33,236.167 1432.33,182.833 1433,129.5C 1433.72,128.956 1434.22,128.289 1434.5,127.5 Z"/></g>
<g><path style="opacity:0.989" fill="#94948f" d="M 237.5,130.5 C 238.5,130.5 239.5,130.5 240.5,130.5C 240.667,173.835 240.5,217.168 240,260.5C 176.147,297.426 112.147,334.093 48,370.5C 47.228,370.355 46.5613,370.022 46,369.5C 33.8747,333.308 22.5413,296.975 12,260.5C 87.335,217.303 162.502,173.97 237.5,130.5 Z"/></g>
<g><path style="opacity:1" fill="#fefffe" d="M 604.5,184.5 C 641.468,182.969 661.301,200.636 664,237.5C 664.667,244.167 664.667,250.833 664,257.5C 635.239,258.329 606.405,258.829 577.5,259C 578.983,289.963 595.317,303.297 626.5,299C 636.954,297.023 646.121,292.523 654,285.5C 654.667,286.167 655.333,286.833 656,287.5C 656.877,294.249 656.544,300.916 655,307.5C 647.386,312.819 638.886,315.985 629.5,317C 610.973,320.643 593.306,318.31 576.5,310C 562.838,299.187 555.005,285.02 553,267.5C 549.758,247.281 553.091,228.281 563,210.5C 573.416,196.227 587.249,187.56 604.5,184.5 Z M 604.5,204.5 C 627.727,204.063 640.061,215.396 641.5,238.5C 620.5,238.5 599.5,238.5 578.5,238.5C 579.007,220.78 587.674,209.446 604.5,204.5 Z"/></g>
<g><path style="opacity:1" fill="#fefffe" d="M 747.5,184.5 C 759.276,184.422 770.61,186.589 781.5,191C 782.998,193.417 783.665,196.083 783.5,199C 782.96,203.489 782.626,207.989 782.5,212.5C 780.801,212.66 779.134,212.494 777.5,212C 753.03,197.627 732.53,201.793 716,224.5C 703.003,249.016 705.837,271.516 724.5,292C 734.82,299.275 746.153,301.609 758.5,299C 766.704,296.883 774.371,293.717 781.5,289.5C 781.271,296.515 780.771,303.515 780,310.5C 774.374,314.043 768.207,316.21 761.5,317C 739.553,321.348 719.886,316.682 702.5,303C 687.747,285.499 682.247,265.332 686,242.5C 691.179,206.818 711.679,187.485 747.5,184.5 Z"/></g>
<g><path style="opacity:1" fill="#fefffe" d="M 997.5,184.5 C 1011.12,184.329 1024.45,186.162 1037.5,190C 1038.53,193.896 1039.2,197.896 1039.5,202C 1038.69,208.81 1038.36,215.644 1038.5,222.5C 1033.09,220.629 1027.75,218.462 1022.5,216C 1012.45,212.778 1002.45,212.778 992.5,216C 985.863,220.566 985.863,225.233 992.5,230C 1004.25,234.471 1015.91,239.138 1027.5,244C 1037.39,249.276 1043.22,257.442 1045,268.5C 1048.46,294.067 1037.63,309.901 1012.5,316C 990.935,319.935 969.601,318.935 948.5,313C 946.536,302.088 945.869,290.922 946.5,279.5C 953.893,281.687 961.226,284.187 968.5,287C 978.765,290.966 989.098,291.299 999.5,288C 1006.48,283.816 1007.48,278.816 1002.5,273C 989.29,269.374 976.623,264.374 964.5,258C 946.88,245.368 942.046,228.868 950,208.5C 956.538,197.639 966.038,190.806 978.5,188C 984.906,186.438 991.24,185.271 997.5,184.5 Z"/></g>
<g><path style="opacity:1" fill="#fefffe" d="M 1347.5,184.5 C 1364.56,183.544 1380.23,187.711 1394.5,197C 1406.69,209.199 1412.85,224.033 1413,241.5C 1413.67,247.5 1413.67,253.5 1413,259.5C 1412.73,261.101 1412.23,262.601 1411.5,264C 1385.5,264.333 1359.5,264.667 1333.5,265C 1332.64,265.689 1331.98,266.522 1331.5,267.5C 1335.83,279.646 1344.5,286.479 1357.5,288C 1363.83,288.667 1370.17,288.667 1376.5,288C 1385.25,285.581 1393.92,283.081 1402.5,280.5C 1402.95,290.605 1402.45,300.605 1401,310.5C 1391.98,314.64 1382.48,317.14 1372.5,318C 1314.48,324.978 1287.32,299.478 1291,241.5C 1296.02,208.652 1314.85,189.652 1347.5,184.5 Z M 1348.5,213.5 C 1364.79,212.624 1373.29,220.291 1374,236.5C 1360.58,237.49 1347.08,237.823 1333.5,237.5C 1332.95,225.912 1337.95,217.912 1348.5,213.5 Z"/></g>
<g><path style="opacity:1" fill="#fefffe" d="M 849.5,185.5 C 860.172,185.333 870.839,185.5 881.5,186C 914.895,194.912 930.561,216.746 928.5,251.5C 930.682,283.773 916.682,305.273 886.5,316C 874.215,317.561 861.882,317.894 849.5,317C 823.354,310.52 807.854,294.02 803,267.5C 802.333,256.833 802.333,246.167 803,235.5C 808.036,208.968 823.536,192.302 849.5,185.5 Z M 862.5,202.5 C 884.883,204.039 899.05,215.706 905,237.5C 910.227,260.802 903.727,279.969 885.5,295C 867.137,304.967 850.971,302.134 837,286.5C 822.863,265.493 821.863,243.826 834,221.5C 841.035,211.269 850.535,204.936 862.5,202.5 Z"/></g>
<g><path style="opacity:1" fill="#fefffe" d="M 1217.5,187.5 C 1230.86,187.263 1244.19,187.596 1257.5,188.5C 1257.33,217.502 1257.5,246.502 1258,275.5C 1258.83,280.681 1261.66,284.181 1266.5,286C 1272.24,286.208 1277.91,286.374 1283.5,286.5C 1284.82,296.03 1284.82,305.53 1283.5,315C 1266.75,320.59 1250.09,320.59 1233.5,315C 1223.56,308.651 1218.06,299.484 1217,287.5C 1216.17,254.095 1216.34,220.762 1217.5,187.5 Z"/></g>
<g><path style="opacity:0.987" fill="#94948f" d="M 235.5,301.5 C 240.562,301.405 242.562,303.905 241.5,309C 240.699,349.157 240.199,389.324 240,429.5C 202.582,451.126 165.082,472.626 127.5,494C 126.167,494.667 124.833,494.667 123.5,494C 103.543,465.254 83.7099,436.42 64,407.5C 62.6986,405.635 62.3653,403.635 63,401.5C 120.645,368.266 178.145,334.933 235.5,301.5 Z"/></g>
<g><path style="opacity:1" fill="#fefffe" d="M 1309.5,338.5 C 1312.52,338.335 1315.52,338.502 1318.5,339C 1319,339.5 1319.5,340 1320,340.5C 1320.33,364.5 1320.67,388.5 1321,412.5C 1324.98,414.817 1328.32,417.817 1331,421.5C 1332.03,424.217 1331.2,426.051 1328.5,427C 1314.44,428.448 1307.44,421.948 1307.5,407.5C 1308.14,384.441 1308.8,361.441 1309.5,338.5 Z"/></g>
<g><path style="opacity:1" fill="#fefffe" d="M 1449.5,340.5 C 1457.81,338.337 1461.64,341.337 1461,349.5C 1459.61,352.366 1457.27,353.699 1454,353.5C 1446.95,352.994 1444.61,349.328 1447,342.5C 1447.99,341.934 1448.83,341.267 1449.5,340.5 Z"/></g>
<g><path style="opacity:1" fill="#fefffe" d="M 1125.5,349.5 C 1127.94,349.317 1130.1,349.984 1132,351.5C 1132.29,356.278 1132.46,360.945 1132.5,365.5C 1136.78,366.565 1141.12,367.398 1145.5,368C 1148.99,370.048 1149.32,372.714 1146.5,376C 1141.47,376.336 1136.47,376.836 1131.5,377.5C 1131.8,389.506 1132.3,401.506 1133,413.5C 1136.9,417.683 1141.73,419.517 1147.5,419C 1148.83,422.69 1147.83,425.69 1144.5,428C 1139.83,428.667 1135.17,428.667 1130.5,428C 1125.29,425.435 1122.13,421.268 1121,415.5C 1120.67,403.167 1120.33,390.833 1120,378.5C 1117.41,376.804 1114.58,375.804 1111.5,375.5C 1111.34,373.473 1111.5,371.473 1112,369.5C 1119.61,367.588 1122.61,362.921 1121,355.5C 1121.8,352.854 1123.3,350.854 1125.5,349.5 Z"/></g>
<g><path style="opacity:1" fill="#fefffe" d="M 1415.5,349.5 C 1418.36,349.055 1420.86,349.722 1423,351.5C 1423.28,356.784 1423.45,361.95 1423.5,367C 1428.31,366.928 1432.81,367.761 1437,369.5C 1437.76,371.769 1437.59,373.936 1436.5,376C 1432.5,376.333 1428.5,376.667 1424.5,377C 1424,377.5 1423.5,378 1423,378.5C 1422.63,390.178 1422.96,401.844 1424,413.5C 1424.47,414.931 1425.3,416.097 1426.5,417C 1430.24,417.694 1433.74,418.861 1437,420.5C 1438.21,423.834 1437.38,426.334 1434.5,428C 1426.83,429.733 1420,428.233 1414,423.5C 1413.33,422.167 1412.67,420.833 1412,419.5C 1410.76,406.213 1410.1,392.88 1410,379.5C 1407.97,377.263 1405.47,375.763 1402.5,375C 1401.17,373 1401.17,371 1402.5,369C 1404.75,367.961 1406.91,366.794 1409,365.5C 1410.25,361.918 1411.25,358.251 1412,354.5C 1413,352.677 1414.16,351.01 1415.5,349.5 Z"/></g>
<g><path style="opacity:1" fill="#fefffe" d="M 1261.5,365.5 C 1286.93,365.429 1298.76,378.096 1297,403.5C 1290.76,424.705 1276.93,432.538 1255.5,427C 1240.68,418.845 1234.84,406.345 1238,389.5C 1241.35,376.985 1249.18,368.985 1261.5,365.5 Z M 1264.5,375.5 C 1275.14,375.313 1281.98,380.313 1285,390.5C 1287.71,402.905 1283.54,412.072 1272.5,418C 1260.57,419.439 1253.07,414.273 1250,402.5C 1248.09,389.644 1252.92,380.644 1264.5,375.5 Z"/></g>
<g><path style="opacity:1" fill="#fefffe" d="M 1500.5,365.5 C 1525.43,365.934 1536.93,378.6 1535,403.5C 1529.68,422.464 1517.18,430.631 1497.5,428C 1478.68,420.873 1471.52,407.373 1476,387.5C 1480.29,375.708 1488.45,368.374 1500.5,365.5 Z M 1501.5,375.5 C 1512.1,375.261 1518.94,380.261 1522,390.5C 1524.69,402.943 1520.52,412.11 1509.5,418C 1498.35,419.193 1491.18,414.359 1488,403.5C 1485.34,390.483 1489.84,381.15 1501.5,375.5 Z"/></g>
<g><path style="opacity:1" fill="#fefffe" d="M 940.5,366.5 C 944.822,366.908 948.655,368.575 952,371.5C 977.133,360.315 991.633,368.315 995.5,395.5C 995.257,407.485 990.59,417.318 981.5,425C 977.821,427.282 973.821,428.449 969.5,428.5C 962.592,427.639 955.926,425.972 949.5,423.5C 949.5,433.833 949.5,444.167 949.5,454.5C 946.614,455.246 943.614,455.08 940.5,454C 939.874,453.25 939.374,452.416 939,451.5C 938.333,423.833 938.333,396.167 939,368.5C 939.717,367.956 940.217,367.289 940.5,366.5 Z M 964.5,375.5 C 976.659,377 982.992,384 983.5,396.5C 982.934,406.494 978.268,413.66 969.5,418C 958.808,418.992 952.308,414.159 950,403.5C 947.797,390.232 952.63,380.899 964.5,375.5 Z"/></g>
<g><path style="opacity:1" fill="#fefffe" d="M 1026.5,366.5 C 1033.53,365.805 1040.19,366.972 1046.5,370C 1048.36,371.558 1049.86,373.391 1051,375.5C 1052.67,380.5 1054.33,385.5 1056,390.5C 1057.89,396.093 1056.06,399.593 1050.5,401C 1040.47,401.784 1030.47,401.618 1020.5,400.5C 1018.54,400.875 1016.71,401.541 1015,402.5C 1017.75,414.211 1025.25,419.378 1037.5,418C 1040.99,417.058 1044.33,415.725 1047.5,414C 1050.24,412.92 1051.9,413.754 1052.5,416.5C 1051.78,423.056 1048.11,426.889 1041.5,428C 1022.04,432.529 1009.54,425.363 1004,406.5C 1000.78,393.09 1003.95,381.59 1013.5,372C 1017.74,369.651 1022.07,367.818 1026.5,366.5 Z M 1028.5,375.5 C 1037.65,375.564 1042.98,380.064 1044.5,389C 1035.33,390.471 1026,390.971 1016.5,390.5C 1016.12,381.885 1020.12,376.885 1028.5,375.5 Z"/></g>
<g><path style="opacity:1" fill="#fefffe" d="M 1080.5,366.5 C 1086.18,366.334 1091.84,366.501 1097.5,367C 1104,367.99 1106,371.49 1103.5,377.5C 1102.67,377.833 1101.83,378.167 1101,378.5C 1096.31,377.405 1091.64,376.405 1087,375.5C 1082.05,375.785 1078.88,378.285 1077.5,383C 1077.44,384.711 1078.11,386.044 1079.5,387C 1088.09,391.542 1096.26,396.709 1104,402.5C 1107.98,411.76 1105.81,419.26 1097.5,425C 1088.03,429.548 1078.36,430.215 1068.5,427C 1064.51,423.574 1063.51,419.407 1065.5,414.5C 1071.19,416.336 1077.02,417.67 1083,418.5C 1087.33,418.667 1090.67,417.001 1093,413.5C 1093.76,411.191 1093.26,409.191 1091.5,407.5C 1084.71,404.27 1078.04,400.77 1071.5,397C 1061.83,383.18 1064.83,373.014 1080.5,366.5 Z"/></g>
<g><path style="opacity:1" fill="#fefffe" d="M 1203.5,366.5 C 1209.51,366.334 1215.51,366.501 1221.5,367C 1227.76,368.787 1229.1,372.453 1225.5,378C 1219.87,377.176 1214.2,376.51 1208.5,376C 1204.13,376.867 1201.13,379.367 1199.5,383.5C 1199.98,384.478 1200.64,385.311 1201.5,386C 1210.77,389.543 1218.93,394.709 1226,401.5C 1231.48,414.402 1227.65,423.235 1214.5,428C 1206.74,430.028 1199.08,429.694 1191.5,427C 1190.67,426.167 1189.83,425.333 1189,424.5C 1188.5,421.183 1188.33,417.85 1188.5,414.5C 1194.28,415.925 1200.12,417.258 1206,418.5C 1210.2,418.545 1213.87,417.212 1217,414.5C 1218.12,411.044 1217.29,408.21 1214.5,406C 1205.39,404.086 1197.56,399.92 1191,393.5C 1185.47,379.918 1189.63,370.918 1203.5,366.5 Z"/></g>
<g><path style="opacity:1" fill="#fefffe" d="M 1342.5,366.5 C 1346.35,365.845 1349.19,367.179 1351,370.5C 1351.07,376.149 1350.9,381.816 1350.5,387.5C 1350.58,395.598 1351.42,403.598 1353,411.5C 1359.51,420.412 1366.51,420.746 1374,412.5C 1377.36,404.354 1378.86,395.854 1378.5,387C 1378.44,382.803 1378.1,378.636 1377.5,374.5C 1378.42,366.789 1382.26,364.789 1389,368.5C 1389.22,385.847 1389.72,403.181 1390.5,420.5C 1390.88,424.758 1389.04,427.425 1385,428.5C 1378.32,424.872 1371.49,424.705 1364.5,428C 1352.24,429.957 1344.07,425.123 1340,413.5C 1338.51,399.197 1338.18,384.864 1339,370.5C 1339.69,368.65 1340.86,367.316 1342.5,366.5 Z"/></g>
<g><path style="opacity:1" fill="#fefffe" d="M 1449.5,366.5 C 1451.86,366.337 1454.19,366.503 1456.5,367C 1457.67,367.5 1458.5,368.333 1459,369.5C 1459.33,383.5 1459.67,397.5 1460,411.5C 1462.54,414.617 1465.54,417.283 1469,419.5C 1470.95,422.257 1470.79,424.757 1468.5,427C 1461.48,428.646 1455.31,427.146 1450,422.5C 1449.14,420.913 1448.47,419.246 1448,417.5C 1447.33,401.167 1447.33,384.833 1448,368.5C 1448.72,367.956 1449.22,367.289 1449.5,366.5 Z"/></g>
<g><path style="opacity:1" fill="#fefffe" d="M 1549.5,366.5 C 1553.18,367.423 1556.68,368.757 1560,370.5C 1563.38,369.928 1566.55,368.761 1569.5,367C 1585.08,364.028 1594.58,370.194 1598,385.5C 1598.67,398.833 1598.67,412.167 1598,425.5C 1594.82,427.523 1591.32,428.023 1587.5,427C 1587,426.5 1586.5,426 1586,425.5C 1585.67,412.167 1585.33,398.833 1585,385.5C 1584.29,379.294 1580.79,375.96 1574.5,375.5C 1564.87,376.628 1559.37,381.962 1558,391.5C 1557.67,403.167 1557.33,414.833 1557,426.5C 1553.43,428.053 1550.1,427.72 1547,425.5C 1546.33,406.833 1546.33,388.167 1547,369.5C 1547.7,368.309 1548.53,367.309 1549.5,366.5 Z"/></g>
<g><path style="opacity:1" fill="#fefffe" d="M 1626.5,366.5 C 1632.51,366.334 1638.51,366.501 1644.5,367C 1646.33,367.273 1647.83,368.107 1649,369.5C 1649.78,372.429 1649.61,375.263 1648.5,378C 1642.92,376.858 1637.25,376.191 1631.5,376C 1627.07,376.691 1624.07,379.025 1622.5,383C 1623.45,384.955 1624.79,386.622 1626.5,388C 1635.25,391.455 1643.09,396.288 1650,402.5C 1654.74,415.974 1650.24,424.474 1636.5,428C 1629.1,428.848 1621.77,428.515 1614.5,427C 1610.97,424.419 1609.81,420.919 1611,416.5C 1611.69,415.643 1612.52,414.977 1613.5,414.5C 1620.17,417.752 1627.17,418.919 1634.5,418C 1640.99,415.208 1641.99,411.208 1637.5,406C 1628.57,403.787 1620.74,399.62 1614,393.5C 1609,380.168 1613.17,371.168 1626.5,366.5 Z"/></g>
<g><path style="opacity:0.971" fill="#94948f" d="M 237.5,469.5 C 238.5,469.5 239.5,469.5 240.5,469.5C 240.667,506.502 240.5,543.502 240,580.5C 238.874,581.944 237.374,582.61 235.5,582.5C 210.178,568.495 186.511,551.995 164.5,533C 159.943,528.946 155.943,524.446 152.5,519.5C 180.696,502.57 209.03,485.903 237.5,469.5 Z"/></g>
</svg>
