<?xml version="1.0" encoding="UTF-8"?>
<!DOCTYPE svg PUBLIC "-//W3C//DTD SVG 1.1//EN" "http://www.w3.org/Graphics/SVG/1.1/DTD/svg11.dtd">
<svg xmlns="http://www.w3.org/2000/svg" version="1.1" width="1080px" height="1920px" style="shape-rendering:geometricPrecision; text-rendering:geometricPrecision; image-rendering:optimizeQuality; fill-rule:evenodd; clip-rule:evenodd" xmlns:xlink="http://www.w3.org/1999/xlink">
<g><path style="opacity:0.894" fill="#fefffe" d="M 306.5,882.5 C 315.839,882.334 325.173,882.5 334.5,883C 336.556,883.311 338.556,883.811 340.5,884.5C 341.614,885.723 341.781,887.056 341,888.5C 335.374,897.584 329.874,906.75 324.5,916C 333.16,916.937 340.827,920.104 347.5,925.5C 338.755,942.658 329.755,959.658 320.5,976.5C 320.447,969.576 320.28,962.576 320,955.5C 316.094,943.104 307.594,936.438 294.5,935.5C 294.5,938.833 294.5,942.167 294.5,945.5C 306.42,946.757 312.42,953.423 312.5,965.5C 312.408,971.185 310.075,975.685 305.5,979C 299.83,982.901 293.497,984.568 286.5,984C 289,987.833 292.167,991 296,993.5C 312.089,992.509 328.256,992.175 344.5,992.5C 344.351,993.552 344.517,994.552 345,995.5C 349.5,992.333 353.333,988.5 356.5,984C 343.487,983.833 330.487,983.333 317.5,982.5C 317.667,982.167 317.833,981.833 318,981.5C 326.583,978.528 335.083,975.362 343.5,972C 349.818,969.887 356.152,968.22 362.5,967C 362.833,967.333 363.167,967.667 363.5,968C 362.372,972.881 360.372,977.381 357.5,981.5C 366.757,984.797 375.757,988.63 384.5,993C 386.303,993.637 387.636,994.803 388.5,996.5C 376.599,1017.89 358.599,1031.05 334.5,1036C 293.179,1040.63 264.012,1024.13 247,986.5C 235.537,945.654 247.371,913.821 282.5,891C 290.295,887.316 298.295,884.483 306.5,882.5 Z"/></g>
<g><path style="opacity:0.784" fill="#fefffe" d="M 371.5,901.5 C 388.837,901.333 406.17,901.5 423.5,902C 424.451,905.057 424.784,908.223 424.5,911.5C 417.167,911.5 409.833,911.5 402.5,911.5C 402.5,930.5 402.5,949.5 402.5,968.5C 399.167,968.5 395.833,968.5 392.5,968.5C 392.5,949.5 392.5,930.5 392.5,911.5C 385.492,911.666 378.492,911.5 371.5,911C 370.208,907.835 370.208,904.668 371.5,901.5 Z"/></g>
<g><path style="opacity:0.763" fill="#fefffe" d="M 519.5,901.5 C 522.777,901.216 525.943,901.549 529,902.5C 529.667,924.167 529.667,945.833 529,967.5C 525.943,968.451 522.777,968.784 519.5,968.5C 519.5,946.167 519.5,923.833 519.5,901.5 Z"/></g>
<g><path style="opacity:0.749" fill="#fefffe" d="M 589.5,901.5 C 592.777,901.216 595.943,901.549 599,902.5C 599.333,916.5 599.667,930.5 600,944.5C 600.192,954.36 605.192,959.026 615,958.5C 621.365,959.388 626.032,957.055 629,951.5C 630.273,935.22 630.94,918.886 631,902.5C 634.333,901.167 637.667,901.167 641,902.5C 641.667,917.5 641.667,932.5 641,947.5C 640.218,957.239 635.385,964.073 626.5,968C 613.727,971.849 602.561,969.349 593,960.5C 590.89,957.508 589.557,954.175 589,950.5C 588.183,934.093 588.349,917.759 589.5,901.5 Z"/></g>
<g><path style="opacity:0.564" fill="#fefffe" d="M 702.5,901.5 C 705.777,901.216 708.943,901.549 712,902.5C 715.185,912.649 711.852,915.982 702,912.5C 701.245,908.745 701.411,905.078 702.5,901.5 Z"/></g>
<g><path style="opacity:0.768" fill="#fefffe" d="M 826.5,901.5 C 829.5,901.5 832.5,901.5 835.5,901.5C 835.5,923.833 835.5,946.167 835.5,968.5C 832.5,968.5 829.5,968.5 826.5,968.5C 826.719,967.325 826.386,966.325 825.5,965.5C 819.699,969.684 813.365,970.517 806.5,968C 797.62,962.415 793.287,954.248 793.5,943.5C 793.292,934.246 796.625,926.746 803.5,921C 810.778,917.542 817.945,917.709 825,921.5C 825.205,914.754 825.705,908.087 826.5,901.5 Z M 811.5,927.5 C 819.633,926.798 824.467,930.465 826,938.5C 826.826,943.589 826.492,948.589 825,953.5C 821.294,960.383 816.127,961.883 809.5,958C 807.19,956.363 805.69,954.196 805,951.5C 803.902,944.615 804.569,937.949 807,931.5C 808.397,929.93 809.897,928.596 811.5,927.5 Z"/></g>
<g><path style="opacity:0.715" fill="#fefffe" d="M 729.5,903.5 C 730.833,903.5 732.167,903.5 733.5,903.5C 733.5,908.833 733.5,914.167 733.5,919.5C 735.833,919.5 738.167,919.5 740.5,919.5C 740.5,922.167 740.5,924.833 740.5,927.5C 738.167,927.5 735.833,927.5 733.5,927.5C 733.334,937.506 733.5,947.506 734,957.5C 740.726,958.068 743.56,961.734 742.5,968.5C 737.821,968.666 733.155,968.499 728.5,968C 726.86,966.605 725.36,965.105 724,963.5C 722.635,951.547 722.135,939.547 722.5,927.5C 716.755,928.175 715.089,925.841 717.5,920.5C 719.045,919.548 720.712,919.215 722.5,919.5C 722.335,915.818 722.501,912.152 723,908.5C 725.326,906.934 727.492,905.268 729.5,903.5 Z"/></g>
<g><path style="opacity:0.743" fill="#fefffe" d="M 433.5,918.5 C 446.454,916.225 455.621,920.892 461,932.5C 463.524,942.168 462.691,951.501 458.5,960.5C 448.663,970.55 437.663,972.05 425.5,965C 418.525,959.545 415.525,952.378 416.5,943.5C 416.356,931.012 422.023,922.679 433.5,918.5 Z M 435.5,927.5 C 446.505,927.337 452.172,932.837 452.5,944C 452.194,955.312 446.528,960.645 435.5,960C 427.206,953.11 425.04,944.61 429,934.5C 430.356,931.314 432.522,928.981 435.5,927.5 Z"/></g>
<g><path style="opacity:0.738" fill="#fefffe" d="M 482.5,918.5 C 501.62,916.463 511.62,924.963 512.5,944C 510.977,964.101 500.31,972.101 480.5,968C 470.462,963.273 465.796,955.273 466.5,944C 465.446,931.237 470.779,922.737 482.5,918.5 Z M 485.5,927.5 C 494.143,926.314 499.31,929.981 501,938.5C 502.098,944.859 501.098,950.859 498,956.5C 489.923,962.736 483.256,961.403 478,952.5C 477.685,949.628 477.185,946.795 476.5,944C 476.281,936.595 479.281,931.095 485.5,927.5 Z"/></g>
<g><path style="opacity:0.723" fill="#fefffe" d="M 549.5,918.5 C 553.846,918.334 558.179,918.501 562.5,919C 570.495,920.65 574.328,925.483 574,933.5C 570.943,934.451 567.777,934.784 564.5,934.5C 564.556,931.439 563.222,929.272 560.5,928C 554.848,926.346 550.181,927.679 546.5,932C 547.5,933 548.5,934 549.5,935C 557.488,937.454 565.321,940.287 573,943.5C 578.233,949.61 578.567,955.943 574,962.5C 565.976,969.397 556.809,971.23 546.5,968C 539.278,964.836 535.945,959.503 536.5,952C 538.847,951.564 541.181,951.064 543.5,950.5C 545.584,952.839 547.584,955.339 549.5,958C 553.173,960.333 557.173,961 561.5,960C 567.402,956.955 567.735,953.622 562.5,950C 555.128,948.741 548.128,946.408 541.5,943C 534.758,935.531 535.091,928.365 542.5,921.5C 544.885,920.339 547.219,919.339 549.5,918.5 Z"/></g>
<g><path style="opacity:0.754" fill="#fefffe" d="M 669.5,918.5 C 674.58,918.25 679.58,918.75 684.5,920C 686.772,922.027 688.939,924.194 691,926.5C 692.429,940.441 692.929,954.441 692.5,968.5C 689.167,968.5 685.833,968.5 682.5,968.5C 682.667,957.495 682.5,946.495 682,935.5C 679.353,927.402 674.186,925.402 666.5,929.5C 664.703,931.131 663.536,933.131 663,935.5C 662.5,946.495 662.333,957.495 662.5,968.5C 659.167,968.5 655.833,968.5 652.5,968.5C 652.5,952.167 652.5,935.833 652.5,919.5C 655.5,919.5 658.5,919.5 661.5,919.5C 661.21,923.554 661.877,924.054 663.5,921C 665.723,920.434 667.723,919.6 669.5,918.5 Z"/></g>
<g><path style="opacity:0.73" fill="#fefffe" d="M 760.5,918.5 C 780.735,916.902 790.235,926.235 789,946.5C 777.581,947.488 766.081,947.821 754.5,947.5C 756.392,956.901 762.059,961.068 771.5,960C 774.582,956.591 777.748,953.424 781,950.5C 784.038,950.836 786.872,951.669 789.5,953C 783.524,967.652 772.857,972.652 757.5,968C 747.968,962.948 743.302,954.948 743.5,944C 743.121,931.251 748.788,922.751 760.5,918.5 Z M 762.5,927.5 C 771.74,925.605 776.74,929.271 777.5,938.5C 769.826,938.666 762.159,938.5 754.5,938C 756.097,933.618 758.764,930.118 762.5,927.5 Z"/></g>
<g><path style="opacity:0.689" fill="#fefffe" d="M 701.5,919.5 C 705.167,919.5 708.833,919.5 712.5,919.5C 712.667,935.503 712.5,951.503 712,967.5C 708.606,968.456 705.106,968.789 701.5,968.5C 701.5,952.167 701.5,935.833 701.5,919.5 Z"/></g>
<g><path style="opacity:0.464" fill="#fefffe" d="M 395.5,976.5 C 400.511,976.334 405.511,976.501 410.5,977C 413.521,978.539 414.854,981.039 414.5,984.5C 412.5,984.5 410.5,984.5 408.5,984.5C 408.67,983.178 408.337,982.011 407.5,981C 404.118,980.176 400.784,980.343 397.5,981.5C 397.167,982.167 396.833,982.833 396.5,983.5C 402.182,984.703 407.849,985.87 413.5,987C 414.61,989.737 414.777,992.571 414,995.5C 413.5,996.667 412.667,997.5 411.5,998C 405.5,1000 399.5,1000 393.5,998C 391.887,995.772 391.22,993.272 391.5,990.5C 393.167,990.5 394.833,990.5 396.5,990.5C 397.019,993.775 399.019,995.108 402.5,994.5C 405.981,995.108 407.981,993.775 408.5,990.5C 403.823,990.165 399.156,989.665 394.5,989C 390.286,984.361 390.619,980.195 395.5,976.5 Z"/></g>
<g><path style="opacity:0.485" fill="#fefffe" d="M 496.5,976.5 C 497.833,976.5 499.167,976.5 500.5,976.5C 500.5,978.5 500.5,980.5 500.5,982.5C 504.182,982.335 507.848,982.501 511.5,983C 512.308,983.308 512.975,983.808 513.5,984.5C 514.443,989.1 514.777,993.767 514.5,998.5C 512.5,998.5 510.5,998.5 508.5,998.5C 508.5,994.5 508.5,990.5 508.5,986.5C 505.881,986.232 503.381,986.565 501,987.5C 500.501,991.152 500.335,994.818 500.5,998.5C 498.833,998.5 497.167,998.5 495.5,998.5C 495.203,991.08 495.536,983.746 496.5,976.5 Z"/></g>
<g><path style="opacity:0.513" fill="#fefffe" d="M 525.5,976.5 C 533.585,976.099 541.585,976.599 549.5,978C 552.866,983.502 553.366,989.335 551,995.5C 550.097,996.701 548.931,997.535 547.5,998C 540.174,998.5 532.841,998.666 525.5,998.5C 525.5,991.167 525.5,983.833 525.5,976.5 Z M 531.5,980.5 C 535.884,980.174 540.217,980.508 544.5,981.5C 547.742,984.952 548.075,988.619 545.5,992.5C 540.88,993.493 536.214,993.827 531.5,993.5C 531.5,989.167 531.5,984.833 531.5,980.5 Z"/></g>
<g><path style="opacity:0.523" fill="#fefffe" d="M 625.5,976.5 C 627.167,976.5 628.833,976.5 630.5,976.5C 630.5,983.833 630.5,991.167 630.5,998.5C 628.833,998.5 627.167,998.5 625.5,998.5C 625.5,991.167 625.5,983.833 625.5,976.5 Z"/></g>
<g><path style="opacity:0.515" fill="#fefffe" d="M 689.5,976.5 C 690.833,976.5 692.167,976.5 693.5,976.5C 693.5,983.833 693.5,991.167 693.5,998.5C 690.091,998.249 686.758,998.583 683.5,999.5C 677.509,999.509 674.509,996.509 674.5,990.5C 675,988.5 675.5,986.5 676,984.5C 679.922,982.688 684.089,982.021 688.5,982.5C 688.325,980.379 688.659,978.379 689.5,976.5 Z M 680.5,986.5 C 682.924,986.192 685.257,986.526 687.5,987.5C 689.208,992.962 687.208,995.128 681.5,994C 679.208,991.755 678.875,989.255 680.5,986.5 Z"/></g>
<g><path style="opacity:0.469" fill="#fefffe" d="M 708.5,976.5 C 713.511,976.334 718.511,976.501 723.5,977C 726.359,978.691 727.692,981.191 727.5,984.5C 725.5,984.5 723.5,984.5 721.5,984.5C 721.67,983.178 721.337,982.011 720.5,981C 717.118,980.176 713.784,980.343 710.5,981.5C 710.167,982.167 709.833,982.833 709.5,983.5C 714.399,984.878 719.399,985.712 724.5,986C 728.5,990 728.5,994 724.5,998C 718.5,1000 712.5,1000 706.5,998C 704.887,995.772 704.22,993.272 704.5,990.5C 706.167,990.5 707.833,990.5 709.5,990.5C 710.019,993.775 712.019,995.108 715.5,994.5C 718.981,995.108 720.981,993.775 721.5,990.5C 716.823,990.165 712.156,989.665 707.5,989C 703.286,984.361 703.619,980.195 708.5,976.5 Z"/></g>
<g><path style="opacity:0.443" fill="#fefffe" d="M 419.5,982.5 C 423.514,982.334 427.514,982.501 431.5,983C 432.416,983.374 433.25,983.874 434,984.5C 434.799,989.087 434.632,993.587 433.5,998C 427.71,1000.06 422.21,999.558 417,996.5C 414.517,991.05 415.35,986.383 419.5,982.5 Z M 421.5,993.5 C 424.024,992.2 426.691,992.2 429.5,993.5C 426.801,994.729 424.135,994.729 421.5,993.5 Z"/></g>
<g><path style="opacity:0.453" fill="#fefffe" d="M 440.5,982.5 C 444.514,982.334 448.514,982.501 452.5,983C 453.416,983.374 454.25,983.874 455,984.5C 455.499,989.155 455.666,993.821 455.5,998.5C 449.46,999.507 443.627,999.174 438,997.5C 435.948,994.54 436.114,991.707 438.5,989C 436.933,986.094 437.6,983.928 440.5,982.5 Z M 441.5,993.5 C 444.304,992.362 447.304,992.195 450.5,993C 447.616,994.815 444.616,994.982 441.5,993.5 Z"/></g>
<g><path style="opacity:0.473" fill="#fefffe" d="M 474.5,988.5 C 473.584,988.982 472.584,989.315 471.5,989.5C 469.293,987.486 466.627,986.486 463.5,986.5C 463.5,990.5 463.5,994.5 463.5,998.5C 461.833,998.5 460.167,998.5 458.5,998.5C 458.5,993.167 458.5,987.833 458.5,982.5C 462.846,982.334 467.179,982.501 471.5,983C 474.035,983.928 475.035,985.762 474.5,988.5 Z"/></g>
<g><path style="opacity:0.456" fill="#fefffe" d="M 474.5,988.5 C 475.234,987.122 475.901,985.622 476.5,984C 481.86,982.056 487.193,982.056 492.5,984C 493.406,985.699 493.739,987.533 493.5,989.5C 490.378,989.186 487.545,988.186 485,986.5C 481.748,985.92 480.248,987.253 480.5,990.5C 480.248,993.747 481.748,995.08 485,994.5C 487.545,992.814 490.378,991.814 493.5,991.5C 493.836,997.328 491.003,999.994 485,999.5C 477.248,999.914 473.748,996.248 474.5,988.5 Z"/></g>
<g><path style="opacity:0.472" fill="#fefffe" d="M 557.5,982.5 C 561.514,982.334 565.514,982.501 569.5,983C 571.061,983.318 572.228,984.151 573,985.5C 573.483,984.552 573.649,983.552 573.5,982.5C 575.467,982.261 577.301,982.594 579,983.5C 580,986.167 581,988.833 582,991.5C 582.302,986.988 584.469,983.988 588.5,982.5C 589.772,982.57 590.938,982.903 592,983.5C 593,986.167 594,988.833 595,991.5C 595.644,988.391 596.811,985.557 598.5,983C 605.5,982.333 612.5,982.333 619.5,983C 620.416,983.374 621.25,983.874 622,984.5C 622.499,989.155 622.666,993.821 622.5,998.5C 620.833,998.5 619.167,998.5 617.5,998.5C 617.665,994.818 617.499,991.152 617,987.5C 614.667,986.167 612.333,986.167 610,987.5C 609.501,991.152 609.335,994.818 609.5,998.5C 607.5,998.5 605.5,998.5 603.5,998.5C 603.666,994.154 603.499,989.821 603,985.5C 601.828,990.006 599.995,994.173 597.5,998C 595.5,998.667 593.5,998.667 591.5,998C 590.523,995.398 589.356,992.898 588,990.5C 587.548,993.149 586.714,995.649 585.5,998C 583.19,998.497 580.857,998.663 578.5,998.5C 577.731,994.229 576.231,990.229 574,986.5C 573.962,990.563 573.128,994.397 571.5,998C 566.484,999.841 561.484,999.841 556.5,998C 552.262,992.439 552.595,987.272 557.5,982.5 Z M 559.5,986.5 C 562.167,986.5 564.833,986.5 567.5,986.5C 569.18,993.659 566.68,995.993 560,993.5C 559.503,991.19 559.337,988.857 559.5,986.5 Z"/></g>
<g><path style="opacity:0.459" fill="#fefffe" d="M 636.5,982.5 C 640.514,982.334 644.514,982.501 648.5,983C 651.901,984.32 653.235,986.82 652.5,990.5C 652.362,996.969 649.029,999.969 642.5,999.5C 639.593,998.99 636.759,998.323 634,997.5C 632.48,993.625 632.146,989.625 633,985.5C 634.145,984.364 635.312,983.364 636.5,982.5 Z M 638.5,986.5 C 641.167,986.5 643.833,986.5 646.5,986.5C 648.18,993.659 645.68,995.993 639,993.5C 638.503,991.19 638.337,988.857 638.5,986.5 Z"/></g>
<g><path style="opacity:0.45" fill="#fefffe" d="M 657.5,982.5 C 661.514,982.334 665.514,982.501 669.5,983C 670.308,983.308 670.975,983.808 671.5,984.5C 672.443,989.1 672.777,993.767 672.5,998.5C 668.941,998.284 665.441,998.618 662,999.5C 654.298,999.249 652.131,995.749 655.5,989C 653.933,986.094 654.6,983.928 657.5,982.5 Z M 659.5,992.5 C 662.187,992.336 664.854,992.503 667.5,993C 666.228,994.046 664.728,994.546 663,994.5C 661.319,994.392 660.152,993.725 659.5,992.5 Z"/></g>
<g><path style="opacity:0.49" fill="#fefffe" d="M 732.5,982.5 C 736.514,982.334 740.514,982.501 744.5,983C 745.416,983.374 746.25,983.874 747,984.5C 749.161,989.337 748.661,993.837 745.5,998C 740.015,1000.16 734.848,999.662 730,996.5C 727.517,991.05 728.35,986.383 732.5,982.5 Z M 735.5,986.5 C 741.898,985.252 744.232,987.585 742.5,993.5C 735.125,996.125 732.792,993.792 735.5,986.5 Z"/></g>
<g><path style="opacity:0.49" fill="#fefffe" d="M 750.5,982.5 C 752.167,982.5 753.833,982.5 755.5,982.5C 755.335,986.182 755.501,989.848 756,993.5C 758.592,994.982 760.925,994.648 763,992.5C 763.333,989.5 763.667,986.5 764,983.5C 765.356,982.62 766.856,982.286 768.5,982.5C 768.5,987.833 768.5,993.167 768.5,998.5C 765.091,998.249 761.758,998.583 758.5,999.5C 756.556,998.811 754.556,998.311 752.5,998C 751.874,997.25 751.374,996.416 751,995.5C 750.501,991.179 750.334,986.846 750.5,982.5 Z"/></g>
<g><path style="opacity:0.486" fill="#fefffe" d="M 772.5,982.5 C 777.297,982.121 781.964,982.621 786.5,984C 788.492,988.152 787.159,989.985 782.5,989.5C 782.5,988.5 782.5,987.5 782.5,986.5C 780.533,986.261 778.699,986.594 777,987.5C 776.501,991.152 776.335,994.818 776.5,998.5C 774.833,998.5 773.167,998.5 771.5,998.5C 771.218,993.073 771.551,987.74 772.5,982.5 Z"/></g>
<g><path style="opacity:0.453" fill="#fefffe" d="M 792.5,982.5 C 796.182,982.335 799.848,982.501 803.5,983C 806.145,984.287 807.145,986.453 806.5,989.5C 802.888,987.568 798.888,986.568 794.5,986.5C 793.167,989.167 793.167,991.833 794.5,994.5C 796.857,994.663 799.19,994.497 801.5,994C 802.955,991.984 804.955,991.151 807.5,991.5C 807.335,993.827 806.669,995.993 805.5,998C 802.964,998.339 800.464,998.839 798,999.5C 795.536,998.839 793.036,998.339 790.5,998C 788.522,994.067 788.022,989.9 789,985.5C 789.985,984.186 791.152,983.186 792.5,982.5 Z"/></g>
<g><path style="opacity:0.445" fill="#fefffe" d="M 812.5,982.5 C 816.514,982.334 820.514,982.501 824.5,983C 825.416,983.374 826.25,983.874 827,984.5C 827.799,989.087 827.632,993.587 826.5,998C 820.666,1000.32 815.166,999.822 810,996.5C 807.517,991.05 808.35,986.383 812.5,982.5 Z M 814.5,992.5 C 817.518,992.335 820.518,992.502 823.5,993C 820.115,995.074 817.115,994.907 814.5,992.5 Z"/></g>
<g><path style="opacity:0.365" fill="#fefffe" d="M 517.5,993.5 C 519.167,993.5 520.833,993.5 522.5,993.5C 522.5,995.167 522.5,996.833 522.5,998.5C 520.833,998.5 519.167,998.5 517.5,998.5C 517.5,996.833 517.5,995.167 517.5,993.5 Z"/></g>
<g><path style="opacity:0.352" fill="#fefffe" d="M 697.5,993.5 C 699.167,993.5 700.833,993.5 702.5,993.5C 702.5,995.167 702.5,996.833 702.5,998.5C 700.833,998.5 699.167,998.5 697.5,998.5C 697.5,996.833 697.5,995.167 697.5,993.5 Z"/></g>
<g><path style="opacity:0.318" fill="#fefffe" d="M 830.5,993.5 C 832.167,993.5 833.833,993.5 835.5,993.5C 835.5,995.167 835.5,996.833 835.5,998.5C 833.5,998.5 831.5,998.5 829.5,998.5C 829.366,996.708 829.699,995.042 830.5,993.5 Z"/></g>
</svg>
